%FSLAX45Y45*%
G04 Gerber Fmt 4.5, Leading zero omitted, Abs format (unit mm)*
G04 Created by KiCad (PCBNEW 5.1.4) date 2019-08-28 20:29:49*
%MOMM*%
%LPD*%
G04 APERTURE LIST*
%ADD10C,0.050000*%
%ADD11C,0.200000*%
%ADD12C,0.300000*%
G04 APERTURE END LIST*
D10*
X18618200Y-13030200D02*
X18618200Y-13385800D01*
X18567400Y-13030200D02*
G75*
G02X18618200Y-13030200I25400J0D01*
G01*
X18567400Y-13030200D02*
X18567400Y-13385800D01*
X18618200Y-13385800D02*
G75*
G02X18567400Y-13385800I-25400J0D01*
G01*
X18618200Y-12522200D02*
X18618200Y-12877800D01*
X18567400Y-12522200D02*
G75*
G02X18618200Y-12522200I25400J0D01*
G01*
X18567400Y-12522200D02*
X18567400Y-12877800D01*
X18618200Y-12877800D02*
G75*
G02X18567400Y-12877800I-25400J0D01*
G01*
X18618200Y-11455400D02*
X18618200Y-11811000D01*
X18567400Y-11455400D02*
G75*
G02X18618200Y-11455400I25400J0D01*
G01*
X18567400Y-11455400D02*
X18567400Y-11811000D01*
X18618200Y-11811000D02*
G75*
G02X18567400Y-11811000I-25400J0D01*
G01*
X18567400Y-10947400D02*
G75*
G02X18618200Y-10947400I25400J0D01*
G01*
X18618200Y-11303000D02*
G75*
G02X18567400Y-11303000I-25400J0D01*
G01*
X18618200Y-10947400D02*
X18618200Y-11303000D01*
X18567400Y-10947400D02*
X18567400Y-11303000D01*
X22600000Y-14000000D02*
X22800000Y-13800000D01*
X22600000Y-4000000D02*
X22800000Y-4200000D01*
X6800000Y-14000000D02*
X6800000Y-4000000D01*
X22600000Y-14000000D02*
X6800000Y-14000000D01*
X22800000Y-4200000D02*
X22800000Y-13800000D01*
X6800000Y-4000000D02*
X22600000Y-4000000D01*
D11*
D12*
X7083928Y-14468214D02*
X7083928Y-14168214D01*
X7155357Y-14168214D01*
X7198214Y-14182500D01*
X7226786Y-14211071D01*
X7241071Y-14239643D01*
X7255357Y-14296786D01*
X7255357Y-14339643D01*
X7241071Y-14396786D01*
X7226786Y-14425357D01*
X7198214Y-14453929D01*
X7155357Y-14468214D01*
X7083928Y-14468214D01*
X7383928Y-14468214D02*
X7383928Y-14268214D01*
X7383928Y-14325357D02*
X7398214Y-14296786D01*
X7412500Y-14282500D01*
X7441071Y-14268214D01*
X7469643Y-14268214D01*
X7569643Y-14468214D02*
X7569643Y-14268214D01*
X7569643Y-14168214D02*
X7555357Y-14182500D01*
X7569643Y-14196786D01*
X7583928Y-14182500D01*
X7569643Y-14168214D01*
X7569643Y-14196786D01*
X7755357Y-14468214D02*
X7726786Y-14453929D01*
X7712500Y-14425357D01*
X7712500Y-14168214D01*
X7912500Y-14468214D02*
X7883928Y-14453929D01*
X7869643Y-14425357D01*
X7869643Y-14168214D01*
X8255357Y-14468214D02*
X8255357Y-14168214D01*
X8355357Y-14382500D01*
X8455357Y-14168214D01*
X8455357Y-14468214D01*
X8726786Y-14468214D02*
X8726786Y-14311071D01*
X8712500Y-14282500D01*
X8683928Y-14268214D01*
X8626786Y-14268214D01*
X8598214Y-14282500D01*
X8726786Y-14453929D02*
X8698214Y-14468214D01*
X8626786Y-14468214D01*
X8598214Y-14453929D01*
X8583928Y-14425357D01*
X8583928Y-14396786D01*
X8598214Y-14368214D01*
X8626786Y-14353929D01*
X8698214Y-14353929D01*
X8726786Y-14339643D01*
X8869643Y-14268214D02*
X8869643Y-14568214D01*
X8869643Y-14282500D02*
X8898214Y-14268214D01*
X8955357Y-14268214D01*
X8983928Y-14282500D01*
X8998214Y-14296786D01*
X9012500Y-14325357D01*
X9012500Y-14411071D01*
X8998214Y-14439643D01*
X8983928Y-14453929D01*
X8955357Y-14468214D01*
X8898214Y-14468214D01*
X8869643Y-14453929D01*
X9141071Y-14439643D02*
X9155357Y-14453929D01*
X9141071Y-14468214D01*
X9126786Y-14453929D01*
X9141071Y-14439643D01*
X9141071Y-14468214D01*
X9141071Y-14282500D02*
X9155357Y-14296786D01*
X9141071Y-14311071D01*
X9126786Y-14296786D01*
X9141071Y-14282500D01*
X9141071Y-14311071D01*
M02*
