G04 #@! TF.GenerationSoftware,KiCad,Pcbnew,5.1.4*
G04 #@! TF.CreationDate,2019-08-28T20:29:58+02:00*
G04 #@! TF.ProjectId,ETH1CJTAG,45544831-434a-4544-9147-2e6b69636164,rev?*
G04 #@! TF.SameCoordinates,Original*
G04 #@! TF.FileFunction,Drawing*
%FSLAX46Y46*%
G04 Gerber Fmt 4.6, Leading zero omitted, Abs format (unit mm)*
G04 Created by KiCad (PCBNEW 5.1.4) date 2019-08-28 20:29:58*
%MOMM*%
%LPD*%
G04 APERTURE LIST*
%ADD10C,0.150000*%
G04 APERTURE END LIST*
D10*
X143952380Y-36152380D02*
X143380952Y-36152380D01*
X143666666Y-36152380D02*
X143666666Y-35152380D01*
X143571428Y-35295238D01*
X143476190Y-35390476D01*
X143380952Y-35438095D01*
X144809523Y-35152380D02*
X144619047Y-35152380D01*
X144523809Y-35200000D01*
X144476190Y-35247619D01*
X144380952Y-35390476D01*
X144333333Y-35580952D01*
X144333333Y-35961904D01*
X144380952Y-36057142D01*
X144428571Y-36104761D01*
X144523809Y-36152380D01*
X144714285Y-36152380D01*
X144809523Y-36104761D01*
X144857142Y-36057142D01*
X144904761Y-35961904D01*
X144904761Y-35723809D01*
X144857142Y-35628571D01*
X144809523Y-35580952D01*
X144714285Y-35533333D01*
X144523809Y-35533333D01*
X144428571Y-35580952D01*
X144380952Y-35628571D01*
X144333333Y-35723809D01*
X145523809Y-35152380D02*
X145619047Y-35152380D01*
X145714285Y-35200000D01*
X145761904Y-35247619D01*
X145809523Y-35342857D01*
X145857142Y-35533333D01*
X145857142Y-35771428D01*
X145809523Y-35961904D01*
X145761904Y-36057142D01*
X145714285Y-36104761D01*
X145619047Y-36152380D01*
X145523809Y-36152380D01*
X145428571Y-36104761D01*
X145380952Y-36057142D01*
X145333333Y-35961904D01*
X145285714Y-35771428D01*
X145285714Y-35533333D01*
X145333333Y-35342857D01*
X145380952Y-35247619D01*
X145428571Y-35200000D01*
X145523809Y-35152380D01*
X146285714Y-36057142D02*
X146333333Y-36104761D01*
X146285714Y-36152380D01*
X146238095Y-36104761D01*
X146285714Y-36057142D01*
X146285714Y-36152380D01*
X146952380Y-35152380D02*
X147047619Y-35152380D01*
X147142857Y-35200000D01*
X147190476Y-35247619D01*
X147238095Y-35342857D01*
X147285714Y-35533333D01*
X147285714Y-35771428D01*
X147238095Y-35961904D01*
X147190476Y-36057142D01*
X147142857Y-36104761D01*
X147047619Y-36152380D01*
X146952380Y-36152380D01*
X146857142Y-36104761D01*
X146809523Y-36057142D01*
X146761904Y-35961904D01*
X146714285Y-35771428D01*
X146714285Y-35533333D01*
X146761904Y-35342857D01*
X146809523Y-35247619D01*
X146857142Y-35200000D01*
X146952380Y-35152380D01*
X147904761Y-35152380D02*
X148000000Y-35152380D01*
X148095238Y-35200000D01*
X148142857Y-35247619D01*
X148190476Y-35342857D01*
X148238095Y-35533333D01*
X148238095Y-35771428D01*
X148190476Y-35961904D01*
X148142857Y-36057142D01*
X148095238Y-36104761D01*
X148000000Y-36152380D01*
X147904761Y-36152380D01*
X147809523Y-36104761D01*
X147761904Y-36057142D01*
X147714285Y-35961904D01*
X147666666Y-35771428D01*
X147666666Y-35533333D01*
X147714285Y-35342857D01*
X147761904Y-35247619D01*
X147809523Y-35200000D01*
X147904761Y-35152380D01*
X148857142Y-35152380D02*
X148952380Y-35152380D01*
X149047619Y-35200000D01*
X149095238Y-35247619D01*
X149142857Y-35342857D01*
X149190476Y-35533333D01*
X149190476Y-35771428D01*
X149142857Y-35961904D01*
X149095238Y-36057142D01*
X149047619Y-36104761D01*
X148952380Y-36152380D01*
X148857142Y-36152380D01*
X148761904Y-36104761D01*
X148714285Y-36057142D01*
X148666666Y-35961904D01*
X148619047Y-35771428D01*
X148619047Y-35533333D01*
X148666666Y-35342857D01*
X148714285Y-35247619D01*
X148761904Y-35200000D01*
X148857142Y-35152380D01*
X150380952Y-36152380D02*
X150380952Y-35485714D01*
X150380952Y-35580952D02*
X150428571Y-35533333D01*
X150523809Y-35485714D01*
X150666666Y-35485714D01*
X150761904Y-35533333D01*
X150809523Y-35628571D01*
X150809523Y-36152380D01*
X150809523Y-35628571D02*
X150857142Y-35533333D01*
X150952380Y-35485714D01*
X151095238Y-35485714D01*
X151190476Y-35533333D01*
X151238095Y-35628571D01*
X151238095Y-36152380D01*
X151714285Y-36152380D02*
X151714285Y-35485714D01*
X151714285Y-35580952D02*
X151761904Y-35533333D01*
X151857142Y-35485714D01*
X152000000Y-35485714D01*
X152095238Y-35533333D01*
X152142857Y-35628571D01*
X152142857Y-36152380D01*
X152142857Y-35628571D02*
X152190476Y-35533333D01*
X152285714Y-35485714D01*
X152428571Y-35485714D01*
X152523809Y-35533333D01*
X152571428Y-35628571D01*
X152571428Y-36152380D01*
X68000000Y-37000000D02*
X228000000Y-37000000D01*
X68000000Y-40000000D02*
X68000000Y-36413579D01*
X228000000Y-40000000D02*
X228000000Y-36413579D01*
X228000000Y-37000000D02*
X226873496Y-37586421D01*
X228000000Y-37000000D02*
X226873496Y-36413579D01*
X68000000Y-37000000D02*
X69126504Y-37586421D01*
X68000000Y-37000000D02*
X69126504Y-36413579D01*
X64152380Y-94047619D02*
X64152380Y-94619047D01*
X64152380Y-94333333D02*
X63152380Y-94333333D01*
X63295238Y-94428571D01*
X63390476Y-94523809D01*
X63438095Y-94619047D01*
X63152380Y-93428571D02*
X63152380Y-93333333D01*
X63200000Y-93238095D01*
X63247619Y-93190476D01*
X63342857Y-93142857D01*
X63533333Y-93095238D01*
X63771428Y-93095238D01*
X63961904Y-93142857D01*
X64057142Y-93190476D01*
X64104761Y-93238095D01*
X64152380Y-93333333D01*
X64152380Y-93428571D01*
X64104761Y-93523809D01*
X64057142Y-93571428D01*
X63961904Y-93619047D01*
X63771428Y-93666666D01*
X63533333Y-93666666D01*
X63342857Y-93619047D01*
X63247619Y-93571428D01*
X63200000Y-93523809D01*
X63152380Y-93428571D01*
X63152380Y-92476190D02*
X63152380Y-92380952D01*
X63200000Y-92285714D01*
X63247619Y-92238095D01*
X63342857Y-92190476D01*
X63533333Y-92142857D01*
X63771428Y-92142857D01*
X63961904Y-92190476D01*
X64057142Y-92238095D01*
X64104761Y-92285714D01*
X64152380Y-92380952D01*
X64152380Y-92476190D01*
X64104761Y-92571428D01*
X64057142Y-92619047D01*
X63961904Y-92666666D01*
X63771428Y-92714285D01*
X63533333Y-92714285D01*
X63342857Y-92666666D01*
X63247619Y-92619047D01*
X63200000Y-92571428D01*
X63152380Y-92476190D01*
X64057142Y-91714285D02*
X64104761Y-91666666D01*
X64152380Y-91714285D01*
X64104761Y-91761904D01*
X64057142Y-91714285D01*
X64152380Y-91714285D01*
X63152380Y-91047619D02*
X63152380Y-90952380D01*
X63200000Y-90857142D01*
X63247619Y-90809523D01*
X63342857Y-90761904D01*
X63533333Y-90714285D01*
X63771428Y-90714285D01*
X63961904Y-90761904D01*
X64057142Y-90809523D01*
X64104761Y-90857142D01*
X64152380Y-90952380D01*
X64152380Y-91047619D01*
X64104761Y-91142857D01*
X64057142Y-91190476D01*
X63961904Y-91238095D01*
X63771428Y-91285714D01*
X63533333Y-91285714D01*
X63342857Y-91238095D01*
X63247619Y-91190476D01*
X63200000Y-91142857D01*
X63152380Y-91047619D01*
X63152380Y-90095238D02*
X63152380Y-90000000D01*
X63200000Y-89904761D01*
X63247619Y-89857142D01*
X63342857Y-89809523D01*
X63533333Y-89761904D01*
X63771428Y-89761904D01*
X63961904Y-89809523D01*
X64057142Y-89857142D01*
X64104761Y-89904761D01*
X64152380Y-90000000D01*
X64152380Y-90095238D01*
X64104761Y-90190476D01*
X64057142Y-90238095D01*
X63961904Y-90285714D01*
X63771428Y-90333333D01*
X63533333Y-90333333D01*
X63342857Y-90285714D01*
X63247619Y-90238095D01*
X63200000Y-90190476D01*
X63152380Y-90095238D01*
X63152380Y-89142857D02*
X63152380Y-89047619D01*
X63200000Y-88952380D01*
X63247619Y-88904761D01*
X63342857Y-88857142D01*
X63533333Y-88809523D01*
X63771428Y-88809523D01*
X63961904Y-88857142D01*
X64057142Y-88904761D01*
X64104761Y-88952380D01*
X64152380Y-89047619D01*
X64152380Y-89142857D01*
X64104761Y-89238095D01*
X64057142Y-89285714D01*
X63961904Y-89333333D01*
X63771428Y-89380952D01*
X63533333Y-89380952D01*
X63342857Y-89333333D01*
X63247619Y-89285714D01*
X63200000Y-89238095D01*
X63152380Y-89142857D01*
X64152380Y-87619047D02*
X63485714Y-87619047D01*
X63580952Y-87619047D02*
X63533333Y-87571428D01*
X63485714Y-87476190D01*
X63485714Y-87333333D01*
X63533333Y-87238095D01*
X63628571Y-87190476D01*
X64152380Y-87190476D01*
X63628571Y-87190476D02*
X63533333Y-87142857D01*
X63485714Y-87047619D01*
X63485714Y-86904761D01*
X63533333Y-86809523D01*
X63628571Y-86761904D01*
X64152380Y-86761904D01*
X64152380Y-86285714D02*
X63485714Y-86285714D01*
X63580952Y-86285714D02*
X63533333Y-86238095D01*
X63485714Y-86142857D01*
X63485714Y-86000000D01*
X63533333Y-85904761D01*
X63628571Y-85857142D01*
X64152380Y-85857142D01*
X63628571Y-85857142D02*
X63533333Y-85809523D01*
X63485714Y-85714285D01*
X63485714Y-85571428D01*
X63533333Y-85476190D01*
X63628571Y-85428571D01*
X64152380Y-85428571D01*
X65000000Y-140000000D02*
X65000000Y-40000000D01*
X68000000Y-140000000D02*
X64413579Y-140000000D01*
X68000000Y-40000000D02*
X64413579Y-40000000D01*
X65000000Y-40000000D02*
X65586421Y-41126504D01*
X65000000Y-40000000D02*
X64413579Y-41126504D01*
X65000000Y-140000000D02*
X65586421Y-138873496D01*
X65000000Y-140000000D02*
X64413579Y-138873496D01*
M02*
