M48
; DRILL file {KiCad 5.1.4} date Wed Aug 28 20:29:51 2019
; FORMAT={-:-/ absolute / inch / decimal}
; #@! TF.CreationDate,2019-08-28T20:29:51+02:00
; #@! TF.GenerationSoftware,Kicad,Pcbnew,5.1.4
; #@! TF.FileFunction,Plated,1,4,PTH
FMAT,2
INCH
T1C0.0079
T2C0.0197
T3C0.0236
T4C0.0256
T5C0.0315
T6C0.0394
T7C0.0472
T8C0.0551
T9C0.1142
T10C0.1220
T11C0.1339
%
G90
G05
T1
X2.85Y-2.215
X2.85Y-2.255
X2.87Y-2.235
X2.885Y-2.125
X2.89Y-2.215
X2.89Y-2.255
X2.895Y-2.56
X2.95Y-2.465
X2.97Y-2.625
X3.1Y-2.85
X3.105Y-4.875
X3.105Y-4.725
X3.115Y-2.4
X3.1396Y-4.285
X3.15Y-3.28
X3.15Y-3.505
X3.15Y-3.055
X3.225Y-4.055
X3.23Y-3.675
X3.235Y-3.725
X3.235Y-3.9
X3.2375Y-3.9975
X3.2469Y-3.8081
X3.25Y-2.88
X3.25Y-3.105
X3.25Y-3.33
X3.25Y-3.555
X3.255Y-2.73
X3.255Y-3.405
X3.26Y-2.955
X3.26Y-3.18
X3.265Y-3.965
X3.285Y-4.285
X3.32Y-4.625
X3.32Y-4.675
X3.32Y-4.725
X3.32Y-4.775
X3.32Y-4.825
X3.32Y-4.875
X3.325Y-4.32
X3.4Y-3.465
X3.425Y-3.205
X3.425Y-4.255
X3.505Y-5.12
X3.565Y-4.32
X3.6205Y-2.6143
X3.6252Y-2.6449
X3.645Y-3.815
X3.65Y-2.31
X3.65Y-5.235
X3.66Y-3.975
X3.665Y-2.58
X3.67Y-3.51
X3.68Y-4.835
X3.68Y-4.86
X3.69Y-5.235
X3.7Y-5.04
X3.7Y-5.12
X3.7048Y-2.6302
X3.705Y-4.835
X3.705Y-4.86
X3.71Y-4.915
X3.71Y-4.94
X3.73Y-2.64
X3.73Y-4.835
X3.73Y-4.86
X3.73Y-5.235
X3.735Y-3.11
X3.735Y-3.985
X3.735Y-4.915
X3.735Y-4.94
X3.75Y-3.41
X3.76Y-4.915
X3.76Y-4.94
X3.7623Y-3.3482
X3.77Y-2.655
X3.785Y-4.915
X3.785Y-4.94
X3.81Y-4.915
X3.81Y-4.94
X3.825Y-3.8
X3.85Y-2.41
X3.86Y-2.58
X3.865Y-2.695
X3.88Y-3.155
X3.88Y-3.39
X3.885Y-5.23
X3.895Y-2.31
X3.895Y-2.26
X3.9Y-2.63
X3.92Y-3.115
X3.92Y-3.39
X3.9375Y-4.2044
X3.94Y-4.175
X3.94Y-4.3
X3.94Y-4.61
X3.94Y-4.65
X3.945Y-4.02
X3.945Y-4.235
X3.945Y-4.265
X3.9452Y-4.1402
X3.95Y-3.24
X3.955Y-4.34
X3.955Y-5.085
X3.955Y-5.11
X3.955Y-5.135
X3.96Y-3.39
X3.975Y-2.805
X3.98Y-5.085
X3.98Y-5.11
X3.98Y-5.135
X3.9952Y-3.1952
X4.0Y-3.39
X4.005Y-5.085
X4.005Y-5.11
X4.005Y-5.135
X4.03Y-5.085
X4.03Y-5.11
X4.03Y-5.135
X4.045Y-3.77
X4.0577Y-3.0085
X4.06Y-3.235
X4.0623Y-3.63
X4.065Y-4.3633
X4.075Y-3.755
X4.08Y-2.9374
X4.0802Y-3.2208
X4.085Y-2.405
X4.1Y-2.63
X4.11Y-5.04
X4.11Y-5.065
X4.11Y-5.09
X4.11Y-2.7277
X4.11Y-4.73
X4.115Y-2.94
X4.115Y-2.985
X4.115Y-3.1
X4.115Y-3.1777
X4.1153Y-2.1202
X4.135Y-5.04
X4.135Y-5.065
X4.135Y-5.09
X4.135Y-3.415
X4.14Y-2.13
X4.15Y-4.58
X4.155Y-2.7277
X4.16Y-5.04
X4.16Y-5.065
X4.16Y-5.09
X4.1639Y-2.8161
X4.17Y-3.48
X4.1913Y-2.7335
X4.195Y-2.88
X4.195Y-3.6
X4.2018Y-5.2582
X4.205Y-2.62
X4.21Y-3.335
X4.21Y-3.365
X4.21Y-3.395
X4.2227Y-2.6377
X4.2242Y-3.1323
X4.225Y-3.285
X4.23Y-3.09
X4.23Y-3.755
X4.2376Y-2.7724
X4.24Y-3.365
X4.24Y-3.395
X4.24Y-3.175
X4.24Y-3.205
X4.25Y-2.59
X4.255Y-2.68
X4.265Y-4.84
X4.27Y-4.395
X4.27Y-2.885
X4.27Y-3.395
X4.275Y-2.59
X4.28Y-4.195
X4.285Y-2.375
X4.285Y-2.4
X4.29Y-1.845
X4.29Y-4.155
X4.295Y-2.46
X4.295Y-4.105
X4.3Y-2.59
X4.3073Y-3.205
X4.31Y-2.285
X4.31Y-2.75
X4.31Y-3.0723
X4.3146Y-2.865
X4.32Y-2.68
X4.325Y-4.1
X4.325Y-4.84
X4.33Y-2.46
X4.3321Y-1.9663
X4.3389Y-3.1489
X4.345Y-3.075
X4.3504Y-2.8896
X4.36Y-4.245
X4.36Y-2.93
X4.365Y-3.365
X4.3671Y-3.064
X4.37Y-2.615
X4.3718Y-2.9019
X4.375Y-2.7573
X4.375Y-3.205
X4.3777Y-3.11
X4.385Y-3.9273
X4.385Y-4.84
X4.39Y-3.96
X4.4026Y-3.5031
X4.405Y-2.885
X4.405Y-3.155
X4.405Y-3.21
X4.415Y-3.92
X4.42Y-2.945
X4.425Y-3.32
X4.435Y-4.145
X4.4385Y-3.6395
X4.44Y-2.31
X4.445Y-3.905
X4.445Y-4.84
X4.4468Y-2.78
X4.455Y-2.87
X4.455Y-3.235
X4.455Y-4.27
X4.4589Y-3.316
X4.4639Y-3.6394
X4.465Y-2.4273
X4.475Y-3.89
X4.49Y-2.43
X4.49Y-2.775
X4.5Y-2.4
X4.5Y-2.93
X4.5Y-3.525
X4.505Y-4.84
X4.51Y-3.875
X4.515Y-3.365
X4.5213Y-2.7748
X4.53Y-2.39
X4.53Y-3.645
X4.53Y-3.845
X4.5306Y-3.2249
X4.535Y-2.26
X4.545Y-2.895
X4.5566Y-2.9689
X4.56Y-3.095
X4.565Y-3.12
X4.565Y-3.235
X4.565Y-4.84
X4.57Y-2.755
X4.575Y-4.275
X4.5853Y-3.855
X4.59Y-3.0
X4.59Y-3.04
X4.5911Y-3.5261
X4.61Y-3.645
X4.61Y-3.845
X4.615Y-3.815
X4.625Y-4.71
X4.625Y-4.84
X4.64Y-3.465
X4.6409Y-3.6445
X4.6654Y-3.6475
X4.67Y-2.895
X4.675Y-2.925
X4.685Y-4.84
X4.69Y-3.645
X4.6945Y-2.9798
X4.715Y-3.6423
X4.72Y-3.535
X4.7223Y-3.51
X4.725Y-3.5837
X4.725Y-2.885
X4.7256Y-3.559
X4.7277Y-3.2
X4.745Y-3.6423
X4.745Y-4.84
X4.7673Y-2.8893
X4.7673Y-2.8623
X4.77Y-3.755
X4.775Y-2.26
X4.78Y-3.39
X4.79Y-3.22
X4.805Y-4.84
X4.82Y-3.39
X4.86Y-3.39
X4.86Y-5.185
X4.865Y-4.84
X4.865Y-5.225
X4.89Y-5.21
X4.895Y-3.085
X4.9Y-3.39
X4.925Y-3.875
X4.925Y-4.84
X4.945Y-3.035
X4.945Y-3.135
X4.95Y-3.22
X4.96Y-3.32
X4.96Y-3.345
X4.96Y-3.755
X4.975Y-3.51
X4.985Y-3.32
X4.985Y-3.345
X4.985Y-4.84
X4.99Y-3.595
X5.005Y-3.625
X5.03Y-3.595
X5.045Y-4.84
X5.055Y-3.305
X5.07Y-2.9
X5.08Y-3.04
X5.08Y-3.395
X5.1Y-3.505
X5.105Y-3.395
X5.105Y-4.84
X5.115Y-4.15
X5.12Y-2.875
X5.125Y-3.2377
X5.125Y-3.34
X5.13Y-3.47
X5.13Y-3.395
X5.13Y-3.625
X5.14Y-4.1
X5.15Y-3.34
X5.1554Y-3.3946
X5.16Y-4.12
X5.165Y-4.84
X5.18Y-3.395
X5.2277Y-4.06
X5.235Y-3.1199
X5.242Y-3.3482
X5.245Y-2.235
X5.2523Y-4.06
X5.26Y-3.215
X5.27Y-4.84
X5.275Y-3.655
X5.3Y-3.83
X5.3Y-3.905
X5.31Y-2.44
X5.315Y-2.055
X5.32Y-2.875
X5.32Y-3.625
X5.325Y-3.85
X5.33Y-3.945
X5.345Y-3.115
X5.355Y-3.87
X5.36Y-2.335
X5.36Y-2.44
X5.36Y-3.625
X5.365Y-3.215
X5.37Y-3.335
X5.37Y-3.905
X5.375Y-2.57
X5.38Y-2.885
X5.38Y-3.81
X5.405Y-3.82
X5.41Y-2.44
X5.41Y-2.765
X5.4162Y-2.9115
X5.42Y-4.2527
X5.425Y-2.685
X5.435Y-4.87
X5.44Y-2.905
X5.44Y-4.145
X5.445Y-2.39
X5.445Y-4.3
X5.45Y-2.175
X5.45Y-4.205
X5.455Y-2.745
X5.46Y-2.775
X5.46Y-3.23
X5.4638Y-2.9115
X5.48Y-2.7
X5.48Y-2.885
X5.5004Y-2.7746
X5.5021Y-2.874
X5.51Y-2.585
X5.5177Y-3.0623
X5.53Y-3.1
X5.535Y-2.59
X5.54Y-3.985
X5.54Y-4.1123
X5.54Y-4.335
X5.545Y-2.69
X5.5623Y-2.635
X5.57Y-2.74
X5.58Y-2.19
X5.59Y-2.54
X5.59Y-3.945
X5.595Y-3.885
X5.6Y-2.415
X5.6Y-2.69
X5.6034Y-3.8446
X5.6114Y-3.1386
X5.62Y-2.98
X5.625Y-2.92
X5.626Y-3.0039
X5.63Y-2.49
X5.645Y-3.2377
X5.655Y-2.445
X5.66Y-2.995
X5.685Y-2.845
X5.715Y-3.425
X5.7201Y-4.8399
X5.735Y-2.19
X5.735Y-4.475
X5.74Y-3.97
X5.74Y-4.27
X5.74Y-4.31
X5.77Y-3.57
X5.77Y-4.87
X5.775Y-3.865
X5.78Y-2.055
X5.78Y-4.27
X5.78Y-4.31
X5.785Y-4.475
X5.805Y-2.595
X5.81Y-3.905
X5.825Y-4.355
X5.83Y-2.845
X5.83Y-3.97
X5.83Y-5.205
X5.835Y-2.47
X5.845Y-3.9023
X5.855Y-2.285
X5.855Y-2.825
X5.88Y-2.365
X5.88Y-2.54
X5.88Y-3.785
X5.905Y-3.495
X5.91Y-3.785
X5.92Y-2.465
X5.92Y-3.725
X5.9307Y-3.5664
X5.94Y-2.72
X5.95Y-2.37
X6.0Y-3.49
X6.005Y-3.04
X6.025Y-2.5
X6.025Y-2.54
X6.065Y-2.865
X6.07Y-2.47
X6.07Y-3.57
X6.07Y-3.63
X6.07Y-3.87
X6.07Y-3.93
X6.085Y-3.81
X6.09Y-3.675
X6.09Y-3.75
X6.105Y-3.96
X6.1296Y-3.6754
X6.135Y-2.5827
X6.135Y-3.94
X6.145Y-2.285
X6.145Y-2.845
X6.16Y-2.385
X6.16Y-3.775
X6.16Y-3.94
X6.1644Y-3.8131
X6.185Y-2.69
X6.185Y-2.72
X6.185Y-3.795
X6.1992Y-3.8342
X6.21Y-2.945
X6.215Y-3.28
X6.23Y-3.71
X6.24Y-4.035
X6.2435Y-3.8915
X6.25Y-3.235
X6.26Y-2.47
X6.2673Y-2.7873
X6.275Y-2.825
X6.275Y-3.77
X6.275Y-3.795
X6.275Y-3.82
X6.28Y-2.555
X6.285Y-3.1343
X6.285Y-3.62
X6.29Y-3.08
X6.3Y-3.04
X6.3023Y-3.19
X6.3027Y-3.6527
X6.3041Y-3.9185
X6.335Y-3.77
X6.335Y-3.795
X6.335Y-3.82
X6.335Y-3.8878
X6.36Y-3.34
X6.36Y-3.915
X6.365Y-2.47
X6.38Y-3.69
X6.4Y-2.055
X6.405Y-3.19
X6.41Y-3.715
X6.42Y-2.57
X6.4295Y-3.7345
X6.4505Y-3.7555
X6.455Y-2.67
X6.51Y-2.68
X6.51Y-2.77
X6.51Y-3.445
X6.51Y-3.525
X6.5495Y-3.9105
X6.57Y-2.67
X6.5705Y-3.8895
X6.5877Y-2.3177
X6.61Y-2.21
X6.615Y-3.655
X6.615Y-3.905
X6.6177Y-2.2877
X6.62Y-3.805
X6.635Y-2.26
X6.635Y-2.67
X6.665Y-2.57
X6.685Y-2.045
X6.685Y-2.07
X6.685Y-2.095
X6.695Y-3.985
X6.71Y-2.045
X6.71Y-2.07
X6.71Y-2.095
X6.745Y-3.72
X6.75Y-3.865
X6.76Y-3.59
X6.955Y-3.15
X6.977Y-3.112
X7.005Y-2.385
X7.01Y-2.605
X7.055Y-3.035
X7.07Y-1.915
X7.075Y-3.655
X7.075Y-3.905
X7.08Y-3.07
X7.09Y-3.145
X7.135Y-3.11
X7.145Y-3.06
X7.1465Y-3.0065
X7.17Y-3.225
X7.25Y-2.965
X7.37Y-1.915
X7.47Y-2.035
X7.51Y-2.0523
X7.555Y-2.035
X7.575Y-2.495
X7.58Y-2.04
X7.605Y-1.82
X7.605Y-2.055
X7.605Y-2.615
X7.655Y-2.1977
X7.665Y-2.055
X7.665Y-2.09
X7.665Y-2.125
X7.68Y-3.005
X7.985Y-1.9627
X8.0286Y-1.9491
X8.2019Y-5.2531
X8.205Y-2.615
X8.22Y-4.34
X8.34Y-4.34
X8.49Y-4.34
X2.9553Y-2.2153
X2.9553Y-2.2547
X2.975Y-2.235
X2.9947Y-2.2547
X2.995Y-2.2153
T2
X2.88Y-1.825
X2.88Y-1.87
X2.915Y-2.315
X2.925Y-1.825
X2.925Y-1.87
X2.97Y-1.825
X2.97Y-1.87
X3.015Y-1.825
X3.015Y-1.87
X3.1Y-3.85
X3.105Y-1.825
X3.105Y-1.88
X3.125Y-4.095
X3.15Y-1.825
X3.15Y-1.88
X3.195Y-1.825
X3.195Y-1.88
X3.265Y-1.9
X3.265Y-1.945
X3.265Y-1.99
X3.265Y-2.035
X3.265Y-2.08
X3.405Y-2.075
X3.405Y-2.13
X3.405Y-3.845
X3.41Y-1.72
X3.41Y-1.77
X3.41Y-1.815
X3.41Y-1.865
X3.45Y-3.11
X3.45Y-3.24
X3.455Y-1.72
X3.465Y-2.075
X3.465Y-2.13
X3.475Y-2.865
X3.475Y-2.985
X3.5Y-1.72
X3.5Y-5.04
X3.525Y-2.075
X3.525Y-2.13
X3.545Y-1.72
X3.59Y-1.72
X3.6Y-3.9828
X3.61Y-4.665
X3.635Y-1.72
X3.635Y-1.77
X3.635Y-1.815
X3.635Y-1.865
X3.635Y-2.535
X3.655Y-3.11
X3.6594Y-3.3542
X3.665Y-2.74
X3.675Y-2.83
X3.685Y-3.1478
X3.725Y-3.725
X3.775Y-3.105
X3.845Y-1.72
X3.8833Y-3.2283
X3.89Y-2.955
X3.895Y-1.72
X3.905Y-2.83
X3.93Y-2.175
X3.935Y-2.71
X3.945Y-1.72
X3.96Y-4.745
X3.975Y-2.175
X3.995Y-1.72
X3.995Y-1.77
X3.995Y-1.82
X3.995Y-1.87
X3.995Y-1.92
X3.995Y-1.97
X3.995Y-3.27
X4.02Y-2.175
X4.14Y-2.48
X4.1674Y-3.2541
X4.225Y-2.285
X4.265Y-3.6
X4.345Y-3.01
X4.565Y-2.4928
X4.6006Y-3.2784
X4.62Y-2.76
X4.635Y-2.29
X4.6592Y-2.6438
X4.665Y-2.6878
X4.7Y-3.125
X4.75Y-2.65
X4.795Y-2.97
X4.83Y-2.71
X4.87Y-2.215
X4.87Y-2.71
X4.89Y-1.715
X4.89Y-1.765
X4.89Y-1.815
X4.89Y-1.865
X4.89Y-1.915
X4.89Y-1.965
X4.89Y-2.015
X4.89Y-2.065
X4.89Y-2.115
X4.895Y-3.765
X4.91Y-2.71
X4.94Y-1.715
X4.94Y-1.765
X4.94Y-1.815
X4.94Y-1.865
X4.94Y-1.915
X4.94Y-1.965
X4.94Y-2.015
X4.94Y-2.065
X4.94Y-2.115
X4.97Y-2.795
X4.99Y-1.715
X4.99Y-1.765
X4.99Y-1.815
X4.99Y-1.865
X4.99Y-1.915
X4.99Y-1.965
X4.99Y-2.015
X4.99Y-2.065
X4.99Y-2.115
X5.04Y-2.95
X5.09Y-2.52
X5.19Y-3.61
X5.225Y-2.195
X5.31Y-2.57
X5.43Y-4.555
X5.48Y-3.6
X5.555Y-2.285
X5.56Y-2.8378
X5.585Y-3.465
X5.635Y-4.39
X5.635Y-4.825
X5.6522Y-4.21
X5.69Y-2.745
X5.7326Y-2.5071
X5.77Y-3.65
X5.795Y-3.205
X5.81Y-2.705
X5.845Y-4.745
X5.91Y-4.175
X5.91Y-4.55
X5.935Y-2.965
X5.97Y-4.305
X5.97Y-5.06
X5.97Y-5.105
X5.97Y-5.15
X5.97Y-5.195
X5.985Y-2.335
X6.025Y-2.155
X6.055Y-3.2
X6.055Y-3.305
X6.1Y-2.705
X6.12Y-2.955
X6.14Y-3.105
X6.17Y-4.35
X6.17Y-4.395
X6.17Y-4.525
X6.17Y-4.57
X6.18Y-4.035
X6.195Y-3.22
X6.2Y-3.07
X6.215Y-4.35
X6.215Y-4.395
X6.215Y-4.525
X6.215Y-4.57
X6.215Y-5.06
X6.215Y-5.105
X6.215Y-5.15
X6.215Y-5.195
X6.25Y-3.39
X6.255Y-1.705
X6.255Y-1.75
X6.255Y-1.795
X6.255Y-1.84
X6.315Y-1.84
X6.375Y-5.095
X6.38Y-2.885
X6.42Y-3.855
X6.425Y-5.095
X6.425Y-4.03
X6.435Y-2.71
X6.445Y-4.48
X6.445Y-4.525
X6.445Y-4.57
X6.475Y-5.095
X6.495Y-2.53
X6.5101Y-2.9472
X6.525Y-5.095
X6.6Y-1.83
X6.6Y-2.05
X6.61Y-4.265
X6.61Y-4.31
X6.61Y-4.355
X6.61Y-4.605
X6.61Y-4.65
X6.61Y-4.695
X6.62Y-4.915
X6.62Y-5.285
X6.635Y-4.13
X6.635Y-4.175
X6.6464Y-2.4357
X6.67Y-4.915
X6.67Y-5.285
X6.68Y-4.13
X6.68Y-4.175
X6.72Y-4.915
X6.72Y-5.285
X6.725Y-4.13
X6.77Y-4.915
X6.77Y-5.285
X6.775Y-4.13
X6.86Y-2.085
X6.86Y-2.13
X6.86Y-2.175
X6.86Y-1.89
X6.86Y-1.845
X6.91Y-1.845
X6.91Y-1.89
X6.93Y-3.035
X6.975Y-3.25
X7.05Y-2.08
X7.05Y-2.125
X7.05Y-2.17
X7.11Y-3.03
X7.17Y-3.31
X7.205Y-1.83
X7.205Y-2.05
X7.205Y-2.385
X7.205Y-2.605
X7.355Y-2.415
X7.355Y-2.485
X7.385Y-3.18
X7.41Y-2.415
X7.805Y-1.83
X7.805Y-2.05
X7.805Y-2.385
X7.805Y-2.605
X7.99Y-2.04
X8.04Y-2.04
X8.105Y-1.84
X8.105Y-1.8825
X8.105Y-2.01
X8.105Y-2.05
X8.18Y-4.44
X8.18Y-4.49
X8.23Y-4.44
X8.23Y-4.49
X8.255Y-2.125
X8.28Y-4.44
X8.28Y-4.49
X8.33Y-4.44
X8.33Y-4.49
X8.38Y-4.44
X8.38Y-4.49
X8.385Y-5.09
X8.405Y-1.83
X8.405Y-2.05
X8.405Y-2.605
X8.43Y-4.44
X8.43Y-4.49
X8.43Y-5.09
X8.43Y-5.135
X8.45Y-2.43
X8.475Y-4.955
X8.475Y-5.0
X8.475Y-5.045
X8.475Y-5.09
X8.475Y-5.135
X8.48Y-4.44
X8.48Y-4.49
T3
X6.97Y-4.9
X6.97Y-5.3
X7.07Y-4.9
X7.07Y-5.3
X7.67Y-4.9
X7.67Y-5.3
X6.97Y-4.28
X6.97Y-4.68
X7.07Y-4.28
X7.07Y-4.68
X7.67Y-4.28
X7.67Y-4.68
T4
X3.9725Y-2.955
X3.9725Y-3.005
X3.9725Y-3.055
X3.9725Y-3.105
X3.9725Y-3.155
X4.0225Y-2.955
X4.0225Y-3.005
X4.0225Y-3.055
X4.0225Y-3.105
X4.0225Y-3.155
T5
X8.5693Y-1.9933
X8.5693Y-2.0933
X8.5693Y-2.1933
X8.5693Y-2.2933
X8.5693Y-2.3933
X8.5693Y-2.4933
X8.5693Y-2.5933
X8.5693Y-2.6933
X8.5693Y-2.7933
X8.5693Y-2.8933
X8.5693Y-2.9933
X8.5693Y-3.0933
X8.5693Y-3.1933
X8.5693Y-3.2933
X8.5693Y-3.3933
X8.5693Y-3.4933
X8.5693Y-3.5933
X8.5693Y-3.6933
X8.5693Y-3.7933
X8.5693Y-3.8933
X8.5693Y-3.9933
X8.5693Y-4.0933
X8.5693Y-4.1933
X8.5693Y-4.2933
X8.5693Y-4.3933
X8.5693Y-4.4933
X8.5693Y-4.5933
X8.5693Y-4.6933
X8.5693Y-4.7933
X8.5693Y-4.8933
X8.5693Y-4.9933
X8.5693Y-5.0933
X8.7693Y-1.9933
X8.7693Y-2.0933
X8.7693Y-2.1933
X8.7693Y-2.2933
X8.7693Y-2.3933
X8.7693Y-2.4933
X8.7693Y-2.5933
X8.7693Y-2.6933
X8.7693Y-2.7933
X8.7693Y-2.8933
X8.7693Y-2.9933
X8.7693Y-3.0933
X8.7693Y-3.1933
X8.7693Y-3.2933
X8.7693Y-3.3933
X8.7693Y-3.4933
X8.7693Y-3.5933
X8.7693Y-3.6933
X8.7693Y-3.7933
X8.7693Y-3.8933
X8.7693Y-3.9933
X8.7693Y-4.0933
X8.7693Y-4.1933
X8.7693Y-4.2933
X8.7693Y-4.3933
X8.7693Y-4.4933
X8.7693Y-4.5933
X8.7693Y-4.6933
X8.7693Y-4.7933
X8.7693Y-4.8933
X8.7693Y-4.9933
X8.7693Y-5.0933
T6
X3.605Y-4.405
X3.705Y-4.405
X7.7119Y-3.605
X7.7119Y-3.705
X7.7119Y-3.805
X7.7119Y-3.905
X7.8119Y-3.655
X7.8119Y-3.755
X7.8119Y-3.855
X7.8119Y-3.955
X5.675Y-4.105
X5.775Y-4.105
X5.875Y-4.105
T7
X7.8864Y-4.2831
X7.8864Y-4.6769
X8.0636Y-4.2831
X8.0636Y-4.6769
X7.8864Y-4.9031
X7.8864Y-5.2969
X8.0636Y-4.9031
X8.0636Y-5.2969
T8
X7.5441Y-4.0753
X8.1898Y-3.4847
T9
X2.8208Y-5.29
T10
X8.8693Y-1.7933
X8.8693Y-5.2933
T11
X8.0619Y-3.555
X8.0619Y-4.005
T2
G00X5.646Y-4.9027
M15
G01X5.6735Y-4.9027
M16
G05
G00X5.7483Y-4.9873
M15
G01X5.7917Y-4.9873
M16
G05
G00X5.8665Y-4.9027
M15
G01X5.894Y-4.9027
M16
G05
T0
M30
