%FSLAX45Y45*%
G04 Gerber Fmt 4.5, Leading zero omitted, Abs format (unit mm)*
G04 Created by KiCad (PCBNEW 5.1.4) date 2019-08-28 20:29:49*
%MOMM*%
%LPD*%
G04 APERTURE LIST*
%ADD10C,0.050000*%
%ADD11C,0.200000*%
%ADD12C,0.300000*%
G04 APERTURE END LIST*
D10*
X18618200Y-13030200D02*
X18618200Y-13385800D01*
X18567400Y-13030200D02*
G75*
G02X18618200Y-13030200I25400J0D01*
G01*
X18567400Y-13030200D02*
X18567400Y-13385800D01*
X18618200Y-13385800D02*
G75*
G02X18567400Y-13385800I-25400J0D01*
G01*
X18618200Y-12522200D02*
X18618200Y-12877800D01*
X18567400Y-12522200D02*
G75*
G02X18618200Y-12522200I25400J0D01*
G01*
X18567400Y-12522200D02*
X18567400Y-12877800D01*
X18618200Y-12877800D02*
G75*
G02X18567400Y-12877800I-25400J0D01*
G01*
X18618200Y-11455400D02*
X18618200Y-11811000D01*
X18567400Y-11455400D02*
G75*
G02X18618200Y-11455400I25400J0D01*
G01*
X18567400Y-11455400D02*
X18567400Y-11811000D01*
X18618200Y-11811000D02*
G75*
G02X18567400Y-11811000I-25400J0D01*
G01*
X18567400Y-10947400D02*
G75*
G02X18618200Y-10947400I25400J0D01*
G01*
X18618200Y-11303000D02*
G75*
G02X18567400Y-11303000I-25400J0D01*
G01*
X18618200Y-10947400D02*
X18618200Y-11303000D01*
X18567400Y-10947400D02*
X18567400Y-11303000D01*
X22600000Y-14000000D02*
X22800000Y-13800000D01*
X22600000Y-4000000D02*
X22800000Y-4200000D01*
X6800000Y-14000000D02*
X6800000Y-4000000D01*
X22600000Y-14000000D02*
X6800000Y-14000000D01*
X22800000Y-4200000D02*
X22800000Y-13800000D01*
X6800000Y-4000000D02*
X22600000Y-4000000D01*
D11*
X7229000Y-5616100D02*
X7249000Y-5636100D01*
X7249000Y-5616100D02*
X7229000Y-5636100D01*
X7229000Y-5717700D02*
X7249000Y-5737700D01*
X7249000Y-5717700D02*
X7229000Y-5737700D01*
X7279800Y-5666900D02*
X7299800Y-5686900D01*
X7299800Y-5666900D02*
X7279800Y-5686900D01*
X7317900Y-5387500D02*
X7337900Y-5407500D01*
X7337900Y-5387500D02*
X7317900Y-5407500D01*
X7330600Y-5616100D02*
X7350600Y-5636100D01*
X7350600Y-5616100D02*
X7330600Y-5636100D01*
X7330600Y-5717700D02*
X7350600Y-5737700D01*
X7350600Y-5717700D02*
X7330600Y-5737700D01*
X7343300Y-6492400D02*
X7363300Y-6512400D01*
X7363300Y-6492400D02*
X7343300Y-6512400D01*
X7483000Y-6251100D02*
X7503000Y-6271100D01*
X7503000Y-6251100D02*
X7483000Y-6271100D01*
X7533800Y-6657500D02*
X7553800Y-6677500D01*
X7553800Y-6657500D02*
X7533800Y-6677500D01*
X7864000Y-7229000D02*
X7884000Y-7249000D01*
X7884000Y-7229000D02*
X7864000Y-7249000D01*
X7876699Y-12372500D02*
X7896699Y-12392500D01*
X7896699Y-12372500D02*
X7876699Y-12392500D01*
X7876702Y-11991500D02*
X7896702Y-12011500D01*
X7896702Y-11991500D02*
X7876702Y-12011500D01*
X7902100Y-6086000D02*
X7922100Y-6106000D01*
X7922100Y-6086000D02*
X7902100Y-6106000D01*
X7964700Y-10873900D02*
X7984700Y-10893900D01*
X7984700Y-10873900D02*
X7964700Y-10893900D01*
X7991000Y-8321200D02*
X8011000Y-8341200D01*
X8011000Y-8321200D02*
X7991000Y-8341200D01*
X7991000Y-8892700D02*
X8011000Y-8912700D01*
X8011000Y-8892700D02*
X7991000Y-8912700D01*
X7991001Y-7749700D02*
X8011001Y-7769700D01*
X8011001Y-7749700D02*
X7991001Y-7769700D01*
X8181500Y-10289700D02*
X8201500Y-10309700D01*
X8201500Y-10289700D02*
X8181500Y-10309700D01*
X8194200Y-9324500D02*
X8214200Y-9344500D01*
X8214200Y-9324500D02*
X8194200Y-9344500D01*
X8206900Y-9451500D02*
X8226900Y-9471500D01*
X8226900Y-9451500D02*
X8206900Y-9471500D01*
X8206900Y-9896000D02*
X8226900Y-9916000D01*
X8226900Y-9896000D02*
X8206900Y-9916000D01*
X8213250Y-10143650D02*
X8233250Y-10163650D01*
X8233250Y-10143650D02*
X8213250Y-10163650D01*
X8237000Y-9662700D02*
X8257000Y-9682700D01*
X8257000Y-9662700D02*
X8237000Y-9682700D01*
X8245000Y-7305200D02*
X8265000Y-7325200D01*
X8265000Y-7305200D02*
X8245000Y-7325200D01*
X8245000Y-7876700D02*
X8265000Y-7896700D01*
X8265000Y-7876700D02*
X8245000Y-7896700D01*
X8245000Y-8448200D02*
X8265000Y-8468200D01*
X8265000Y-8448200D02*
X8245000Y-8468200D01*
X8245000Y-9019700D02*
X8265000Y-9039700D01*
X8265000Y-9019700D02*
X8245000Y-9039700D01*
X8257700Y-6924200D02*
X8277700Y-6944200D01*
X8277700Y-6924200D02*
X8257700Y-6944200D01*
X8257700Y-8638700D02*
X8277700Y-8658700D01*
X8277700Y-8638700D02*
X8257700Y-8658700D01*
X8270400Y-7495700D02*
X8290400Y-7515700D01*
X8290400Y-7495700D02*
X8270400Y-7515700D01*
X8270400Y-8067200D02*
X8290400Y-8087200D01*
X8290400Y-8067200D02*
X8270400Y-8087200D01*
X8283100Y-10061100D02*
X8303100Y-10081100D01*
X8303100Y-10061100D02*
X8283100Y-10081100D01*
X8333902Y-10873900D02*
X8353902Y-10893900D01*
X8353902Y-10873900D02*
X8333902Y-10893900D01*
X8422800Y-11737500D02*
X8442800Y-11757500D01*
X8442800Y-11737500D02*
X8422800Y-11757500D01*
X8422800Y-11864500D02*
X8442800Y-11884500D01*
X8442800Y-11864500D02*
X8422800Y-11884500D01*
X8422800Y-11991500D02*
X8442800Y-12011500D01*
X8442800Y-11991500D02*
X8422800Y-12011500D01*
X8422800Y-12118500D02*
X8442800Y-12138500D01*
X8442800Y-12118500D02*
X8422800Y-12138500D01*
X8422800Y-12245500D02*
X8442800Y-12265500D01*
X8442800Y-12245500D02*
X8422800Y-12265500D01*
X8422800Y-12372500D02*
X8442800Y-12392500D01*
X8442800Y-12372500D02*
X8422800Y-12392500D01*
X8435500Y-10962800D02*
X8455500Y-10982800D01*
X8455500Y-10962800D02*
X8435500Y-10982800D01*
X8626000Y-8791100D02*
X8646000Y-8811100D01*
X8646000Y-8791100D02*
X8626000Y-8811100D01*
X8689500Y-8130700D02*
X8709500Y-8150700D01*
X8709500Y-8130700D02*
X8689500Y-8150700D01*
X8689500Y-10797700D02*
X8709500Y-10817700D01*
X8709500Y-10797700D02*
X8689500Y-10817700D01*
X8892700Y-12994800D02*
X8912700Y-13014800D01*
X8912700Y-12994800D02*
X8892700Y-13014800D01*
X9045097Y-10962800D02*
X9065097Y-10982800D01*
X9065097Y-10962800D02*
X9045097Y-10982800D01*
X9185994Y-6630257D02*
X9205994Y-6650257D01*
X9205994Y-6630257D02*
X9185994Y-6650257D01*
X9198094Y-6707955D02*
X9218094Y-6727955D01*
X9218094Y-6707955D02*
X9198094Y-6727955D01*
X9248300Y-9680100D02*
X9268300Y-9700100D01*
X9268300Y-9680100D02*
X9248300Y-9700100D01*
X9261000Y-5857399D02*
X9281000Y-5877399D01*
X9281000Y-5857399D02*
X9261000Y-5877399D01*
X9261000Y-13286900D02*
X9281000Y-13306900D01*
X9281000Y-13286900D02*
X9261000Y-13306900D01*
X9286400Y-10086500D02*
X9306400Y-10106500D01*
X9306400Y-10086500D02*
X9286400Y-10106500D01*
X9299100Y-6543200D02*
X9319100Y-6563200D01*
X9319100Y-6543200D02*
X9299100Y-6563200D01*
X9311800Y-8905400D02*
X9331800Y-8925400D01*
X9331800Y-8905400D02*
X9311800Y-8925400D01*
X9337200Y-12270900D02*
X9357200Y-12290900D01*
X9357200Y-12270900D02*
X9337200Y-12290900D01*
X9337200Y-12334400D02*
X9357200Y-12354400D01*
X9357200Y-12334400D02*
X9337200Y-12354400D01*
X9362600Y-13286900D02*
X9382600Y-13306900D01*
X9382600Y-13286900D02*
X9362600Y-13306900D01*
X9388000Y-12791600D02*
X9408000Y-12811600D01*
X9408000Y-12791600D02*
X9388000Y-12811600D01*
X9388000Y-12994800D02*
X9408000Y-13014800D01*
X9408000Y-12994800D02*
X9388000Y-13014800D01*
X9400099Y-6670801D02*
X9420099Y-6690801D01*
X9420099Y-6670801D02*
X9400099Y-6690801D01*
X9400700Y-12270900D02*
X9420700Y-12290900D01*
X9420700Y-12270900D02*
X9400700Y-12290900D01*
X9400700Y-12334400D02*
X9420700Y-12354400D01*
X9420700Y-12334400D02*
X9400700Y-12354400D01*
X9413400Y-12474100D02*
X9433400Y-12494100D01*
X9433400Y-12474100D02*
X9413400Y-12494100D01*
X9413400Y-12537600D02*
X9433400Y-12557600D01*
X9433400Y-12537600D02*
X9413400Y-12557600D01*
X9464200Y-6695600D02*
X9484200Y-6715600D01*
X9484200Y-6695600D02*
X9464200Y-6715600D01*
X9464200Y-12270900D02*
X9484200Y-12290900D01*
X9484200Y-12270900D02*
X9464200Y-12290900D01*
X9464200Y-12334400D02*
X9484200Y-12354400D01*
X9484200Y-12334400D02*
X9464200Y-12354400D01*
X9464200Y-13286900D02*
X9484200Y-13306900D01*
X9484200Y-13286900D02*
X9464200Y-13306900D01*
X9476900Y-7889400D02*
X9496900Y-7909400D01*
X9496900Y-7889400D02*
X9476900Y-7909400D01*
X9476900Y-10111900D02*
X9496900Y-10131900D01*
X9496900Y-10111900D02*
X9476900Y-10131900D01*
X9476900Y-12474100D02*
X9496900Y-12494100D01*
X9496900Y-12474100D02*
X9476900Y-12494100D01*
X9476900Y-12537600D02*
X9496900Y-12557600D01*
X9496900Y-12537600D02*
X9476900Y-12557600D01*
X9515000Y-8651400D02*
X9535000Y-8671400D01*
X9535000Y-8651400D02*
X9515000Y-8671400D01*
X9540400Y-12474100D02*
X9560400Y-12494100D01*
X9560400Y-12474100D02*
X9540400Y-12494100D01*
X9540400Y-12537600D02*
X9560400Y-12557600D01*
X9560400Y-12537600D02*
X9540400Y-12557600D01*
X9546187Y-8494415D02*
X9566187Y-8514415D01*
X9566187Y-8494415D02*
X9546187Y-8514415D01*
X9565800Y-6733700D02*
X9585800Y-6753700D01*
X9585800Y-6733700D02*
X9565800Y-6753700D01*
X9603900Y-12474100D02*
X9623900Y-12494100D01*
X9623900Y-12474100D02*
X9603900Y-12494100D01*
X9603900Y-12537600D02*
X9623900Y-12557600D01*
X9623900Y-12537600D02*
X9603900Y-12557600D01*
X9667400Y-12474100D02*
X9687400Y-12494100D01*
X9687400Y-12474100D02*
X9667400Y-12494100D01*
X9667400Y-12537600D02*
X9687400Y-12557600D01*
X9687400Y-12537600D02*
X9667400Y-12557600D01*
X9705500Y-9642000D02*
X9725500Y-9662000D01*
X9725500Y-9642000D02*
X9705500Y-9662000D01*
X9769000Y-6111400D02*
X9789000Y-6131400D01*
X9789000Y-6111400D02*
X9769000Y-6131400D01*
X9794400Y-6543200D02*
X9814400Y-6563200D01*
X9814400Y-6543200D02*
X9794400Y-6563200D01*
X9807100Y-6835300D02*
X9827100Y-6855300D01*
X9827100Y-6835300D02*
X9807100Y-6855300D01*
X9845200Y-8003700D02*
X9865200Y-8023700D01*
X9865200Y-8003700D02*
X9845200Y-8023700D01*
X9845200Y-8600600D02*
X9865200Y-8620600D01*
X9865200Y-8600600D02*
X9845200Y-8620600D01*
X9857900Y-13274200D02*
X9877900Y-13294200D01*
X9877900Y-13274200D02*
X9857900Y-13294200D01*
X9883300Y-5857400D02*
X9903300Y-5877400D01*
X9903300Y-5857400D02*
X9883300Y-5877400D01*
X9883301Y-5730400D02*
X9903301Y-5750400D01*
X9903301Y-5730400D02*
X9883301Y-5750400D01*
X9896000Y-6670200D02*
X9916000Y-6690200D01*
X9916000Y-6670200D02*
X9896000Y-6690200D01*
X9946800Y-7902100D02*
X9966800Y-7922100D01*
X9966800Y-7902100D02*
X9946800Y-7922100D01*
X9946800Y-8600600D02*
X9966800Y-8620600D01*
X9966800Y-8600600D02*
X9946800Y-8620600D01*
X9991249Y-10669240D02*
X10011249Y-10689240D01*
X10011249Y-10669240D02*
X9991249Y-10689240D01*
X9997600Y-10594500D02*
X10017600Y-10614500D01*
X10017600Y-10594500D02*
X9997600Y-10614500D01*
X9997600Y-10912000D02*
X10017600Y-10932000D01*
X10017600Y-10912000D02*
X9997600Y-10932000D01*
X9997600Y-11699400D02*
X10017600Y-11719400D01*
X10017600Y-11699400D02*
X9997600Y-11719400D01*
X9997600Y-11801000D02*
X10017600Y-11821000D01*
X10017600Y-11801000D02*
X9997600Y-11821000D01*
X10010300Y-10200800D02*
X10030300Y-10220800D01*
X10030300Y-10200800D02*
X10010300Y-10220800D01*
X10010300Y-10746900D02*
X10030300Y-10766900D01*
X10030300Y-10746900D02*
X10010300Y-10766900D01*
X10010300Y-10823100D02*
X10030300Y-10843100D01*
X10030300Y-10823100D02*
X10010300Y-10843100D01*
X10010901Y-10506201D02*
X10030901Y-10526201D01*
X10030901Y-10506201D02*
X10010901Y-10526201D01*
X10023000Y-8219600D02*
X10043000Y-8239600D01*
X10043000Y-8219600D02*
X10023000Y-8239600D01*
X10035700Y-11013600D02*
X10055700Y-11033600D01*
X10055700Y-11013600D02*
X10035700Y-11033600D01*
X10035700Y-12905900D02*
X10055700Y-12925900D01*
X10055700Y-12905900D02*
X10035700Y-12925900D01*
X10035700Y-12969400D02*
X10055700Y-12989400D01*
X10055700Y-12969400D02*
X10035700Y-12989400D01*
X10035700Y-13032900D02*
X10055700Y-13052900D01*
X10055700Y-13032900D02*
X10035700Y-13052900D01*
X10048400Y-8600600D02*
X10068400Y-8620600D01*
X10068400Y-8600600D02*
X10048400Y-8620600D01*
X10086500Y-7114700D02*
X10106500Y-7134700D01*
X10106500Y-7114700D02*
X10086500Y-7134700D01*
X10099200Y-12905900D02*
X10119200Y-12925900D01*
X10119200Y-12905900D02*
X10099200Y-12925900D01*
X10099200Y-12969400D02*
X10119200Y-12989400D01*
X10119200Y-12969400D02*
X10099200Y-12989400D01*
X10099200Y-13032900D02*
X10119200Y-13052900D01*
X10119200Y-13032900D02*
X10099200Y-13052900D01*
X10137901Y-8105901D02*
X10157901Y-8125901D01*
X10157901Y-8105901D02*
X10137901Y-8125901D01*
X10150000Y-8600600D02*
X10170000Y-8620600D01*
X10170000Y-8600600D02*
X10150000Y-8620600D01*
X10162700Y-12905900D02*
X10182700Y-12925900D01*
X10182700Y-12905900D02*
X10162700Y-12925900D01*
X10162700Y-12969400D02*
X10182700Y-12989400D01*
X10182700Y-12969400D02*
X10162700Y-12989400D01*
X10162700Y-13032900D02*
X10182700Y-13052900D01*
X10182700Y-13032900D02*
X10162700Y-13052900D01*
X10226200Y-12905900D02*
X10246200Y-12925900D01*
X10246200Y-12905900D02*
X10226200Y-12925900D01*
X10226200Y-12969400D02*
X10246200Y-12989400D01*
X10246200Y-12969400D02*
X10226200Y-12989400D01*
X10226200Y-13032900D02*
X10246200Y-13052900D01*
X10246200Y-13032900D02*
X10226200Y-13052900D01*
X10264300Y-9565800D02*
X10284300Y-9585800D01*
X10284300Y-9565800D02*
X10264300Y-9585800D01*
X10296450Y-7631630D02*
X10316450Y-7651630D01*
X10316450Y-7631630D02*
X10296450Y-7651630D01*
X10302401Y-8206900D02*
X10322401Y-8226900D01*
X10322401Y-8206900D02*
X10302401Y-8226900D01*
X10308351Y-9210200D02*
X10328351Y-9230200D01*
X10328351Y-9210200D02*
X10308351Y-9230200D01*
X10315100Y-11072700D02*
X10335100Y-11092700D01*
X10335100Y-11072700D02*
X10315100Y-11092700D01*
X10340500Y-9527700D02*
X10360500Y-9547700D01*
X10360500Y-9527700D02*
X10340500Y-9547700D01*
X10353200Y-7451091D02*
X10373200Y-7471091D01*
X10373200Y-7451091D02*
X10353200Y-7471091D01*
X10353690Y-8170833D02*
X10373690Y-8190833D01*
X10373690Y-8170833D02*
X10353690Y-8190833D01*
X10365900Y-6098700D02*
X10385900Y-6118700D01*
X10385900Y-6098700D02*
X10365900Y-6118700D01*
X10404000Y-6670200D02*
X10424000Y-6690200D01*
X10424000Y-6670200D02*
X10404000Y-6690200D01*
X10429400Y-12791600D02*
X10449400Y-12811600D01*
X10449400Y-12791600D02*
X10429400Y-12811600D01*
X10429400Y-12855100D02*
X10449400Y-12875100D01*
X10449400Y-12855100D02*
X10429400Y-12875100D01*
X10429400Y-12918600D02*
X10449400Y-12938600D01*
X10449400Y-12918600D02*
X10429400Y-12938600D01*
X10429400Y-6918247D02*
X10449400Y-6938247D01*
X10449400Y-6918247D02*
X10429400Y-6938247D01*
X10429402Y-12004200D02*
X10449402Y-12024200D01*
X10449402Y-12004200D02*
X10429402Y-12024200D01*
X10442100Y-7457600D02*
X10462100Y-7477600D01*
X10462100Y-7457600D02*
X10442100Y-7477600D01*
X10442100Y-7571900D02*
X10462100Y-7591900D01*
X10462100Y-7571900D02*
X10442100Y-7591900D01*
X10442100Y-7863999D02*
X10462100Y-7883999D01*
X10462100Y-7863999D02*
X10442100Y-7883999D01*
X10442100Y-8061250D02*
X10462100Y-8081250D01*
X10462100Y-8061250D02*
X10442100Y-8081250D01*
X10442764Y-5375247D02*
X10462764Y-5395247D01*
X10462764Y-5375247D02*
X10442764Y-5395247D01*
X10492900Y-12791600D02*
X10512900Y-12811600D01*
X10512900Y-12791600D02*
X10492900Y-12811600D01*
X10492900Y-12855100D02*
X10512900Y-12875100D01*
X10512900Y-12855100D02*
X10492900Y-12875100D01*
X10492900Y-12918600D02*
X10512900Y-12938600D01*
X10512900Y-12918600D02*
X10492900Y-12938600D01*
X10492900Y-8664100D02*
X10512900Y-8684100D01*
X10512900Y-8664100D02*
X10492900Y-8684100D01*
X10505600Y-5400200D02*
X10525600Y-5420200D01*
X10525600Y-5400200D02*
X10505600Y-5420200D01*
X10531000Y-11623200D02*
X10551000Y-11643200D01*
X10551000Y-11623200D02*
X10531000Y-11643200D01*
X10543700Y-6918247D02*
X10563700Y-6938247D01*
X10563700Y-6918247D02*
X10543700Y-6938247D01*
X10556400Y-12791600D02*
X10576400Y-12811600D01*
X10576400Y-12791600D02*
X10556400Y-12811600D01*
X10556400Y-12855100D02*
X10576400Y-12875100D01*
X10576400Y-12855100D02*
X10556400Y-12875100D01*
X10556400Y-12918600D02*
X10576400Y-12938600D01*
X10576400Y-12918600D02*
X10556400Y-12938600D01*
X10566300Y-7142900D02*
X10586300Y-7162900D01*
X10586300Y-7142900D02*
X10566300Y-7162900D01*
X10581800Y-8829200D02*
X10601800Y-8849200D01*
X10601800Y-8829200D02*
X10581800Y-8849200D01*
X10635920Y-6933077D02*
X10655920Y-6953077D01*
X10655920Y-6933077D02*
X10635920Y-6953077D01*
X10645300Y-7305200D02*
X10665300Y-7325200D01*
X10665300Y-7305200D02*
X10645300Y-7325200D01*
X10645300Y-9134000D02*
X10665300Y-9154000D01*
X10665300Y-9134000D02*
X10645300Y-9154000D01*
X10662600Y-13345800D02*
X10682600Y-13365800D01*
X10682600Y-13345800D02*
X10662600Y-13365800D01*
X10670700Y-6644800D02*
X10690700Y-6664800D01*
X10690700Y-6644800D02*
X10670700Y-6664800D01*
X10683400Y-8460900D02*
X10703400Y-8480900D01*
X10703400Y-8460900D02*
X10683400Y-8480900D01*
X10683400Y-8537100D02*
X10703400Y-8557100D01*
X10703400Y-8537100D02*
X10683400Y-8557100D01*
X10683400Y-8613300D02*
X10703400Y-8633300D01*
X10703400Y-8613300D02*
X10683400Y-8633300D01*
X10715549Y-6689649D02*
X10735549Y-6709649D01*
X10735549Y-6689649D02*
X10715549Y-6709649D01*
X10719556Y-7946063D02*
X10739556Y-7966063D01*
X10739556Y-7946063D02*
X10719556Y-7966063D01*
X10721500Y-8333900D02*
X10741500Y-8353900D01*
X10741500Y-8333900D02*
X10721500Y-8353900D01*
X10734200Y-7838600D02*
X10754200Y-7858600D01*
X10754200Y-7838600D02*
X10734200Y-7858600D01*
X10734200Y-9527700D02*
X10754200Y-9547700D01*
X10754200Y-9527700D02*
X10734200Y-9547700D01*
X10753550Y-7031850D02*
X10773550Y-7051850D01*
X10773550Y-7031850D02*
X10753550Y-7051850D01*
X10759600Y-8537100D02*
X10779600Y-8557100D01*
X10779600Y-8537100D02*
X10759600Y-8557100D01*
X10759600Y-8613300D02*
X10779600Y-8633300D01*
X10779600Y-8613300D02*
X10759600Y-8633300D01*
X10759650Y-8054500D02*
X10779650Y-8074500D01*
X10779650Y-8054500D02*
X10759650Y-8074500D01*
X10759650Y-8130650D02*
X10779650Y-8150650D01*
X10779650Y-8130650D02*
X10759650Y-8150650D01*
X10785000Y-6568600D02*
X10805000Y-6588600D01*
X10805000Y-6568600D02*
X10785000Y-6588600D01*
X10797700Y-6797200D02*
X10817700Y-6817200D01*
X10817700Y-6797200D02*
X10797700Y-6817200D01*
X10823100Y-12283600D02*
X10843100Y-12303600D01*
X10843100Y-12283600D02*
X10823100Y-12303600D01*
X10835799Y-11153300D02*
X10855799Y-11173300D01*
X10855799Y-11153300D02*
X10835799Y-11173300D01*
X10835800Y-7317900D02*
X10855800Y-7337900D01*
X10855800Y-7317900D02*
X10835800Y-7337900D01*
X10835800Y-8613300D02*
X10855800Y-8633300D01*
X10855800Y-8613300D02*
X10835800Y-8633300D01*
X10848500Y-6568600D02*
X10868500Y-6588600D01*
X10868500Y-6568600D02*
X10848500Y-6588600D01*
X10861200Y-10645300D02*
X10881200Y-10665300D01*
X10881200Y-10645300D02*
X10861200Y-10665300D01*
X10873900Y-6022500D02*
X10893900Y-6042500D01*
X10893900Y-6022500D02*
X10873900Y-6042500D01*
X10873900Y-6086000D02*
X10893900Y-6106000D01*
X10893900Y-6086000D02*
X10873900Y-6106000D01*
X10886600Y-4676300D02*
X10906600Y-4696300D01*
X10906600Y-4676300D02*
X10886600Y-4696300D01*
X10886600Y-10543700D02*
X10906600Y-10563700D01*
X10906600Y-10543700D02*
X10886600Y-10563700D01*
X10899300Y-6238400D02*
X10919300Y-6258400D01*
X10919300Y-6238400D02*
X10899300Y-6258400D01*
X10899300Y-10416700D02*
X10919300Y-10436700D01*
X10919300Y-10416700D02*
X10899300Y-10436700D01*
X10912000Y-6568600D02*
X10932000Y-6588600D01*
X10932000Y-6568600D02*
X10912000Y-6588600D01*
X10930650Y-8130700D02*
X10950650Y-8150700D01*
X10950650Y-8130700D02*
X10930650Y-8150700D01*
X10937400Y-5793900D02*
X10957400Y-5813900D01*
X10957400Y-5793900D02*
X10937400Y-5813900D01*
X10937400Y-6975000D02*
X10957400Y-6995000D01*
X10957400Y-6975000D02*
X10937400Y-6995000D01*
X10937400Y-7793751D02*
X10957400Y-7813751D01*
X10957400Y-7793751D02*
X10937400Y-7813751D01*
X10949044Y-7267045D02*
X10969044Y-7287045D01*
X10969044Y-7267045D02*
X10949044Y-7287045D01*
X10962800Y-6797200D02*
X10982800Y-6817200D01*
X10982800Y-6797200D02*
X10962800Y-6817200D01*
X10975500Y-10404000D02*
X10995500Y-10424000D01*
X10995500Y-10404000D02*
X10975500Y-10424000D01*
X10975500Y-12283600D02*
X10995500Y-12303600D01*
X10995500Y-12283600D02*
X10975500Y-12303600D01*
X10988200Y-6238401D02*
X11008200Y-6258401D01*
X11008200Y-6238401D02*
X10988200Y-6258401D01*
X10993407Y-4984428D02*
X11013407Y-5004428D01*
X11013407Y-4984428D02*
X10993407Y-5004428D01*
X11010800Y-7988200D02*
X11030800Y-8008200D01*
X11030800Y-7988200D02*
X11010800Y-8008200D01*
X11026300Y-7800500D02*
X11046300Y-7820500D01*
X11046300Y-7800500D02*
X11026300Y-7820500D01*
X11039906Y-7329572D02*
X11059906Y-7349572D01*
X11059906Y-7329572D02*
X11039906Y-7349572D01*
X11064400Y-10772300D02*
X11084400Y-10792300D01*
X11084400Y-10772300D02*
X11064400Y-10792300D01*
X11064400Y-7432200D02*
X11084400Y-7452200D01*
X11084400Y-7432200D02*
X11064400Y-7452200D01*
X11077100Y-8537100D02*
X11097100Y-8557100D01*
X11097100Y-8537100D02*
X11077100Y-8557100D01*
X11082382Y-7772459D02*
X11102382Y-7792459D01*
X11102382Y-7772459D02*
X11082382Y-7792459D01*
X11089800Y-6632100D02*
X11109800Y-6652100D01*
X11109800Y-6632100D02*
X11089800Y-6652100D01*
X11094292Y-7360773D02*
X11114292Y-7380773D01*
X11114292Y-7360773D02*
X11094292Y-7380773D01*
X11102500Y-6993651D02*
X11122500Y-7013651D01*
X11122500Y-6993651D02*
X11102500Y-7013651D01*
X11102500Y-8130700D02*
X11122500Y-8150700D01*
X11122500Y-8130700D02*
X11102500Y-8150700D01*
X11109249Y-7889400D02*
X11129249Y-7909400D01*
X11129249Y-7889400D02*
X11109249Y-7909400D01*
X11127900Y-9965452D02*
X11147900Y-9985452D01*
X11147900Y-9965452D02*
X11127900Y-9985452D01*
X11127900Y-12283600D02*
X11147900Y-12303600D01*
X11147900Y-12283600D02*
X11127900Y-12303600D01*
X11140600Y-10048400D02*
X11160600Y-10068400D01*
X11160600Y-10048400D02*
X11140600Y-10068400D01*
X11172656Y-8887860D02*
X11192656Y-8907860D01*
X11192656Y-8887860D02*
X11172656Y-8907860D01*
X11178700Y-7317900D02*
X11198700Y-7337900D01*
X11198700Y-7317900D02*
X11178700Y-7337900D01*
X11178700Y-8003700D02*
X11198700Y-8023700D01*
X11198700Y-8003700D02*
X11178700Y-8023700D01*
X11178700Y-8143400D02*
X11198700Y-8163400D01*
X11198700Y-8143400D02*
X11178700Y-8163400D01*
X11204100Y-9946800D02*
X11224100Y-9966800D01*
X11224100Y-9946800D02*
X11204100Y-9966800D01*
X11216800Y-7470300D02*
X11236800Y-7490300D01*
X11236800Y-7470300D02*
X11216800Y-7490300D01*
X11229496Y-8422800D02*
X11249496Y-8442800D01*
X11249496Y-8422800D02*
X11229496Y-8442800D01*
X11254900Y-10518300D02*
X11274900Y-10538300D01*
X11274900Y-10518300D02*
X11254900Y-10538300D01*
X11263910Y-9234370D02*
X11283910Y-9254370D01*
X11283910Y-9234370D02*
X11263910Y-9254370D01*
X11267600Y-5857400D02*
X11287600Y-5877400D01*
X11287600Y-5857400D02*
X11267600Y-5877400D01*
X11280300Y-9908700D02*
X11300300Y-9928700D01*
X11300300Y-9908700D02*
X11280300Y-9928700D01*
X11280300Y-12283600D02*
X11300300Y-12303600D01*
X11300300Y-12283600D02*
X11280300Y-12303600D01*
X11284997Y-7051200D02*
X11304997Y-7071200D01*
X11304997Y-7051200D02*
X11284997Y-7071200D01*
X11305700Y-7279800D02*
X11325700Y-7299800D01*
X11325700Y-7279800D02*
X11305700Y-7299800D01*
X11305700Y-8206900D02*
X11325700Y-8226900D01*
X11325700Y-8206900D02*
X11305700Y-8226900D01*
X11305700Y-10835800D02*
X11325700Y-10855800D01*
X11325700Y-10835800D02*
X11305700Y-10855800D01*
X11315729Y-8412607D02*
X11335729Y-8432607D01*
X11335729Y-8412607D02*
X11315729Y-8432607D01*
X11328339Y-9234041D02*
X11348339Y-9254041D01*
X11348339Y-9234041D02*
X11328339Y-9254041D01*
X11331100Y-6155450D02*
X11351100Y-6175450D01*
X11351100Y-6155450D02*
X11331100Y-6175450D01*
X11356500Y-9870599D02*
X11376500Y-9890599D01*
X11376500Y-9870599D02*
X11356500Y-9890599D01*
X11394600Y-6162200D02*
X11414600Y-6182200D01*
X11414600Y-6162200D02*
X11394600Y-6182200D01*
X11394600Y-7038502D02*
X11414600Y-7058502D01*
X11414600Y-7038502D02*
X11394600Y-7058502D01*
X11420000Y-6085998D02*
X11440000Y-6105998D01*
X11440000Y-6085998D02*
X11420000Y-6105998D01*
X11420000Y-7432198D02*
X11440000Y-7452198D01*
X11440000Y-7432198D02*
X11420000Y-7452198D01*
X11420000Y-8943500D02*
X11440000Y-8963500D01*
X11440000Y-8943500D02*
X11420000Y-8963500D01*
X11432700Y-12283600D02*
X11452700Y-12303600D01*
X11452700Y-12283600D02*
X11432700Y-12303600D01*
X11445401Y-9832500D02*
X11465401Y-9852500D01*
X11465401Y-9832500D02*
X11445401Y-9852500D01*
X11458100Y-8537100D02*
X11478100Y-8557100D01*
X11478100Y-8537100D02*
X11458100Y-8557100D01*
X11474026Y-7037973D02*
X11494026Y-7057973D01*
X11494026Y-7037973D02*
X11474026Y-7057973D01*
X11496200Y-6060600D02*
X11516200Y-6080600D01*
X11516200Y-6060600D02*
X11496200Y-6080600D01*
X11496200Y-9248300D02*
X11516200Y-9268300D01*
X11516200Y-9248300D02*
X11496200Y-9268300D01*
X11496200Y-9756300D02*
X11516200Y-9776300D01*
X11516200Y-9756300D02*
X11496200Y-9776300D01*
X11497751Y-8181186D02*
X11517751Y-8201186D01*
X11517751Y-8181186D02*
X11497751Y-8201186D01*
X11508900Y-5730400D02*
X11528900Y-5750400D01*
X11528900Y-5730400D02*
X11508900Y-5750400D01*
X11534300Y-7343300D02*
X11554300Y-7363300D01*
X11554300Y-7343300D02*
X11534300Y-7363300D01*
X11563676Y-7531027D02*
X11583676Y-7551027D01*
X11583676Y-7531027D02*
X11563676Y-7551027D01*
X11572400Y-7851300D02*
X11592400Y-7871300D01*
X11592400Y-7851300D02*
X11572400Y-7871300D01*
X11585100Y-7914799D02*
X11605100Y-7934799D01*
X11605100Y-7914799D02*
X11585100Y-7934799D01*
X11585100Y-8206900D02*
X11605100Y-8226900D01*
X11605100Y-8206900D02*
X11585100Y-8226900D01*
X11585100Y-12283600D02*
X11605100Y-12303600D01*
X11605100Y-12283600D02*
X11585100Y-12303600D01*
X11597800Y-6987700D02*
X11617800Y-7007700D01*
X11617800Y-6987700D02*
X11597800Y-7007700D01*
X11610500Y-10848500D02*
X11630500Y-10868500D01*
X11630500Y-10848500D02*
X11610500Y-10868500D01*
X11636699Y-9781700D02*
X11656699Y-9801700D01*
X11656699Y-9781700D02*
X11636699Y-9801700D01*
X11648600Y-7610000D02*
X11668600Y-7630000D01*
X11668600Y-7610000D02*
X11648600Y-7630000D01*
X11648600Y-7711600D02*
X11668600Y-7731600D01*
X11668600Y-7711600D02*
X11648600Y-7731600D01*
X11651400Y-8946300D02*
X11671400Y-8966300D01*
X11671400Y-8946300D02*
X11651400Y-8966300D01*
X11699400Y-9248300D02*
X11719400Y-9268300D01*
X11719400Y-9248300D02*
X11699400Y-9268300D01*
X11699400Y-9756300D02*
X11719400Y-9776300D01*
X11719400Y-9756300D02*
X11699400Y-9776300D01*
X11712100Y-9680100D02*
X11732100Y-9700100D01*
X11732100Y-9680100D02*
X11712100Y-9700100D01*
X11737500Y-11953400D02*
X11757500Y-11973400D01*
X11757500Y-11953400D02*
X11737500Y-11973400D01*
X11737500Y-12283600D02*
X11757500Y-12303600D01*
X11757500Y-12283600D02*
X11737500Y-12303600D01*
X11775600Y-8791100D02*
X11795600Y-8811100D01*
X11795600Y-8791100D02*
X11775600Y-8811100D01*
X11777993Y-9247061D02*
X11797993Y-9267061D01*
X11797993Y-9247061D02*
X11777993Y-9267061D01*
X11840227Y-9254705D02*
X11860227Y-9274705D01*
X11860227Y-9254705D02*
X11840227Y-9274705D01*
X11851800Y-7343300D02*
X11871800Y-7363300D01*
X11871800Y-7343300D02*
X11851800Y-7363300D01*
X11864500Y-7419500D02*
X11884500Y-7439500D01*
X11884500Y-7419500D02*
X11864500Y-7439500D01*
X11889900Y-12283600D02*
X11909900Y-12303600D01*
X11909900Y-12283600D02*
X11889900Y-12303600D01*
X11902601Y-9248300D02*
X11922601Y-9268300D01*
X11922601Y-9248300D02*
X11902601Y-9268300D01*
X11913954Y-7558799D02*
X11933954Y-7578799D01*
X11933954Y-7558799D02*
X11913954Y-7578799D01*
X11966100Y-9241551D02*
X11986100Y-9261551D01*
X11986100Y-9241551D02*
X11966100Y-9261551D01*
X11978800Y-8968900D02*
X11998800Y-8988900D01*
X11998800Y-8968900D02*
X11978800Y-8988900D01*
X11984751Y-8905400D02*
X12004751Y-8925400D01*
X12004751Y-8905400D02*
X11984751Y-8925400D01*
X11991487Y-9092638D02*
X12011487Y-9112638D01*
X12011487Y-9092638D02*
X11991487Y-9112638D01*
X11991500Y-7317900D02*
X12011500Y-7337900D01*
X12011500Y-7317900D02*
X11991500Y-7337900D01*
X11993066Y-9029957D02*
X12013066Y-9049957D01*
X12013066Y-9029957D02*
X11993066Y-9049957D01*
X11998249Y-8118000D02*
X12018249Y-8138000D01*
X12018249Y-8118000D02*
X11998249Y-8138000D01*
X12042300Y-9241551D02*
X12062300Y-9261551D01*
X12062300Y-9241551D02*
X12042300Y-9261551D01*
X12042300Y-12283600D02*
X12062300Y-12303600D01*
X12062300Y-12283600D02*
X12042300Y-12303600D01*
X12099051Y-7328837D02*
X12119051Y-7348837D01*
X12119051Y-7328837D02*
X12099051Y-7348837D01*
X12099051Y-7260351D02*
X12119051Y-7280351D01*
X12119051Y-7260351D02*
X12099051Y-7280351D01*
X12105800Y-9527700D02*
X12125800Y-9547700D01*
X12125800Y-9527700D02*
X12105800Y-9547700D01*
X12118500Y-5730400D02*
X12138500Y-5750400D01*
X12138500Y-5730400D02*
X12118500Y-5750400D01*
X12131200Y-8600600D02*
X12151200Y-8620600D01*
X12151200Y-8600600D02*
X12131200Y-8620600D01*
X12156600Y-8168800D02*
X12176600Y-8188800D01*
X12176600Y-8168800D02*
X12156600Y-8188800D01*
X12194700Y-12283600D02*
X12214700Y-12303600D01*
X12214700Y-12283600D02*
X12194700Y-12303600D01*
X12232800Y-8600600D02*
X12252800Y-8620600D01*
X12252800Y-8600600D02*
X12232800Y-8620600D01*
X12334400Y-8600600D02*
X12354400Y-8620600D01*
X12354400Y-8600600D02*
X12334400Y-8620600D01*
X12334400Y-13159900D02*
X12354400Y-13179900D01*
X12354400Y-13159900D02*
X12334400Y-13179900D01*
X12347100Y-12283600D02*
X12367100Y-12303600D01*
X12367100Y-12283600D02*
X12347100Y-12303600D01*
X12347100Y-13261500D02*
X12367100Y-13281500D01*
X12367100Y-13261500D02*
X12347100Y-13281500D01*
X12410600Y-13223400D02*
X12430600Y-13243400D01*
X12430600Y-13223400D02*
X12410600Y-13243400D01*
X12423300Y-7825900D02*
X12443300Y-7845900D01*
X12443300Y-7825900D02*
X12423300Y-7845900D01*
X12436000Y-8600600D02*
X12456000Y-8620600D01*
X12456000Y-8600600D02*
X12436000Y-8620600D01*
X12499500Y-9832500D02*
X12519500Y-9852500D01*
X12519500Y-9832500D02*
X12499500Y-9852500D01*
X12499500Y-12283600D02*
X12519500Y-12303600D01*
X12519500Y-12283600D02*
X12499500Y-12303600D01*
X12550300Y-7698900D02*
X12570300Y-7718900D01*
X12570300Y-7698900D02*
X12550300Y-7718900D01*
X12550300Y-7952900D02*
X12570300Y-7972900D01*
X12570300Y-7952900D02*
X12550300Y-7972900D01*
X12563000Y-8168800D02*
X12583000Y-8188800D01*
X12583000Y-8168800D02*
X12563000Y-8188800D01*
X12588400Y-8422800D02*
X12608400Y-8442800D01*
X12608400Y-8422800D02*
X12588400Y-8442800D01*
X12588400Y-8486300D02*
X12608400Y-8506300D01*
X12608400Y-8486300D02*
X12588400Y-8506300D01*
X12588400Y-9527700D02*
X12608400Y-9547700D01*
X12608400Y-9527700D02*
X12588400Y-9547700D01*
X12626500Y-8905400D02*
X12646500Y-8925400D01*
X12646500Y-8905400D02*
X12626500Y-8925400D01*
X12651900Y-8422800D02*
X12671900Y-8442800D01*
X12671900Y-8422800D02*
X12651900Y-8442800D01*
X12651900Y-8486300D02*
X12671900Y-8506300D01*
X12671900Y-8486300D02*
X12651900Y-8506300D01*
X12651900Y-12283600D02*
X12671900Y-12303600D01*
X12671900Y-12283600D02*
X12651900Y-12303600D01*
X12664600Y-9121300D02*
X12684600Y-9141300D01*
X12684600Y-9121300D02*
X12664600Y-9141300D01*
X12702700Y-9197500D02*
X12722700Y-9217500D01*
X12722700Y-9197500D02*
X12702700Y-9217500D01*
X12766200Y-9121300D02*
X12786200Y-9141300D01*
X12786200Y-9121300D02*
X12766200Y-9141300D01*
X12804300Y-12283600D02*
X12824300Y-12303600D01*
X12824300Y-12283600D02*
X12804300Y-12303600D01*
X12829700Y-8384700D02*
X12849700Y-8404700D01*
X12849700Y-8384700D02*
X12829700Y-8404700D01*
X12867800Y-7356000D02*
X12887800Y-7376000D01*
X12887800Y-7356000D02*
X12867800Y-7376000D01*
X12893200Y-7711600D02*
X12913200Y-7731600D01*
X12913200Y-7711600D02*
X12893200Y-7731600D01*
X12893200Y-8613300D02*
X12913200Y-8633300D01*
X12913200Y-8613300D02*
X12893200Y-8633300D01*
X12944000Y-8892700D02*
X12964000Y-8912700D01*
X12964000Y-8892700D02*
X12944000Y-8912700D01*
X12956700Y-8613300D02*
X12976700Y-8633300D01*
X12976700Y-8613300D02*
X12956700Y-8633300D01*
X12956700Y-12283600D02*
X12976700Y-12303600D01*
X12976700Y-12283600D02*
X12956700Y-12303600D01*
X12982100Y-10531000D02*
X13002100Y-10551000D01*
X13002100Y-10531000D02*
X12982100Y-10551000D01*
X12994800Y-7292500D02*
X13014800Y-7312500D01*
X13014800Y-7292500D02*
X12994800Y-7312500D01*
X13007500Y-8213650D02*
X13027500Y-8233650D01*
X13027500Y-8213650D02*
X13007500Y-8233650D01*
X13007500Y-8473600D02*
X13027500Y-8493600D01*
X13027500Y-8473600D02*
X13007500Y-8493600D01*
X13020199Y-8803800D02*
X13040199Y-8823800D01*
X13040199Y-8803800D02*
X13020199Y-8823800D01*
X13020200Y-8613300D02*
X13040200Y-8633300D01*
X13040200Y-8613300D02*
X13020200Y-8633300D01*
X13020200Y-9197500D02*
X13040200Y-9217500D01*
X13040200Y-9197500D02*
X13020200Y-9217500D01*
X13045600Y-10404000D02*
X13065600Y-10424000D01*
X13065600Y-10404000D02*
X13045600Y-10424000D01*
X13071000Y-8473600D02*
X13091000Y-8493600D01*
X13091000Y-8473600D02*
X13071000Y-8493600D01*
X13084601Y-8612399D02*
X13104601Y-8632399D01*
X13104601Y-8612399D02*
X13084601Y-8632399D01*
X13096400Y-10454800D02*
X13116400Y-10474800D01*
X13116400Y-10454800D02*
X13096400Y-10474800D01*
X13109100Y-12283600D02*
X13129100Y-12303600D01*
X13129100Y-12283600D02*
X13109100Y-12303600D01*
X13147200Y-8613300D02*
X13167200Y-8633300D01*
X13167200Y-8613300D02*
X13147200Y-8633300D01*
X13268250Y-10302400D02*
X13288250Y-10322400D01*
X13288250Y-10302400D02*
X13268250Y-10322400D01*
X13286900Y-7914497D02*
X13306900Y-7934497D01*
X13306900Y-7914497D02*
X13286900Y-7934497D01*
X13304701Y-8494514D02*
X13324701Y-8514514D01*
X13324701Y-8494514D02*
X13304701Y-8514514D01*
X13312300Y-5666900D02*
X13332300Y-5686900D01*
X13332300Y-5666900D02*
X13312300Y-5686900D01*
X13330950Y-10302400D02*
X13350950Y-10322400D01*
X13350950Y-10302400D02*
X13330950Y-10322400D01*
X13350400Y-8156100D02*
X13370400Y-8176100D01*
X13370400Y-8156100D02*
X13350400Y-8176100D01*
X13375800Y-12283600D02*
X13395800Y-12303600D01*
X13395800Y-12283600D02*
X13375800Y-12303600D01*
X13388500Y-9273699D02*
X13408500Y-9293699D01*
X13408500Y-9273699D02*
X13388500Y-9293699D01*
X13452000Y-9718200D02*
X13472000Y-9738200D01*
X13472000Y-9718200D02*
X13452000Y-9738200D01*
X13452000Y-9908700D02*
X13472000Y-9928700D01*
X13472000Y-9908700D02*
X13452000Y-9928700D01*
X13477400Y-6187600D02*
X13497400Y-6207600D01*
X13497400Y-6187600D02*
X13477400Y-6207600D01*
X13490100Y-5209700D02*
X13510100Y-5229700D01*
X13510100Y-5209700D02*
X13490100Y-5229700D01*
X13502800Y-7292500D02*
X13522800Y-7312500D01*
X13522800Y-7292500D02*
X13502800Y-7312500D01*
X13502800Y-9197500D02*
X13522800Y-9217500D01*
X13522800Y-9197500D02*
X13502800Y-9217500D01*
X13515500Y-9769000D02*
X13535500Y-9789000D01*
X13535500Y-9769000D02*
X13515500Y-9789000D01*
X13528200Y-10010300D02*
X13548200Y-10030300D01*
X13548200Y-10010300D02*
X13528200Y-10030300D01*
X13566300Y-7902100D02*
X13586300Y-7922100D01*
X13586300Y-7902100D02*
X13566300Y-7922100D01*
X13591700Y-9819800D02*
X13611700Y-9839800D01*
X13611700Y-9819800D02*
X13591700Y-9839800D01*
X13604400Y-5920900D02*
X13624400Y-5940900D01*
X13624400Y-5920900D02*
X13604400Y-5940900D01*
X13604400Y-6187600D02*
X13624400Y-6207600D01*
X13624400Y-6187600D02*
X13604400Y-6207600D01*
X13604400Y-9197500D02*
X13624400Y-9217500D01*
X13624400Y-9197500D02*
X13604400Y-9217500D01*
X13617100Y-8156100D02*
X13637100Y-8176100D01*
X13637100Y-8156100D02*
X13617100Y-8176100D01*
X13629800Y-8460900D02*
X13649800Y-8480900D01*
X13649800Y-8460900D02*
X13629800Y-8480900D01*
X13629800Y-9908700D02*
X13649800Y-9928700D01*
X13649800Y-9908700D02*
X13629800Y-9928700D01*
X13642500Y-6517800D02*
X13662500Y-6537800D01*
X13662500Y-6517800D02*
X13642500Y-6537800D01*
X13655200Y-7317900D02*
X13675200Y-7337900D01*
X13675200Y-7317900D02*
X13655200Y-7337900D01*
X13655200Y-9667401D02*
X13675200Y-9687401D01*
X13675200Y-9667401D02*
X13655200Y-9687401D01*
X13718700Y-9692800D02*
X13738700Y-9712800D01*
X13738700Y-9692800D02*
X13718700Y-9712800D01*
X13731400Y-6187600D02*
X13751400Y-6207600D01*
X13751400Y-6187600D02*
X13731400Y-6207600D01*
X13731400Y-7013099D02*
X13751400Y-7033099D01*
X13751400Y-7013099D02*
X13731400Y-7033099D01*
X13747121Y-7385244D02*
X13767121Y-7405244D01*
X13767121Y-7385244D02*
X13747121Y-7405244D01*
X13756800Y-10791750D02*
X13776800Y-10811750D01*
X13776800Y-10791750D02*
X13756800Y-10811750D01*
X13769500Y-6809900D02*
X13789500Y-6829900D01*
X13789500Y-6809900D02*
X13769500Y-6829900D01*
X13794900Y-12359800D02*
X13814900Y-12379800D01*
X13814900Y-12359800D02*
X13794900Y-12379800D01*
X13807600Y-7368700D02*
X13827600Y-7388700D01*
X13827600Y-7368700D02*
X13807600Y-7388700D01*
X13807600Y-10518300D02*
X13827600Y-10538300D01*
X13827600Y-10518300D02*
X13807600Y-10538300D01*
X13820300Y-6060600D02*
X13840300Y-6080600D01*
X13840300Y-6060600D02*
X13820300Y-6080600D01*
X13820300Y-10912000D02*
X13840300Y-10932000D01*
X13840300Y-10912000D02*
X13820300Y-10932000D01*
X13833000Y-5514500D02*
X13853000Y-5534500D01*
X13853000Y-5514500D02*
X13833000Y-5534500D01*
X13833000Y-10670700D02*
X13853000Y-10690700D01*
X13853000Y-10670700D02*
X13833000Y-10690700D01*
X13845700Y-6962300D02*
X13865700Y-6982300D01*
X13865700Y-6962300D02*
X13845700Y-6982300D01*
X13858400Y-7038500D02*
X13878400Y-7058500D01*
X13878400Y-7038500D02*
X13858400Y-7058500D01*
X13858400Y-8194200D02*
X13878400Y-8214200D01*
X13878400Y-8194200D02*
X13858400Y-8214200D01*
X13868079Y-7385244D02*
X13888079Y-7405244D01*
X13888079Y-7385244D02*
X13868079Y-7405244D01*
X13909200Y-6848000D02*
X13929200Y-6868000D01*
X13929200Y-6848000D02*
X13909200Y-6868000D01*
X13909200Y-7317900D02*
X13929200Y-7337900D01*
X13929200Y-7317900D02*
X13909200Y-7337900D01*
X13961031Y-7037469D02*
X13981031Y-7057469D01*
X13981031Y-7037469D02*
X13961031Y-7057469D01*
X13965281Y-7289860D02*
X13985281Y-7309860D01*
X13985281Y-7289860D02*
X13965281Y-7309860D01*
X13985400Y-6555900D02*
X14005400Y-6575900D01*
X14005400Y-6555900D02*
X13985400Y-6575900D01*
X14005051Y-7768149D02*
X14025051Y-7788149D01*
X14025051Y-7768149D02*
X14005051Y-7788149D01*
X14036200Y-7864000D02*
X14056200Y-7884000D01*
X14056200Y-7864000D02*
X14036200Y-7884000D01*
X14048900Y-6568600D02*
X14068900Y-6588600D01*
X14068900Y-6568600D02*
X14048900Y-6588600D01*
X14061599Y-10111900D02*
X14081599Y-10131900D01*
X14081599Y-10111900D02*
X14061599Y-10131900D01*
X14061600Y-10435351D02*
X14081600Y-10455351D01*
X14081600Y-10435351D02*
X14061600Y-10455351D01*
X14061600Y-11000900D02*
X14081600Y-11020900D01*
X14081600Y-11000900D02*
X14061600Y-11020900D01*
X14074300Y-6822600D02*
X14094300Y-6842600D01*
X14094300Y-6822600D02*
X14074300Y-6842600D01*
X14118351Y-6682900D02*
X14138351Y-6702900D01*
X14138351Y-6682900D02*
X14118351Y-6702900D01*
X14137800Y-6949600D02*
X14157800Y-6969600D01*
X14157800Y-6949600D02*
X14137800Y-6969600D01*
X14163200Y-5552600D02*
X14183200Y-5572600D01*
X14183200Y-5552600D02*
X14163200Y-5572600D01*
X14188600Y-6441600D02*
X14208600Y-6461600D01*
X14208600Y-6441600D02*
X14188600Y-6461600D01*
X14188600Y-10010300D02*
X14208600Y-10030300D01*
X14208600Y-10010300D02*
X14188600Y-10030300D01*
X14201300Y-9857901D02*
X14221300Y-9877901D01*
X14221300Y-9857901D02*
X14201300Y-9877901D01*
X14214000Y-6124100D02*
X14234000Y-6144100D01*
X14234000Y-6124100D02*
X14214000Y-6144100D01*
X14214000Y-6822600D02*
X14234000Y-6842600D01*
X14234000Y-6822600D02*
X14214000Y-6842600D01*
X14222723Y-9755375D02*
X14242723Y-9775375D01*
X14242723Y-9755375D02*
X14222723Y-9775375D01*
X14242999Y-7962000D02*
X14262999Y-7982000D01*
X14262999Y-7962000D02*
X14242999Y-7982000D01*
X14264800Y-7559200D02*
X14284800Y-7579200D01*
X14284800Y-7559200D02*
X14264800Y-7579200D01*
X14277500Y-7406800D02*
X14297500Y-7426800D01*
X14297500Y-7406800D02*
X14277500Y-7426800D01*
X14280007Y-7620028D02*
X14300007Y-7640028D01*
X14300007Y-7620028D02*
X14280007Y-7640028D01*
X14290200Y-6314600D02*
X14310200Y-6334600D01*
X14310200Y-6314600D02*
X14290200Y-6334600D01*
X14328300Y-8213649D02*
X14348300Y-8233649D01*
X14348300Y-8213649D02*
X14328300Y-8233649D01*
X14353700Y-6200300D02*
X14373700Y-6220300D01*
X14373700Y-6200300D02*
X14353700Y-6220300D01*
X14366400Y-7597300D02*
X14386400Y-7617300D01*
X14386400Y-7597300D02*
X14366400Y-7617300D01*
X14429900Y-7216300D02*
X14449900Y-7236300D01*
X14449900Y-7216300D02*
X14429900Y-7236300D01*
X14506100Y-8689500D02*
X14526100Y-8709500D01*
X14526100Y-8689500D02*
X14506100Y-8709500D01*
X14518969Y-12283431D02*
X14538969Y-12303431D01*
X14538969Y-12283431D02*
X14518969Y-12303431D01*
X14556900Y-5552600D02*
X14576900Y-5572600D01*
X14576900Y-5552600D02*
X14556900Y-5572600D01*
X14556900Y-11356500D02*
X14576900Y-11376500D01*
X14576900Y-11356500D02*
X14556900Y-11376500D01*
X14569600Y-10073800D02*
X14589600Y-10093800D01*
X14589600Y-10073800D02*
X14569600Y-10093800D01*
X14569600Y-10835800D02*
X14589600Y-10855800D01*
X14589600Y-10835800D02*
X14569600Y-10855800D01*
X14569600Y-10937400D02*
X14589600Y-10957400D01*
X14589600Y-10937400D02*
X14569600Y-10957400D01*
X14645800Y-9057800D02*
X14665800Y-9077800D01*
X14665800Y-9057800D02*
X14645800Y-9077800D01*
X14645800Y-12359800D02*
X14665800Y-12379800D01*
X14665800Y-12359800D02*
X14645800Y-12379800D01*
X14658500Y-9807100D02*
X14678500Y-9827100D01*
X14678500Y-9807100D02*
X14658500Y-9827100D01*
X14671199Y-5209700D02*
X14691199Y-5229700D01*
X14691199Y-5209700D02*
X14671199Y-5229700D01*
X14671200Y-10835800D02*
X14691200Y-10855800D01*
X14691200Y-10835800D02*
X14671200Y-10855800D01*
X14671200Y-10937400D02*
X14691200Y-10957400D01*
X14691200Y-10937400D02*
X14671200Y-10957400D01*
X14683900Y-11356500D02*
X14703900Y-11376500D01*
X14703900Y-11356500D02*
X14683900Y-11376500D01*
X14734700Y-6581300D02*
X14754700Y-6601300D01*
X14754700Y-6581300D02*
X14734700Y-6601300D01*
X14747400Y-9908700D02*
X14767400Y-9928700D01*
X14767400Y-9908700D02*
X14747400Y-9928700D01*
X14785500Y-11051700D02*
X14805500Y-11071700D01*
X14805500Y-11051700D02*
X14785500Y-11071700D01*
X14798200Y-7216300D02*
X14818200Y-7236300D01*
X14818200Y-7216300D02*
X14798200Y-7236300D01*
X14798200Y-10073800D02*
X14818200Y-10093800D01*
X14818200Y-10073800D02*
X14798200Y-10093800D01*
X14798200Y-13210700D02*
X14818200Y-13230700D01*
X14818200Y-13210700D02*
X14798200Y-13230700D01*
X14810900Y-6263800D02*
X14830900Y-6283800D01*
X14830900Y-6263800D02*
X14810900Y-6283800D01*
X14836300Y-9901950D02*
X14856300Y-9921950D01*
X14856300Y-9901950D02*
X14836300Y-9921950D01*
X14861700Y-5793900D02*
X14881700Y-5813900D01*
X14881700Y-5793900D02*
X14861700Y-5813900D01*
X14861700Y-7165500D02*
X14881700Y-7185500D01*
X14881700Y-7165500D02*
X14861700Y-7185500D01*
X14925200Y-5997100D02*
X14945200Y-6017100D01*
X14945200Y-5997100D02*
X14925200Y-6017100D01*
X14925200Y-6441600D02*
X14945200Y-6461600D01*
X14945200Y-6441600D02*
X14925200Y-6461600D01*
X14925200Y-9603900D02*
X14945200Y-9623900D01*
X14945200Y-9603900D02*
X14925200Y-9623900D01*
X14988700Y-8867300D02*
X15008700Y-8887300D01*
X15008700Y-8867300D02*
X14988700Y-8887300D01*
X15001400Y-9603900D02*
X15021400Y-9623900D01*
X15021400Y-9603900D02*
X15001400Y-9623900D01*
X15026800Y-6251100D02*
X15046800Y-6271100D01*
X15046800Y-6251100D02*
X15026800Y-6271100D01*
X15026800Y-9451500D02*
X15046800Y-9471500D01*
X15046800Y-9451500D02*
X15026800Y-9471500D01*
X15054100Y-9048678D02*
X15074100Y-9068678D01*
X15074100Y-9048678D02*
X15054100Y-9068678D01*
X15077600Y-6898800D02*
X15097600Y-6918800D01*
X15097600Y-6898800D02*
X15077600Y-6918800D01*
X15103000Y-6009800D02*
X15123000Y-6029800D01*
X15123000Y-6009800D02*
X15103000Y-6029800D01*
X15230000Y-8854600D02*
X15250000Y-8874600D01*
X15250000Y-8854600D02*
X15230000Y-8874600D01*
X15242701Y-7711600D02*
X15262701Y-7731600D01*
X15262701Y-7711600D02*
X15242701Y-7731600D01*
X15293500Y-6340000D02*
X15313500Y-6360000D01*
X15313500Y-6340000D02*
X15293500Y-6360000D01*
X15293500Y-6441600D02*
X15313500Y-6461600D01*
X15313500Y-6441600D02*
X15293500Y-6461600D01*
X15395100Y-7267100D02*
X15415100Y-7287100D01*
X15415100Y-7267100D02*
X15395100Y-7287100D01*
X15407800Y-6263800D02*
X15427800Y-6283800D01*
X15427800Y-6263800D02*
X15407800Y-6283800D01*
X15407800Y-9057800D02*
X15427800Y-9077800D01*
X15427800Y-9057800D02*
X15407800Y-9077800D01*
X15407800Y-9210200D02*
X15427800Y-9230200D01*
X15427800Y-9210200D02*
X15407800Y-9230200D01*
X15407800Y-9819800D02*
X15427800Y-9839800D01*
X15427800Y-9819800D02*
X15407800Y-9839800D01*
X15407800Y-9972200D02*
X15427800Y-9992200D01*
X15427800Y-9972200D02*
X15407800Y-9992200D01*
X15445900Y-9667400D02*
X15465900Y-9687400D01*
X15465900Y-9667400D02*
X15445900Y-9687400D01*
X15458600Y-9324500D02*
X15478600Y-9344500D01*
X15478600Y-9324500D02*
X15458600Y-9344500D01*
X15458600Y-9515000D02*
X15478600Y-9535000D01*
X15478600Y-9515000D02*
X15458600Y-9535000D01*
X15496700Y-10048400D02*
X15516700Y-10068400D01*
X15516700Y-10048400D02*
X15496700Y-10068400D01*
X15559114Y-9325586D02*
X15579114Y-9345586D01*
X15579114Y-9325586D02*
X15559114Y-9345586D01*
X15572900Y-6549950D02*
X15592900Y-6569950D01*
X15592900Y-6549950D02*
X15572900Y-6569950D01*
X15572900Y-9997600D02*
X15592900Y-10017600D01*
X15592900Y-9997600D02*
X15572900Y-10017600D01*
X15598300Y-5793900D02*
X15618300Y-5813900D01*
X15618300Y-5793900D02*
X15598300Y-5813900D01*
X15598300Y-7216300D02*
X15618300Y-7236300D01*
X15618300Y-7216300D02*
X15598300Y-7236300D01*
X15636400Y-6047900D02*
X15656400Y-6067900D01*
X15656400Y-6047900D02*
X15636400Y-6067900D01*
X15636400Y-9578500D02*
X15656400Y-9598500D01*
X15656400Y-9578500D02*
X15636400Y-9598500D01*
X15636400Y-9997600D02*
X15656400Y-10017600D01*
X15656400Y-9997600D02*
X15636400Y-10017600D01*
X15647594Y-9675264D02*
X15667594Y-9695264D01*
X15667594Y-9675264D02*
X15647594Y-9695264D01*
X15699900Y-6822600D02*
X15719900Y-6842600D01*
X15719900Y-6822600D02*
X15699900Y-6842600D01*
X15699900Y-6898800D02*
X15719900Y-6918800D01*
X15719900Y-6898800D02*
X15699900Y-6918800D01*
X15699900Y-9629300D02*
X15719900Y-9649300D01*
X15719900Y-9629300D02*
X15699900Y-9649300D01*
X15736000Y-9728900D02*
X15756000Y-9748900D01*
X15756000Y-9728900D02*
X15736000Y-9748900D01*
X15763400Y-7470300D02*
X15783400Y-7490300D01*
X15783400Y-7470300D02*
X15763400Y-7490300D01*
X15776100Y-8321200D02*
X15796100Y-8341200D01*
X15796100Y-8321200D02*
X15776100Y-8341200D01*
X15814200Y-9413400D02*
X15834200Y-9433400D01*
X15834200Y-9413400D02*
X15814200Y-9433400D01*
X15839600Y-10238900D02*
X15859600Y-10258900D01*
X15859600Y-10238900D02*
X15839600Y-10258900D01*
X15848487Y-9874413D02*
X15868487Y-9894413D01*
X15868487Y-9874413D02*
X15848487Y-9894413D01*
X15865000Y-8206900D02*
X15885000Y-8226900D01*
X15885000Y-8206900D02*
X15865000Y-8226900D01*
X15890400Y-6263800D02*
X15910400Y-6283800D01*
X15910400Y-6263800D02*
X15890400Y-6283800D01*
X15909051Y-7069851D02*
X15929051Y-7089851D01*
X15929051Y-7069851D02*
X15909051Y-7089851D01*
X15928500Y-7165500D02*
X15948500Y-7185500D01*
X15948500Y-7165500D02*
X15928500Y-7185500D01*
X15928500Y-9565800D02*
X15948500Y-9585800D01*
X15948500Y-9565800D02*
X15928500Y-9585800D01*
X15928500Y-9629300D02*
X15948500Y-9649300D01*
X15948500Y-9629300D02*
X15928500Y-9649300D01*
X15928500Y-9692800D02*
X15948500Y-9712800D01*
X15948500Y-9692800D02*
X15928500Y-9712800D01*
X15941200Y-6479700D02*
X15961200Y-6499700D01*
X15961200Y-6479700D02*
X15941200Y-6499700D01*
X15953836Y-7950997D02*
X15973836Y-7970997D01*
X15973836Y-7950997D02*
X15953836Y-7970997D01*
X15953900Y-9184803D02*
X15973900Y-9204803D01*
X15973900Y-9184803D02*
X15953900Y-9204803D01*
X15966600Y-7813200D02*
X15986600Y-7833200D01*
X15986600Y-7813200D02*
X15966600Y-7833200D01*
X15992000Y-7711600D02*
X16012000Y-7731600D01*
X16012000Y-7711600D02*
X15992000Y-7731600D01*
X15997886Y-8092600D02*
X16017886Y-8112600D01*
X16017886Y-8092600D02*
X15997886Y-8112600D01*
X15998951Y-9267951D02*
X16018951Y-9287951D01*
X16018951Y-9267951D02*
X15998951Y-9287951D01*
X16002329Y-9942966D02*
X16022329Y-9962966D01*
X16022329Y-9942966D02*
X16002329Y-9962966D01*
X16080900Y-9565800D02*
X16100900Y-9585800D01*
X16100900Y-9565800D02*
X16080900Y-9585800D01*
X16080900Y-9629300D02*
X16100900Y-9649300D01*
X16100900Y-9629300D02*
X16080900Y-9649300D01*
X16080900Y-9692800D02*
X16100900Y-9712800D01*
X16100900Y-9692800D02*
X16080900Y-9712800D01*
X16080900Y-9865050D02*
X16100900Y-9885050D01*
X16100900Y-9865050D02*
X16080900Y-9885050D01*
X16144400Y-8473600D02*
X16164400Y-8493600D01*
X16164400Y-8473600D02*
X16144400Y-8493600D01*
X16144400Y-9934100D02*
X16164400Y-9954100D01*
X16164400Y-9934100D02*
X16144400Y-9954100D01*
X16157100Y-6263800D02*
X16177100Y-6283800D01*
X16177100Y-6263800D02*
X16157100Y-6283800D01*
X16195200Y-9362600D02*
X16215200Y-9382600D01*
X16215200Y-9362600D02*
X16195200Y-9382600D01*
X16246000Y-5209700D02*
X16266000Y-5229700D01*
X16266000Y-5209700D02*
X16246000Y-5229700D01*
X16258700Y-8092600D02*
X16278700Y-8112600D01*
X16278700Y-8092600D02*
X16258700Y-8112600D01*
X16271400Y-9426100D02*
X16291400Y-9446100D01*
X16291400Y-9426100D02*
X16271400Y-9446100D01*
X16296800Y-6517800D02*
X16316800Y-6537800D01*
X16316800Y-6517800D02*
X16296800Y-6537800D01*
X16320942Y-9475642D02*
X16340942Y-9495642D01*
X16340942Y-9475642D02*
X16320942Y-9495642D01*
X16374258Y-9528958D02*
X16394258Y-9548958D01*
X16394258Y-9528958D02*
X16374258Y-9548958D01*
X16385700Y-6771800D02*
X16405700Y-6791800D01*
X16405700Y-6771800D02*
X16385700Y-6791800D01*
X16525400Y-6797200D02*
X16545400Y-6817200D01*
X16545400Y-6797200D02*
X16525400Y-6817200D01*
X16525400Y-7025800D02*
X16545400Y-7045800D01*
X16545400Y-7025800D02*
X16525400Y-7045800D01*
X16525400Y-8740300D02*
X16545400Y-8760300D01*
X16545400Y-8740300D02*
X16525400Y-8760300D01*
X16525400Y-8943500D02*
X16545400Y-8963500D01*
X16545400Y-8943500D02*
X16525400Y-8963500D01*
X16625742Y-9922658D02*
X16645742Y-9942658D01*
X16645742Y-9922658D02*
X16625742Y-9942658D01*
X16677800Y-6771800D02*
X16697800Y-6791800D01*
X16697800Y-6771800D02*
X16677800Y-6791800D01*
X16679058Y-9869342D02*
X16699058Y-9889342D01*
X16699058Y-9869342D02*
X16679058Y-9889342D01*
X16722851Y-5877051D02*
X16742851Y-5897051D01*
X16742851Y-5877051D02*
X16722851Y-5897051D01*
X16779400Y-5603400D02*
X16799400Y-5623400D01*
X16799400Y-5603400D02*
X16779400Y-5623400D01*
X16792100Y-9273700D02*
X16812100Y-9293700D01*
X16812100Y-9273700D02*
X16792100Y-9293700D01*
X16792100Y-9908700D02*
X16812100Y-9928700D01*
X16812100Y-9908700D02*
X16792100Y-9928700D01*
X16799051Y-5800649D02*
X16819051Y-5820649D01*
X16819051Y-5800649D02*
X16799051Y-5820649D01*
X16804800Y-9654700D02*
X16824800Y-9674700D01*
X16824800Y-9654700D02*
X16804800Y-9674700D01*
X16842900Y-5730400D02*
X16862900Y-5750400D01*
X16862900Y-5730400D02*
X16842900Y-5750400D01*
X16842900Y-6771800D02*
X16862900Y-6791800D01*
X16862900Y-6771800D02*
X16842900Y-6791800D01*
X16919100Y-6517800D02*
X16939100Y-6537800D01*
X16939100Y-6517800D02*
X16919100Y-6537800D01*
X16969900Y-5184300D02*
X16989900Y-5204300D01*
X16989900Y-5184300D02*
X16969900Y-5204300D01*
X16969900Y-5247800D02*
X16989900Y-5267800D01*
X16989900Y-5247800D02*
X16969900Y-5267800D01*
X16969900Y-5311300D02*
X16989900Y-5331300D01*
X16989900Y-5311300D02*
X16969900Y-5331300D01*
X16995300Y-10111900D02*
X17015300Y-10131900D01*
X17015300Y-10111900D02*
X16995300Y-10131900D01*
X17033400Y-5184300D02*
X17053400Y-5204300D01*
X17053400Y-5184300D02*
X17033400Y-5204300D01*
X17033400Y-5247800D02*
X17053400Y-5267800D01*
X17053400Y-5247800D02*
X17033400Y-5267800D01*
X17033400Y-5311300D02*
X17053400Y-5331300D01*
X17053400Y-5311300D02*
X17033400Y-5331300D01*
X17122300Y-9438800D02*
X17142300Y-9458800D01*
X17142300Y-9438800D02*
X17122300Y-9458800D01*
X17135000Y-9807100D02*
X17155000Y-9827100D01*
X17155000Y-9807100D02*
X17135000Y-9827100D01*
X17160400Y-9108600D02*
X17180400Y-9128600D01*
X17180400Y-9108600D02*
X17160400Y-9128600D01*
X17655700Y-7991000D02*
X17675700Y-8011000D01*
X17675700Y-7991000D02*
X17655700Y-8011000D01*
X17711538Y-7894438D02*
X17731538Y-7914438D01*
X17731538Y-7894438D02*
X17711538Y-7914438D01*
X17782700Y-6047900D02*
X17802700Y-6067900D01*
X17802700Y-6047900D02*
X17782700Y-6067900D01*
X17795400Y-6606700D02*
X17815400Y-6626700D01*
X17815400Y-6606700D02*
X17795400Y-6626700D01*
X17909700Y-7698900D02*
X17929700Y-7718900D01*
X17929700Y-7698900D02*
X17909700Y-7718900D01*
X17947800Y-4854100D02*
X17967800Y-4874100D01*
X17967800Y-4854100D02*
X17947800Y-4874100D01*
X17960500Y-9273700D02*
X17980500Y-9293700D01*
X17980500Y-9273700D02*
X17960500Y-9293700D01*
X17960500Y-9908700D02*
X17980500Y-9928700D01*
X17980500Y-9908700D02*
X17960500Y-9928700D01*
X17973200Y-7787800D02*
X17993200Y-7807800D01*
X17993200Y-7787800D02*
X17973200Y-7807800D01*
X17998600Y-7978300D02*
X18018600Y-7998300D01*
X18018600Y-7978300D02*
X17998600Y-7998300D01*
X18112900Y-7889400D02*
X18132900Y-7909400D01*
X18132900Y-7889400D02*
X18112900Y-7909400D01*
X18138300Y-7762400D02*
X18158300Y-7782400D01*
X18158300Y-7762400D02*
X18138300Y-7782400D01*
X18142189Y-7626589D02*
X18162189Y-7646589D01*
X18162189Y-7626589D02*
X18142189Y-7646589D01*
X18201800Y-8181500D02*
X18221800Y-8201500D01*
X18221800Y-8181500D02*
X18201800Y-8201500D01*
X18405000Y-7521100D02*
X18425000Y-7541100D01*
X18425000Y-7521100D02*
X18405000Y-7541100D01*
X18709800Y-4854100D02*
X18729800Y-4874100D01*
X18729800Y-4854100D02*
X18709800Y-4874100D01*
X18963800Y-5158900D02*
X18983800Y-5178900D01*
X18983800Y-5158900D02*
X18963800Y-5178900D01*
X19065400Y-5202950D02*
X19085400Y-5222950D01*
X19085400Y-5202950D02*
X19065400Y-5222950D01*
X19179700Y-5158900D02*
X19199700Y-5178900D01*
X19199700Y-5158900D02*
X19179700Y-5178900D01*
X19230500Y-6327300D02*
X19250500Y-6347300D01*
X19250500Y-6327300D02*
X19230500Y-6347300D01*
X19243200Y-5171600D02*
X19263200Y-5191600D01*
X19263200Y-5171600D02*
X19243200Y-5191600D01*
X19306700Y-4612800D02*
X19326700Y-4632800D01*
X19326700Y-4612800D02*
X19306700Y-4632800D01*
X19306700Y-5209700D02*
X19326700Y-5229700D01*
X19326700Y-5209700D02*
X19306700Y-5229700D01*
X19306700Y-6632100D02*
X19326700Y-6652100D01*
X19326700Y-6632100D02*
X19306700Y-6652100D01*
X19433700Y-5572049D02*
X19453700Y-5592049D01*
X19453700Y-5572049D02*
X19433700Y-5592049D01*
X19459100Y-5209700D02*
X19479100Y-5229700D01*
X19479100Y-5209700D02*
X19459100Y-5229700D01*
X19459100Y-5298600D02*
X19479100Y-5318600D01*
X19479100Y-5298600D02*
X19459100Y-5318600D01*
X19459100Y-5387500D02*
X19479100Y-5407500D01*
X19479100Y-5387500D02*
X19459100Y-5407500D01*
X19497200Y-7622700D02*
X19517200Y-7642700D01*
X19517200Y-7622700D02*
X19497200Y-7642700D01*
X20271900Y-4975149D02*
X20291900Y-4995149D01*
X20291900Y-4975149D02*
X20271900Y-4995149D01*
X20382622Y-4940625D02*
X20402622Y-4960625D01*
X20402622Y-4940625D02*
X20382622Y-4960625D01*
X20822700Y-13333000D02*
X20842700Y-13353000D01*
X20842700Y-13333000D02*
X20822700Y-13353000D01*
X20830700Y-6632100D02*
X20850700Y-6652100D01*
X20850700Y-6632100D02*
X20830700Y-6652100D01*
X20868800Y-11013600D02*
X20888800Y-11033600D01*
X20888800Y-11013600D02*
X20868800Y-11033600D01*
X21173600Y-11013600D02*
X21193600Y-11033600D01*
X21193600Y-11013600D02*
X21173600Y-11033600D01*
X21554600Y-11013600D02*
X21574600Y-11033600D01*
X21574600Y-11013600D02*
X21554600Y-11033600D01*
X7496500Y-5616900D02*
X7516500Y-5636900D01*
X7516500Y-5616900D02*
X7496500Y-5636900D01*
X7496500Y-5716900D02*
X7516500Y-5736900D01*
X7516500Y-5716900D02*
X7496500Y-5736900D01*
X7546500Y-5666900D02*
X7566500Y-5686900D01*
X7566500Y-5666900D02*
X7546500Y-5686900D01*
X7596500Y-5716900D02*
X7616500Y-5736900D01*
X7616500Y-5716900D02*
X7596500Y-5736900D01*
X7597300Y-5616900D02*
X7617300Y-5636900D01*
X7617300Y-5616900D02*
X7597300Y-5636900D01*
X7340200Y-4635500D02*
G75*
G03X7340200Y-4635500I-25000J0D01*
G01*
X7340200Y-4749800D02*
G75*
G03X7340200Y-4749800I-25000J0D01*
G01*
X7429100Y-5880100D02*
G75*
G03X7429100Y-5880100I-25000J0D01*
G01*
X7454500Y-4635500D02*
G75*
G03X7454500Y-4635500I-25000J0D01*
G01*
X7454500Y-4749800D02*
G75*
G03X7454500Y-4749800I-25000J0D01*
G01*
X7568800Y-4635500D02*
G75*
G03X7568800Y-4635500I-25000J0D01*
G01*
X7568800Y-4749800D02*
G75*
G03X7568800Y-4749800I-25000J0D01*
G01*
X7683100Y-4635500D02*
G75*
G03X7683100Y-4635500I-25000J0D01*
G01*
X7683100Y-4749800D02*
G75*
G03X7683100Y-4749800I-25000J0D01*
G01*
X7899000Y-9779000D02*
G75*
G03X7899000Y-9779000I-25000J0D01*
G01*
X7911700Y-4635500D02*
G75*
G03X7911700Y-4635500I-25000J0D01*
G01*
X7911700Y-4775200D02*
G75*
G03X7911700Y-4775200I-25000J0D01*
G01*
X7962500Y-10401300D02*
G75*
G03X7962500Y-10401300I-25000J0D01*
G01*
X8026000Y-4635500D02*
G75*
G03X8026000Y-4635500I-25000J0D01*
G01*
X8026000Y-4775200D02*
G75*
G03X8026000Y-4775200I-25000J0D01*
G01*
X8140300Y-4635500D02*
G75*
G03X8140300Y-4635500I-25000J0D01*
G01*
X8140300Y-4775200D02*
G75*
G03X8140300Y-4775200I-25000J0D01*
G01*
X8318100Y-4826000D02*
G75*
G03X8318100Y-4826000I-25000J0D01*
G01*
X8318100Y-4940300D02*
G75*
G03X8318100Y-4940300I-25000J0D01*
G01*
X8318100Y-5054600D02*
G75*
G03X8318100Y-5054600I-25000J0D01*
G01*
X8318100Y-5168900D02*
G75*
G03X8318100Y-5168900I-25000J0D01*
G01*
X8318100Y-5283200D02*
G75*
G03X8318100Y-5283200I-25000J0D01*
G01*
X8673700Y-5270500D02*
G75*
G03X8673700Y-5270500I-25000J0D01*
G01*
X8673700Y-5410200D02*
G75*
G03X8673700Y-5410200I-25000J0D01*
G01*
X8673700Y-9766300D02*
G75*
G03X8673700Y-9766300I-25000J0D01*
G01*
X8686400Y-4368800D02*
G75*
G03X8686400Y-4368800I-25000J0D01*
G01*
X8686400Y-4495800D02*
G75*
G03X8686400Y-4495800I-25000J0D01*
G01*
X8686400Y-4610100D02*
G75*
G03X8686400Y-4610100I-25000J0D01*
G01*
X8686400Y-4737100D02*
G75*
G03X8686400Y-4737100I-25000J0D01*
G01*
X8788000Y-7899400D02*
G75*
G03X8788000Y-7899400I-25000J0D01*
G01*
X8788000Y-8229600D02*
G75*
G03X8788000Y-8229600I-25000J0D01*
G01*
X8800700Y-4368800D02*
G75*
G03X8800700Y-4368800I-25000J0D01*
G01*
X8826100Y-5270499D02*
G75*
G03X8826100Y-5270499I-25000J0D01*
G01*
X8826100Y-5410200D02*
G75*
G03X8826100Y-5410200I-25000J0D01*
G01*
X8851500Y-7277100D02*
G75*
G03X8851500Y-7277100I-25000J0D01*
G01*
X8851500Y-7581900D02*
G75*
G03X8851500Y-7581900I-25000J0D01*
G01*
X8915000Y-4368800D02*
G75*
G03X8915000Y-4368800I-25000J0D01*
G01*
X8915000Y-12801600D02*
G75*
G03X8915000Y-12801600I-25000J0D01*
G01*
X8978500Y-5270500D02*
G75*
G03X8978500Y-5270500I-25000J0D01*
G01*
X8978500Y-5410200D02*
G75*
G03X8978500Y-5410200I-25000J0D01*
G01*
X9029300Y-4368800D02*
G75*
G03X9029300Y-4368800I-25000J0D01*
G01*
X9143600Y-4368800D02*
G75*
G03X9143600Y-4368800I-25000J0D01*
G01*
X9169000Y-10116350D02*
G75*
G03X9169000Y-10116350I-25000J0D01*
G01*
X9194400Y-11849100D02*
G75*
G03X9194400Y-11849100I-25000J0D01*
G01*
X9257900Y-4368800D02*
G75*
G03X9257900Y-4368800I-25000J0D01*
G01*
X9257900Y-4495811D02*
G75*
G03X9257900Y-4495811I-25000J0D01*
G01*
X9257900Y-4610099D02*
G75*
G03X9257900Y-4610099I-25000J0D01*
G01*
X9257900Y-4737100D02*
G75*
G03X9257900Y-4737100I-25000J0D01*
G01*
X9257900Y-6438900D02*
G75*
G03X9257900Y-6438900I-25000J0D01*
G01*
X9308700Y-7899400D02*
G75*
G03X9308700Y-7899400I-25000J0D01*
G01*
X9319906Y-8519730D02*
G75*
G03X9319906Y-8519730I-25000J0D01*
G01*
X9334100Y-6959600D02*
G75*
G03X9334100Y-6959600I-25000J0D01*
G01*
X9359500Y-7188200D02*
G75*
G03X9359500Y-7188200I-25000J0D01*
G01*
X9384900Y-7995449D02*
G75*
G03X9384900Y-7995449I-25000J0D01*
G01*
X9486500Y-9461500D02*
G75*
G03X9486500Y-9461500I-25000J0D01*
G01*
X9613500Y-7886700D02*
G75*
G03X9613500Y-7886700I-25000J0D01*
G01*
X9791300Y-4368800D02*
G75*
G03X9791300Y-4368800I-25000J0D01*
G01*
X9888524Y-8199823D02*
G75*
G03X9888524Y-8199823I-25000J0D01*
G01*
X9905600Y-7505700D02*
G75*
G03X9905600Y-7505700I-25000J0D01*
G01*
X9918300Y-4368800D02*
G75*
G03X9918300Y-4368800I-25000J0D01*
G01*
X9943699Y-7188200D02*
G75*
G03X9943699Y-7188200I-25000J0D01*
G01*
X10007200Y-5524500D02*
G75*
G03X10007200Y-5524500I-25000J0D01*
G01*
X10019900Y-6883400D02*
G75*
G03X10019900Y-6883400I-25000J0D01*
G01*
X10045300Y-4368800D02*
G75*
G03X10045300Y-4368800I-25000J0D01*
G01*
X10083400Y-12052300D02*
G75*
G03X10083400Y-12052300I-25000J0D01*
G01*
X10121500Y-5524500D02*
G75*
G03X10121500Y-5524500I-25000J0D01*
G01*
X10172300Y-4368800D02*
G75*
G03X10172300Y-4368800I-25000J0D01*
G01*
X10172300Y-4495800D02*
G75*
G03X10172300Y-4495800I-25000J0D01*
G01*
X10172300Y-4622800D02*
G75*
G03X10172300Y-4622800I-25000J0D01*
G01*
X10172300Y-4749800D02*
G75*
G03X10172300Y-4749800I-25000J0D01*
G01*
X10172300Y-4876800D02*
G75*
G03X10172300Y-4876800I-25000J0D01*
G01*
X10172300Y-5003800D02*
G75*
G03X10172300Y-5003800I-25000J0D01*
G01*
X10172301Y-8305800D02*
G75*
G03X10172301Y-8305800I-25000J0D01*
G01*
X10235800Y-5524500D02*
G75*
G03X10235800Y-5524500I-25000J0D01*
G01*
X10540600Y-6299200D02*
G75*
G03X10540600Y-6299200I-25000J0D01*
G01*
X10610235Y-8265512D02*
G75*
G03X10610235Y-8265512I-25000J0D01*
G01*
X10756500Y-5803900D02*
G75*
G03X10756500Y-5803900I-25000J0D01*
G01*
X10858100Y-9144000D02*
G75*
G03X10858100Y-9144000I-25000J0D01*
G01*
X11061300Y-7645400D02*
G75*
G03X11061300Y-7645400I-25000J0D01*
G01*
X11620100Y-6331749D02*
G75*
G03X11620100Y-6331749I-25000J0D01*
G01*
X11710599Y-8327184D02*
G75*
G03X11710599Y-8327184I-25000J0D01*
G01*
X11759800Y-7010400D02*
G75*
G03X11759800Y-7010400I-25000J0D01*
G01*
X11797900Y-5816600D02*
G75*
G03X11797900Y-5816600I-25000J0D01*
G01*
X11859381Y-6715313D02*
G75*
G03X11859381Y-6715313I-25000J0D01*
G01*
X11874100Y-6827049D02*
G75*
G03X11874100Y-6827049I-25000J0D01*
G01*
X11963000Y-7937500D02*
G75*
G03X11963000Y-7937500I-25000J0D01*
G01*
X12090000Y-6731000D02*
G75*
G03X12090000Y-6731000I-25000J0D01*
G01*
X12204300Y-7543800D02*
G75*
G03X12204300Y-7543800I-25000J0D01*
G01*
X12293200Y-6883400D02*
G75*
G03X12293200Y-6883400I-25000J0D01*
G01*
X12394800Y-5626100D02*
G75*
G03X12394800Y-5626100I-25000J0D01*
G01*
X12394800Y-6883400D02*
G75*
G03X12394800Y-6883400I-25000J0D01*
G01*
X12445600Y-4356100D02*
G75*
G03X12445600Y-4356100I-25000J0D01*
G01*
X12445600Y-4483100D02*
G75*
G03X12445600Y-4483100I-25000J0D01*
G01*
X12445600Y-4610100D02*
G75*
G03X12445600Y-4610100I-25000J0D01*
G01*
X12445600Y-4737100D02*
G75*
G03X12445600Y-4737100I-25000J0D01*
G01*
X12445600Y-4864100D02*
G75*
G03X12445600Y-4864100I-25000J0D01*
G01*
X12445600Y-4991100D02*
G75*
G03X12445600Y-4991100I-25000J0D01*
G01*
X12445600Y-5118100D02*
G75*
G03X12445600Y-5118100I-25000J0D01*
G01*
X12445600Y-5245100D02*
G75*
G03X12445600Y-5245100I-25000J0D01*
G01*
X12445600Y-5372100D02*
G75*
G03X12445600Y-5372100I-25000J0D01*
G01*
X12458300Y-9563100D02*
G75*
G03X12458300Y-9563100I-25000J0D01*
G01*
X12496400Y-6883400D02*
G75*
G03X12496400Y-6883400I-25000J0D01*
G01*
X12572600Y-4356100D02*
G75*
G03X12572600Y-4356100I-25000J0D01*
G01*
X12572600Y-4483100D02*
G75*
G03X12572600Y-4483100I-25000J0D01*
G01*
X12572600Y-4610100D02*
G75*
G03X12572600Y-4610100I-25000J0D01*
G01*
X12572600Y-4737100D02*
G75*
G03X12572600Y-4737100I-25000J0D01*
G01*
X12572600Y-4864100D02*
G75*
G03X12572600Y-4864100I-25000J0D01*
G01*
X12572600Y-4991100D02*
G75*
G03X12572600Y-4991100I-25000J0D01*
G01*
X12572600Y-5118100D02*
G75*
G03X12572600Y-5118100I-25000J0D01*
G01*
X12572600Y-5245100D02*
G75*
G03X12572600Y-5245100I-25000J0D01*
G01*
X12572600Y-5372100D02*
G75*
G03X12572600Y-5372100I-25000J0D01*
G01*
X12648800Y-7099300D02*
G75*
G03X12648800Y-7099300I-25000J0D01*
G01*
X12699600Y-4356100D02*
G75*
G03X12699600Y-4356100I-25000J0D01*
G01*
X12699600Y-4483100D02*
G75*
G03X12699600Y-4483100I-25000J0D01*
G01*
X12699600Y-4610100D02*
G75*
G03X12699600Y-4610100I-25000J0D01*
G01*
X12699600Y-4737100D02*
G75*
G03X12699600Y-4737100I-25000J0D01*
G01*
X12699600Y-4864100D02*
G75*
G03X12699600Y-4864100I-25000J0D01*
G01*
X12699600Y-4991100D02*
G75*
G03X12699600Y-4991100I-25000J0D01*
G01*
X12699600Y-5118100D02*
G75*
G03X12699600Y-5118100I-25000J0D01*
G01*
X12699600Y-5245100D02*
G75*
G03X12699600Y-5245100I-25000J0D01*
G01*
X12699600Y-5372100D02*
G75*
G03X12699600Y-5372100I-25000J0D01*
G01*
X12826600Y-7493000D02*
G75*
G03X12826600Y-7493000I-25000J0D01*
G01*
X12953601Y-6400801D02*
G75*
G03X12953601Y-6400801I-25000J0D01*
G01*
X13207600Y-9169400D02*
G75*
G03X13207600Y-9169400I-25000J0D01*
G01*
X13296500Y-5575300D02*
G75*
G03X13296500Y-5575300I-25000J0D01*
G01*
X13512400Y-6527800D02*
G75*
G03X13512400Y-6527800I-25000J0D01*
G01*
X13817200Y-11569700D02*
G75*
G03X13817200Y-11569700I-25000J0D01*
G01*
X13944200Y-9144000D02*
G75*
G03X13944200Y-9144000I-25000J0D01*
G01*
X14134700Y-5803900D02*
G75*
G03X14134700Y-5803900I-25000J0D01*
G01*
X14147400Y-7208050D02*
G75*
G03X14147400Y-7208050I-25000J0D01*
G01*
X14210900Y-8801100D02*
G75*
G03X14210900Y-8801100I-25000J0D01*
G01*
X14337900Y-11150600D02*
G75*
G03X14337900Y-11150600I-25000J0D01*
G01*
X14337900Y-12255500D02*
G75*
G03X14337900Y-12255500I-25000J0D01*
G01*
X14381550Y-10693400D02*
G75*
G03X14381550Y-10693400I-25000J0D01*
G01*
X14477600Y-6972300D02*
G75*
G03X14477600Y-6972300I-25000J0D01*
G01*
X14585799Y-6367999D02*
G75*
G03X14585799Y-6367999I-25000J0D01*
G01*
X14680800Y-9271000D02*
G75*
G03X14680800Y-9271000I-25000J0D01*
G01*
X14744300Y-8140700D02*
G75*
G03X14744300Y-8140700I-25000J0D01*
G01*
X14782400Y-6870700D02*
G75*
G03X14782400Y-6870700I-25000J0D01*
G01*
X14871300Y-12052300D02*
G75*
G03X14871300Y-12052300I-25000J0D01*
G01*
X15036400Y-10604500D02*
G75*
G03X15036400Y-10604500I-25000J0D01*
G01*
X15036400Y-11557000D02*
G75*
G03X15036400Y-11557000I-25000J0D01*
G01*
X15099900Y-7531100D02*
G75*
G03X15099900Y-7531100I-25000J0D01*
G01*
X15188800Y-10934700D02*
G75*
G03X15188800Y-10934700I-25000J0D01*
G01*
X15188800Y-12852400D02*
G75*
G03X15188800Y-12852400I-25000J0D01*
G01*
X15188800Y-12966700D02*
G75*
G03X15188800Y-12966700I-25000J0D01*
G01*
X15188800Y-13081000D02*
G75*
G03X15188800Y-13081000I-25000J0D01*
G01*
X15188800Y-13195300D02*
G75*
G03X15188800Y-13195300I-25000J0D01*
G01*
X15226900Y-5930900D02*
G75*
G03X15226900Y-5930900I-25000J0D01*
G01*
X15328500Y-5473700D02*
G75*
G03X15328500Y-5473700I-25000J0D01*
G01*
X15404700Y-8128000D02*
G75*
G03X15404700Y-8128000I-25000J0D01*
G01*
X15404700Y-8394700D02*
G75*
G03X15404700Y-8394700I-25000J0D01*
G01*
X15519000Y-6870700D02*
G75*
G03X15519000Y-6870700I-25000J0D01*
G01*
X15569800Y-7505700D02*
G75*
G03X15569800Y-7505700I-25000J0D01*
G01*
X15620600Y-7886700D02*
G75*
G03X15620600Y-7886700I-25000J0D01*
G01*
X15696800Y-11049000D02*
G75*
G03X15696800Y-11049000I-25000J0D01*
G01*
X15696800Y-11163300D02*
G75*
G03X15696800Y-11163300I-25000J0D01*
G01*
X15696800Y-11493500D02*
G75*
G03X15696800Y-11493500I-25000J0D01*
G01*
X15696800Y-11607800D02*
G75*
G03X15696800Y-11607800I-25000J0D01*
G01*
X15722200Y-10248900D02*
G75*
G03X15722200Y-10248900I-25000J0D01*
G01*
X15760300Y-8178800D02*
G75*
G03X15760300Y-8178800I-25000J0D01*
G01*
X15773000Y-7797800D02*
G75*
G03X15773000Y-7797800I-25000J0D01*
G01*
X15811100Y-11049000D02*
G75*
G03X15811100Y-11049000I-25000J0D01*
G01*
X15811100Y-11163300D02*
G75*
G03X15811100Y-11163300I-25000J0D01*
G01*
X15811100Y-11493500D02*
G75*
G03X15811100Y-11493500I-25000J0D01*
G01*
X15811100Y-11607800D02*
G75*
G03X15811100Y-11607800I-25000J0D01*
G01*
X15811100Y-12852400D02*
G75*
G03X15811100Y-12852400I-25000J0D01*
G01*
X15811100Y-12966700D02*
G75*
G03X15811100Y-12966700I-25000J0D01*
G01*
X15811100Y-13081000D02*
G75*
G03X15811100Y-13081000I-25000J0D01*
G01*
X15811100Y-13195300D02*
G75*
G03X15811100Y-13195300I-25000J0D01*
G01*
X15900000Y-8610600D02*
G75*
G03X15900000Y-8610600I-25000J0D01*
G01*
X15912700Y-4330700D02*
G75*
G03X15912700Y-4330700I-25000J0D01*
G01*
X15912700Y-4445000D02*
G75*
G03X15912700Y-4445000I-25000J0D01*
G01*
X15912700Y-4559300D02*
G75*
G03X15912700Y-4559300I-25000J0D01*
G01*
X15912700Y-4673600D02*
G75*
G03X15912700Y-4673600I-25000J0D01*
G01*
X16065100Y-4673600D02*
G75*
G03X16065100Y-4673600I-25000J0D01*
G01*
X16217500Y-12941300D02*
G75*
G03X16217500Y-12941300I-25000J0D01*
G01*
X16230200Y-7327900D02*
G75*
G03X16230200Y-7327900I-25000J0D01*
G01*
X16331800Y-9791700D02*
G75*
G03X16331800Y-9791700I-25000J0D01*
G01*
X16344500Y-12941300D02*
G75*
G03X16344500Y-12941300I-25000J0D01*
G01*
X16344506Y-10236200D02*
G75*
G03X16344506Y-10236200I-25000J0D01*
G01*
X16369900Y-6883400D02*
G75*
G03X16369900Y-6883400I-25000J0D01*
G01*
X16395300Y-11379200D02*
G75*
G03X16395300Y-11379200I-25000J0D01*
G01*
X16395300Y-11493500D02*
G75*
G03X16395300Y-11493500I-25000J0D01*
G01*
X16395300Y-11607800D02*
G75*
G03X16395300Y-11607800I-25000J0D01*
G01*
X16471500Y-12941300D02*
G75*
G03X16471500Y-12941300I-25000J0D01*
G01*
X16522300Y-6426200D02*
G75*
G03X16522300Y-6426200I-25000J0D01*
G01*
X16560738Y-7485851D02*
G75*
G03X16560738Y-7485851I-25000J0D01*
G01*
X16598500Y-12941300D02*
G75*
G03X16598500Y-12941300I-25000J0D01*
G01*
X16789000Y-4648200D02*
G75*
G03X16789000Y-4648200I-25000J0D01*
G01*
X16789000Y-5207000D02*
G75*
G03X16789000Y-5207000I-25000J0D01*
G01*
X16814400Y-10833100D02*
G75*
G03X16814400Y-10833100I-25000J0D01*
G01*
X16814400Y-10947400D02*
G75*
G03X16814400Y-10947400I-25000J0D01*
G01*
X16814400Y-11061700D02*
G75*
G03X16814400Y-11061700I-25000J0D01*
G01*
X16814400Y-11696700D02*
G75*
G03X16814400Y-11696700I-25000J0D01*
G01*
X16814400Y-11811000D02*
G75*
G03X16814400Y-11811000I-25000J0D01*
G01*
X16814400Y-11925300D02*
G75*
G03X16814400Y-11925300I-25000J0D01*
G01*
X16839800Y-12484100D02*
G75*
G03X16839800Y-12484100I-25000J0D01*
G01*
X16839800Y-13423900D02*
G75*
G03X16839800Y-13423900I-25000J0D01*
G01*
X16877900Y-10490200D02*
G75*
G03X16877900Y-10490200I-25000J0D01*
G01*
X16877900Y-10604500D02*
G75*
G03X16877900Y-10604500I-25000J0D01*
G01*
X16906775Y-6186576D02*
G75*
G03X16906775Y-6186576I-25000J0D01*
G01*
X16966800Y-12484100D02*
G75*
G03X16966800Y-12484100I-25000J0D01*
G01*
X16966800Y-13423900D02*
G75*
G03X16966800Y-13423900I-25000J0D01*
G01*
X16992200Y-10490200D02*
G75*
G03X16992200Y-10490200I-25000J0D01*
G01*
X16992200Y-10604500D02*
G75*
G03X16992200Y-10604500I-25000J0D01*
G01*
X17093800Y-12484100D02*
G75*
G03X17093800Y-12484100I-25000J0D01*
G01*
X17093800Y-13423900D02*
G75*
G03X17093800Y-13423900I-25000J0D01*
G01*
X17106500Y-10490200D02*
G75*
G03X17106500Y-10490200I-25000J0D01*
G01*
X17220800Y-12484100D02*
G75*
G03X17220800Y-12484100I-25000J0D01*
G01*
X17220800Y-13423900D02*
G75*
G03X17220800Y-13423900I-25000J0D01*
G01*
X17233500Y-10490200D02*
G75*
G03X17233500Y-10490200I-25000J0D01*
G01*
X17449400Y-5295900D02*
G75*
G03X17449400Y-5295900I-25000J0D01*
G01*
X17449400Y-5410200D02*
G75*
G03X17449400Y-5410200I-25000J0D01*
G01*
X17449400Y-5524500D02*
G75*
G03X17449400Y-5524500I-25000J0D01*
G01*
X17449401Y-4800600D02*
G75*
G03X17449401Y-4800600I-25000J0D01*
G01*
X17449401Y-4686300D02*
G75*
G03X17449401Y-4686300I-25000J0D01*
G01*
X17576400Y-4686300D02*
G75*
G03X17576400Y-4686300I-25000J0D01*
G01*
X17576400Y-4800600D02*
G75*
G03X17576400Y-4800600I-25000J0D01*
G01*
X17627200Y-7708900D02*
G75*
G03X17627200Y-7708900I-25000J0D01*
G01*
X17741500Y-8255000D02*
G75*
G03X17741500Y-8255000I-25000J0D01*
G01*
X17932000Y-5283200D02*
G75*
G03X17932000Y-5283200I-25000J0D01*
G01*
X17932000Y-5397500D02*
G75*
G03X17932000Y-5397500I-25000J0D01*
G01*
X17932000Y-5511800D02*
G75*
G03X17932000Y-5511800I-25000J0D01*
G01*
X18084400Y-7696200D02*
G75*
G03X18084400Y-7696200I-25000J0D01*
G01*
X18236800Y-8407400D02*
G75*
G03X18236800Y-8407400I-25000J0D01*
G01*
X18325700Y-4648200D02*
G75*
G03X18325700Y-4648200I-25000J0D01*
G01*
X18325700Y-5207000D02*
G75*
G03X18325700Y-5207000I-25000J0D01*
G01*
X18325700Y-6057900D02*
G75*
G03X18325700Y-6057900I-25000J0D01*
G01*
X18325700Y-6616700D02*
G75*
G03X18325700Y-6616700I-25000J0D01*
G01*
X18706700Y-6134100D02*
G75*
G03X18706700Y-6134100I-25000J0D01*
G01*
X18706700Y-6311900D02*
G75*
G03X18706700Y-6311900I-25000J0D01*
G01*
X18782900Y-8077200D02*
G75*
G03X18782900Y-8077200I-25000J0D01*
G01*
X18846400Y-6134100D02*
G75*
G03X18846400Y-6134100I-25000J0D01*
G01*
X19849700Y-4648200D02*
G75*
G03X19849700Y-4648200I-25000J0D01*
G01*
X19849700Y-5207000D02*
G75*
G03X19849700Y-5207000I-25000J0D01*
G01*
X19849700Y-6057900D02*
G75*
G03X19849700Y-6057900I-25000J0D01*
G01*
X19849700Y-6616700D02*
G75*
G03X19849700Y-6616700I-25000J0D01*
G01*
X20319600Y-5181599D02*
G75*
G03X20319600Y-5181599I-25000J0D01*
G01*
X20446600Y-5181600D02*
G75*
G03X20446600Y-5181600I-25000J0D01*
G01*
X20611700Y-4673600D02*
G75*
G03X20611700Y-4673600I-25000J0D01*
G01*
X20611700Y-4781550D02*
G75*
G03X20611700Y-4781550I-25000J0D01*
G01*
X20611700Y-5105400D02*
G75*
G03X20611700Y-5105400I-25000J0D01*
G01*
X20611700Y-5207000D02*
G75*
G03X20611700Y-5207000I-25000J0D01*
G01*
X20802200Y-11277600D02*
G75*
G03X20802200Y-11277600I-25000J0D01*
G01*
X20802200Y-11404600D02*
G75*
G03X20802200Y-11404600I-25000J0D01*
G01*
X20929200Y-11277600D02*
G75*
G03X20929200Y-11277600I-25000J0D01*
G01*
X20929200Y-11404600D02*
G75*
G03X20929200Y-11404600I-25000J0D01*
G01*
X20992700Y-5397500D02*
G75*
G03X20992700Y-5397500I-25000J0D01*
G01*
X21056200Y-11277600D02*
G75*
G03X21056200Y-11277600I-25000J0D01*
G01*
X21056200Y-11404600D02*
G75*
G03X21056200Y-11404600I-25000J0D01*
G01*
X21183200Y-11277600D02*
G75*
G03X21183200Y-11277600I-25000J0D01*
G01*
X21183200Y-11404600D02*
G75*
G03X21183200Y-11404600I-25000J0D01*
G01*
X21310200Y-11277600D02*
G75*
G03X21310200Y-11277600I-25000J0D01*
G01*
X21310200Y-11404600D02*
G75*
G03X21310200Y-11404600I-25000J0D01*
G01*
X21322900Y-12928600D02*
G75*
G03X21322900Y-12928600I-25000J0D01*
G01*
X21373700Y-4648200D02*
G75*
G03X21373700Y-4648200I-25000J0D01*
G01*
X21373700Y-5207000D02*
G75*
G03X21373700Y-5207000I-25000J0D01*
G01*
X21373700Y-6616700D02*
G75*
G03X21373700Y-6616700I-25000J0D01*
G01*
X21437200Y-11277600D02*
G75*
G03X21437200Y-11277600I-25000J0D01*
G01*
X21437200Y-11404600D02*
G75*
G03X21437200Y-11404600I-25000J0D01*
G01*
X21437200Y-12928600D02*
G75*
G03X21437200Y-12928600I-25000J0D01*
G01*
X21437200Y-13042900D02*
G75*
G03X21437200Y-13042900I-25000J0D01*
G01*
X21488000Y-6172200D02*
G75*
G03X21488000Y-6172200I-25000J0D01*
G01*
X21551500Y-12585700D02*
G75*
G03X21551500Y-12585700I-25000J0D01*
G01*
X21551500Y-12700000D02*
G75*
G03X21551500Y-12700000I-25000J0D01*
G01*
X21551500Y-12814300D02*
G75*
G03X21551500Y-12814300I-25000J0D01*
G01*
X21551500Y-12928600D02*
G75*
G03X21551500Y-12928600I-25000J0D01*
G01*
X21551500Y-13042900D02*
G75*
G03X21551500Y-13042900I-25000J0D01*
G01*
X21564200Y-11277600D02*
G75*
G03X21564200Y-11277600I-25000J0D01*
G01*
X21564200Y-11404600D02*
G75*
G03X21564200Y-11404600I-25000J0D01*
G01*
X14400800Y-12452800D02*
G75*
G03X14400800Y-12452800I-25000J0D01*
G01*
X14340800Y-12467800D02*
X14410800Y-12467800D01*
X14340800Y-12437800D02*
X14410800Y-12437800D01*
X14410800Y-12467800D02*
G75*
G03X14410800Y-12437800I0J15000D01*
G01*
X14340800Y-12437800D02*
G75*
G03X14340800Y-12467800I0J-15000D01*
G01*
X14680800Y-12667800D02*
G75*
G03X14680800Y-12667800I-25000J0D01*
G01*
X14600800Y-12682800D02*
X14710800Y-12682800D01*
X14600800Y-12652800D02*
X14710800Y-12652800D01*
X14710800Y-12682800D02*
G75*
G03X14710800Y-12652800I0J15000D01*
G01*
X14600800Y-12652800D02*
G75*
G03X14600800Y-12682800I0J-15000D01*
G01*
X14960800Y-12452800D02*
G75*
G03X14960800Y-12452800I-25000J0D01*
G01*
X14900800Y-12467800D02*
X14970800Y-12467800D01*
X14900800Y-12437800D02*
X14970800Y-12437800D01*
X14970800Y-12467800D02*
G75*
G03X14970800Y-12437800I0J15000D01*
G01*
X14900800Y-12437800D02*
G75*
G03X14900800Y-12467800I0J-15000D01*
G01*
X17703800Y-12416000D02*
X17703800Y-12476000D01*
X17673800Y-12446000D02*
X17733800Y-12446000D01*
X17703800Y-13432000D02*
X17703800Y-13492000D01*
X17673800Y-13462000D02*
X17733800Y-13462000D01*
X17957800Y-12416000D02*
X17957800Y-12476000D01*
X17927800Y-12446000D02*
X17987800Y-12446000D01*
X17957800Y-13432000D02*
X17957800Y-13492000D01*
X17927800Y-13462000D02*
X17987800Y-13462000D01*
X19481800Y-12416000D02*
X19481800Y-12476000D01*
X19451800Y-12446000D02*
X19511800Y-12446000D01*
X19481800Y-13432000D02*
X19481800Y-13492000D01*
X19451800Y-13462000D02*
X19511800Y-13462000D01*
X17703800Y-10841200D02*
X17703800Y-10901200D01*
X17673800Y-10871200D02*
X17733800Y-10871200D01*
X17703800Y-11857200D02*
X17703800Y-11917200D01*
X17673800Y-11887200D02*
X17733800Y-11887200D01*
X17957800Y-10841200D02*
X17957800Y-10901200D01*
X17927800Y-10871200D02*
X17987800Y-10871200D01*
X17957800Y-11857200D02*
X17957800Y-11917200D01*
X17927800Y-11887200D02*
X17987800Y-11887200D01*
X19481800Y-10841200D02*
X19481800Y-10901200D01*
X19451800Y-10871200D02*
X19511800Y-10871200D01*
X19481800Y-11857200D02*
X19481800Y-11917200D01*
X19451800Y-11887200D02*
X19511800Y-11887200D01*
X10113131Y-7528681D02*
X10113131Y-7482719D01*
X10067169Y-7482719D01*
X10067169Y-7528681D01*
X10113131Y-7528681D01*
X10113131Y-7655681D02*
X10113131Y-7609719D01*
X10067169Y-7609719D01*
X10067169Y-7655681D01*
X10113131Y-7655681D01*
X10113131Y-7782681D02*
X10113131Y-7736719D01*
X10067169Y-7736719D01*
X10067169Y-7782681D01*
X10113131Y-7782681D01*
X10113131Y-7909681D02*
X10113131Y-7863719D01*
X10067169Y-7863719D01*
X10067169Y-7909681D01*
X10113131Y-7909681D01*
X10113131Y-8036681D02*
X10113131Y-7990719D01*
X10067169Y-7990719D01*
X10067169Y-8036681D01*
X10113131Y-8036681D01*
X10240131Y-7528681D02*
X10240131Y-7482719D01*
X10194169Y-7482719D01*
X10194169Y-7528681D01*
X10240131Y-7528681D01*
X10240131Y-7655681D02*
X10240131Y-7609719D01*
X10194169Y-7609719D01*
X10194169Y-7655681D01*
X10240131Y-7655681D01*
X10240131Y-7782681D02*
X10240131Y-7736719D01*
X10194169Y-7736719D01*
X10194169Y-7782681D01*
X10240131Y-7782681D01*
X10240131Y-7909681D02*
X10240131Y-7863719D01*
X10194169Y-7863719D01*
X10194169Y-7909681D01*
X10240131Y-7909681D01*
X10240131Y-8036681D02*
X10240131Y-7990719D01*
X10194169Y-7990719D01*
X10194169Y-8036681D01*
X10240131Y-8036681D01*
X21766000Y-5103005D02*
X21806005Y-5063000D01*
X21766000Y-5022995D01*
X21725995Y-5063000D01*
X21766000Y-5103005D01*
X21766000Y-5357005D02*
X21806005Y-5317000D01*
X21766000Y-5276995D01*
X21725995Y-5317000D01*
X21766000Y-5357005D01*
X21766000Y-5611005D02*
X21806005Y-5571000D01*
X21766000Y-5530995D01*
X21725995Y-5571000D01*
X21766000Y-5611005D01*
X21766000Y-5865005D02*
X21806005Y-5825000D01*
X21766000Y-5784995D01*
X21725995Y-5825000D01*
X21766000Y-5865005D01*
X21766000Y-6119005D02*
X21806005Y-6079000D01*
X21766000Y-6038995D01*
X21725995Y-6079000D01*
X21766000Y-6119005D01*
X21766000Y-6373005D02*
X21806005Y-6333000D01*
X21766000Y-6292995D01*
X21725995Y-6333000D01*
X21766000Y-6373005D01*
X21766000Y-6627005D02*
X21806005Y-6587000D01*
X21766000Y-6546995D01*
X21725995Y-6587000D01*
X21766000Y-6627005D01*
X21766000Y-6881005D02*
X21806005Y-6841000D01*
X21766000Y-6800995D01*
X21725995Y-6841000D01*
X21766000Y-6881005D01*
X21766000Y-7135005D02*
X21806005Y-7095000D01*
X21766000Y-7054995D01*
X21725995Y-7095000D01*
X21766000Y-7135005D01*
X21766000Y-7389005D02*
X21806005Y-7349000D01*
X21766000Y-7308995D01*
X21725995Y-7349000D01*
X21766000Y-7389005D01*
X21766000Y-7643005D02*
X21806005Y-7603000D01*
X21766000Y-7562995D01*
X21725995Y-7603000D01*
X21766000Y-7643005D01*
X21766000Y-7897005D02*
X21806005Y-7857000D01*
X21766000Y-7816995D01*
X21725995Y-7857000D01*
X21766000Y-7897005D01*
X21766000Y-8151005D02*
X21806005Y-8111000D01*
X21766000Y-8070995D01*
X21725995Y-8111000D01*
X21766000Y-8151005D01*
X21766000Y-8405005D02*
X21806005Y-8365000D01*
X21766000Y-8324995D01*
X21725995Y-8365000D01*
X21766000Y-8405005D01*
X21766000Y-8659005D02*
X21806005Y-8619000D01*
X21766000Y-8578995D01*
X21725995Y-8619000D01*
X21766000Y-8659005D01*
X21766000Y-8913005D02*
X21806005Y-8873000D01*
X21766000Y-8832995D01*
X21725995Y-8873000D01*
X21766000Y-8913005D01*
X21766000Y-9167005D02*
X21806005Y-9127000D01*
X21766000Y-9086995D01*
X21725995Y-9127000D01*
X21766000Y-9167005D01*
X21766000Y-9421005D02*
X21806005Y-9381000D01*
X21766000Y-9340995D01*
X21725995Y-9381000D01*
X21766000Y-9421005D01*
X21766000Y-9675005D02*
X21806005Y-9635000D01*
X21766000Y-9594995D01*
X21725995Y-9635000D01*
X21766000Y-9675005D01*
X21766000Y-9929005D02*
X21806005Y-9889000D01*
X21766000Y-9848995D01*
X21725995Y-9889000D01*
X21766000Y-9929005D01*
X21766000Y-10183005D02*
X21806005Y-10143000D01*
X21766000Y-10102995D01*
X21725995Y-10143000D01*
X21766000Y-10183005D01*
X21766000Y-10437005D02*
X21806005Y-10397000D01*
X21766000Y-10356995D01*
X21725995Y-10397000D01*
X21766000Y-10437005D01*
X21766000Y-10691005D02*
X21806005Y-10651000D01*
X21766000Y-10610995D01*
X21725995Y-10651000D01*
X21766000Y-10691005D01*
X21766000Y-10945005D02*
X21806005Y-10905000D01*
X21766000Y-10864995D01*
X21725995Y-10905000D01*
X21766000Y-10945005D01*
X21766000Y-11199005D02*
X21806005Y-11159000D01*
X21766000Y-11118995D01*
X21725995Y-11159000D01*
X21766000Y-11199005D01*
X21766000Y-11453005D02*
X21806005Y-11413000D01*
X21766000Y-11372995D01*
X21725995Y-11413000D01*
X21766000Y-11453005D01*
X21766000Y-11707005D02*
X21806005Y-11667000D01*
X21766000Y-11626995D01*
X21725995Y-11667000D01*
X21766000Y-11707005D01*
X21766000Y-11961005D02*
X21806005Y-11921000D01*
X21766000Y-11880995D01*
X21725995Y-11921000D01*
X21766000Y-11961005D01*
X21766000Y-12215005D02*
X21806005Y-12175000D01*
X21766000Y-12134995D01*
X21725995Y-12175000D01*
X21766000Y-12215005D01*
X21766000Y-12469005D02*
X21806005Y-12429000D01*
X21766000Y-12388995D01*
X21725995Y-12429000D01*
X21766000Y-12469005D01*
X21766000Y-12723005D02*
X21806005Y-12683000D01*
X21766000Y-12642995D01*
X21725995Y-12683000D01*
X21766000Y-12723005D01*
X21766000Y-12977005D02*
X21806005Y-12937000D01*
X21766000Y-12896995D01*
X21725995Y-12937000D01*
X21766000Y-12977005D01*
X22274000Y-5103005D02*
X22314005Y-5063000D01*
X22274000Y-5022995D01*
X22233995Y-5063000D01*
X22274000Y-5103005D01*
X22274000Y-5357005D02*
X22314005Y-5317000D01*
X22274000Y-5276995D01*
X22233995Y-5317000D01*
X22274000Y-5357005D01*
X22274000Y-5611005D02*
X22314005Y-5571000D01*
X22274000Y-5530995D01*
X22233995Y-5571000D01*
X22274000Y-5611005D01*
X22274000Y-5865005D02*
X22314005Y-5825000D01*
X22274000Y-5784995D01*
X22233995Y-5825000D01*
X22274000Y-5865005D01*
X22274000Y-6119005D02*
X22314005Y-6079000D01*
X22274000Y-6038995D01*
X22233995Y-6079000D01*
X22274000Y-6119005D01*
X22274000Y-6373005D02*
X22314005Y-6333000D01*
X22274000Y-6292995D01*
X22233995Y-6333000D01*
X22274000Y-6373005D01*
X22274000Y-6627005D02*
X22314005Y-6587000D01*
X22274000Y-6546995D01*
X22233995Y-6587000D01*
X22274000Y-6627005D01*
X22274000Y-6881005D02*
X22314005Y-6841000D01*
X22274000Y-6800995D01*
X22233995Y-6841000D01*
X22274000Y-6881005D01*
X22274000Y-7135005D02*
X22314005Y-7095000D01*
X22274000Y-7054995D01*
X22233995Y-7095000D01*
X22274000Y-7135005D01*
X22274000Y-7389005D02*
X22314005Y-7349000D01*
X22274000Y-7308995D01*
X22233995Y-7349000D01*
X22274000Y-7389005D01*
X22274000Y-7643005D02*
X22314005Y-7603000D01*
X22274000Y-7562995D01*
X22233995Y-7603000D01*
X22274000Y-7643005D01*
X22274000Y-7897005D02*
X22314005Y-7857000D01*
X22274000Y-7816995D01*
X22233995Y-7857000D01*
X22274000Y-7897005D01*
X22274000Y-8151005D02*
X22314005Y-8111000D01*
X22274000Y-8070995D01*
X22233995Y-8111000D01*
X22274000Y-8151005D01*
X22274000Y-8405005D02*
X22314005Y-8365000D01*
X22274000Y-8324995D01*
X22233995Y-8365000D01*
X22274000Y-8405005D01*
X22274000Y-8659005D02*
X22314005Y-8619000D01*
X22274000Y-8578995D01*
X22233995Y-8619000D01*
X22274000Y-8659005D01*
X22274000Y-8913005D02*
X22314005Y-8873000D01*
X22274000Y-8832995D01*
X22233995Y-8873000D01*
X22274000Y-8913005D01*
X22274000Y-9167005D02*
X22314005Y-9127000D01*
X22274000Y-9086995D01*
X22233995Y-9127000D01*
X22274000Y-9167005D01*
X22274000Y-9421005D02*
X22314005Y-9381000D01*
X22274000Y-9340995D01*
X22233995Y-9381000D01*
X22274000Y-9421005D01*
X22274000Y-9675005D02*
X22314005Y-9635000D01*
X22274000Y-9594995D01*
X22233995Y-9635000D01*
X22274000Y-9675005D01*
X22274000Y-9929005D02*
X22314005Y-9889000D01*
X22274000Y-9848995D01*
X22233995Y-9889000D01*
X22274000Y-9929005D01*
X22274000Y-10183005D02*
X22314005Y-10143000D01*
X22274000Y-10102995D01*
X22233995Y-10143000D01*
X22274000Y-10183005D01*
X22274000Y-10437005D02*
X22314005Y-10397000D01*
X22274000Y-10356995D01*
X22233995Y-10397000D01*
X22274000Y-10437005D01*
X22274000Y-10691005D02*
X22314005Y-10651000D01*
X22274000Y-10610995D01*
X22233995Y-10651000D01*
X22274000Y-10691005D01*
X22274000Y-10945005D02*
X22314005Y-10905000D01*
X22274000Y-10864995D01*
X22233995Y-10905000D01*
X22274000Y-10945005D01*
X22274000Y-11199005D02*
X22314005Y-11159000D01*
X22274000Y-11118995D01*
X22233995Y-11159000D01*
X22274000Y-11199005D01*
X22274000Y-11453005D02*
X22314005Y-11413000D01*
X22274000Y-11372995D01*
X22233995Y-11413000D01*
X22274000Y-11453005D01*
X22274000Y-11707005D02*
X22314005Y-11667000D01*
X22274000Y-11626995D01*
X22233995Y-11667000D01*
X22274000Y-11707005D01*
X22274000Y-11961005D02*
X22314005Y-11921000D01*
X22274000Y-11880995D01*
X22233995Y-11921000D01*
X22274000Y-11961005D01*
X22274000Y-12215005D02*
X22314005Y-12175000D01*
X22274000Y-12134995D01*
X22233995Y-12175000D01*
X22274000Y-12215005D01*
X22274000Y-12469005D02*
X22314005Y-12429000D01*
X22274000Y-12388995D01*
X22233995Y-12429000D01*
X22274000Y-12469005D01*
X22274000Y-12723005D02*
X22314005Y-12683000D01*
X22274000Y-12642995D01*
X22233995Y-12683000D01*
X22274000Y-12723005D01*
X22274000Y-12977005D02*
X22314005Y-12937000D01*
X22274000Y-12896995D01*
X22233995Y-12937000D01*
X22274000Y-12977005D01*
X9106700Y-11138700D02*
X9206700Y-11238700D01*
X9206700Y-11138700D02*
X9106700Y-11238700D01*
X9206700Y-11188700D02*
G75*
G03X9206700Y-11188700I-50000J0D01*
G01*
X9360700Y-11138700D02*
X9460700Y-11238700D01*
X9460700Y-11138700D02*
X9360700Y-11238700D01*
X9460700Y-11188700D02*
G75*
G03X9460700Y-11188700I-50000J0D01*
G01*
X19538100Y-9106700D02*
X19638100Y-9206700D01*
X19638100Y-9106700D02*
X19538100Y-9206700D01*
X19638100Y-9156700D02*
G75*
G03X19638100Y-9156700I-50000J0D01*
G01*
X19538100Y-9360700D02*
X19638100Y-9460700D01*
X19638100Y-9360700D02*
X19538100Y-9460700D01*
X19638100Y-9410700D02*
G75*
G03X19638100Y-9410700I-50000J0D01*
G01*
X19538100Y-9614700D02*
X19638100Y-9714700D01*
X19638100Y-9614700D02*
X19538100Y-9714700D01*
X19638100Y-9664700D02*
G75*
G03X19638100Y-9664700I-50000J0D01*
G01*
X19538100Y-9868700D02*
X19638100Y-9968700D01*
X19638100Y-9868700D02*
X19538100Y-9968700D01*
X19638100Y-9918700D02*
G75*
G03X19638100Y-9918700I-50000J0D01*
G01*
X19792100Y-9233700D02*
X19892100Y-9333700D01*
X19892100Y-9233700D02*
X19792100Y-9333700D01*
X19892100Y-9283700D02*
G75*
G03X19892100Y-9283700I-50000J0D01*
G01*
X19792100Y-9487700D02*
X19892100Y-9587700D01*
X19892100Y-9487700D02*
X19792100Y-9587700D01*
X19892100Y-9537700D02*
G75*
G03X19892100Y-9537700I-50000J0D01*
G01*
X19792100Y-9741700D02*
X19892100Y-9841700D01*
X19892100Y-9741700D02*
X19792100Y-9841700D01*
X19892100Y-9791700D02*
G75*
G03X19892100Y-9791700I-50000J0D01*
G01*
X19792100Y-9995700D02*
X19892100Y-10095700D01*
X19892100Y-9995700D02*
X19792100Y-10095700D01*
X19892100Y-10045700D02*
G75*
G03X19892100Y-10045700I-50000J0D01*
G01*
X14364500Y-10376700D02*
X14464500Y-10476700D01*
X14464500Y-10376700D02*
X14364500Y-10476700D01*
X14464500Y-10426700D02*
G75*
G03X14464500Y-10426700I-50000J0D01*
G01*
X14618500Y-10376700D02*
X14718500Y-10476700D01*
X14718500Y-10376700D02*
X14618500Y-10476700D01*
X14718500Y-10426700D02*
G75*
G03X14718500Y-10426700I-50000J0D01*
G01*
X14872500Y-10376700D02*
X14972500Y-10476700D01*
X14972500Y-10376700D02*
X14872500Y-10476700D01*
X14972500Y-10426700D02*
G75*
G03X14972500Y-10426700I-50000J0D01*
G01*
X19971500Y-10819200D02*
X20091500Y-10939200D01*
X20091500Y-10819200D02*
X19971500Y-10939200D01*
X20031500Y-10819200D02*
X20031500Y-10939200D01*
X19971500Y-10879200D02*
X20091500Y-10879200D01*
X19971500Y-11819200D02*
X20091500Y-11939200D01*
X20091500Y-11819200D02*
X19971500Y-11939200D01*
X20031500Y-11819200D02*
X20031500Y-11939200D01*
X19971500Y-11879200D02*
X20091500Y-11879200D01*
X20421500Y-10819200D02*
X20541500Y-10939200D01*
X20541500Y-10819200D02*
X20421500Y-10939200D01*
X20481500Y-10819200D02*
X20481500Y-10939200D01*
X20421500Y-10879200D02*
X20541500Y-10879200D01*
X20421500Y-11819200D02*
X20541500Y-11939200D01*
X20541500Y-11819200D02*
X20421500Y-11939200D01*
X20481500Y-11819200D02*
X20481500Y-11939200D01*
X20421500Y-11879200D02*
X20541500Y-11879200D01*
X19971500Y-12394000D02*
X20091500Y-12514000D01*
X20091500Y-12394000D02*
X19971500Y-12514000D01*
X20031500Y-12394000D02*
X20031500Y-12514000D01*
X19971500Y-12454000D02*
X20091500Y-12454000D01*
X19971500Y-13394000D02*
X20091500Y-13514000D01*
X20091500Y-13394000D02*
X19971500Y-13514000D01*
X20031500Y-13394000D02*
X20031500Y-13514000D01*
X19971500Y-13454000D02*
X20091500Y-13454000D01*
X20421500Y-12394000D02*
X20541500Y-12514000D01*
X20541500Y-12394000D02*
X20421500Y-12514000D01*
X20481500Y-12394000D02*
X20481500Y-12514000D01*
X20421500Y-12454000D02*
X20541500Y-12454000D01*
X20421500Y-13394000D02*
X20541500Y-13514000D01*
X20541500Y-13394000D02*
X20421500Y-13514000D01*
X20481500Y-13394000D02*
X20481500Y-13514000D01*
X20421500Y-13454000D02*
X20541500Y-13454000D01*
X19092100Y-10281200D02*
X19232100Y-10421200D01*
X19232100Y-10281200D02*
X19092100Y-10421200D01*
X19211598Y-10400698D02*
X19211598Y-10301702D01*
X19112602Y-10301702D01*
X19112602Y-10400698D01*
X19211598Y-10400698D01*
X20732100Y-8781200D02*
X20872100Y-8921200D01*
X20872100Y-8781200D02*
X20732100Y-8921200D01*
X20851598Y-8900698D02*
X20851598Y-8801702D01*
X20752602Y-8801702D01*
X20752602Y-8900698D01*
X20851598Y-8900698D01*
X7019800Y-13291600D02*
X7309800Y-13581600D01*
X7309800Y-13291600D02*
X7019800Y-13581600D01*
X7164800Y-13581600D02*
X7309800Y-13436600D01*
X7164800Y-13291600D01*
X7019800Y-13436600D01*
X7164800Y-13581600D01*
X22528000Y-4400000D02*
X22528000Y-4710000D01*
X22373000Y-4555000D02*
X22683000Y-4555000D01*
X22683000Y-4555000D02*
G75*
G03X22683000Y-4555000I-155000J0D01*
G01*
X22528000Y-13290000D02*
X22528000Y-13600000D01*
X22373000Y-13445000D02*
X22683000Y-13445000D01*
X22683000Y-13445000D02*
G75*
G03X22683000Y-13445000I-155000J0D01*
G01*
X20597309Y-9149909D02*
X20597309Y-8909491D01*
X20356891Y-8909491D01*
X20356891Y-9149909D01*
X20597309Y-9149909D01*
X20647100Y-9029700D02*
G75*
G03X20647100Y-9029700I-170000J0D01*
G01*
X20597309Y-10292909D02*
X20597309Y-10052491D01*
X20356891Y-10052491D01*
X20356891Y-10292909D01*
X20597309Y-10292909D01*
X20647100Y-10172700D02*
G75*
G03X20647100Y-10172700I-170000J0D01*
G01*
D12*
X7083928Y-14468214D02*
X7083928Y-14168214D01*
X7155357Y-14168214D01*
X7198214Y-14182500D01*
X7226786Y-14211071D01*
X7241071Y-14239643D01*
X7255357Y-14296786D01*
X7255357Y-14339643D01*
X7241071Y-14396786D01*
X7226786Y-14425357D01*
X7198214Y-14453929D01*
X7155357Y-14468214D01*
X7083928Y-14468214D01*
X7383928Y-14468214D02*
X7383928Y-14268214D01*
X7383928Y-14325357D02*
X7398214Y-14296786D01*
X7412500Y-14282500D01*
X7441071Y-14268214D01*
X7469643Y-14268214D01*
X7569643Y-14468214D02*
X7569643Y-14268214D01*
X7569643Y-14168214D02*
X7555357Y-14182500D01*
X7569643Y-14196786D01*
X7583928Y-14182500D01*
X7569643Y-14168214D01*
X7569643Y-14196786D01*
X7755357Y-14468214D02*
X7726786Y-14453929D01*
X7712500Y-14425357D01*
X7712500Y-14168214D01*
X7912500Y-14468214D02*
X7883928Y-14453929D01*
X7869643Y-14425357D01*
X7869643Y-14168214D01*
X8255357Y-14468214D02*
X8255357Y-14168214D01*
X8355357Y-14382500D01*
X8455357Y-14168214D01*
X8455357Y-14468214D01*
X8726786Y-14468214D02*
X8726786Y-14311071D01*
X8712500Y-14282500D01*
X8683928Y-14268214D01*
X8626786Y-14268214D01*
X8598214Y-14282500D01*
X8726786Y-14453929D02*
X8698214Y-14468214D01*
X8626786Y-14468214D01*
X8598214Y-14453929D01*
X8583928Y-14425357D01*
X8583928Y-14396786D01*
X8598214Y-14368214D01*
X8626786Y-14353929D01*
X8698214Y-14353929D01*
X8726786Y-14339643D01*
X8869643Y-14268214D02*
X8869643Y-14568214D01*
X8869643Y-14282500D02*
X8898214Y-14268214D01*
X8955357Y-14268214D01*
X8983928Y-14282500D01*
X8998214Y-14296786D01*
X9012500Y-14325357D01*
X9012500Y-14411071D01*
X8998214Y-14439643D01*
X8983928Y-14453929D01*
X8955357Y-14468214D01*
X8898214Y-14468214D01*
X8869643Y-14453929D01*
X9141071Y-14439643D02*
X9155357Y-14453929D01*
X9141071Y-14468214D01*
X9126786Y-14453929D01*
X9141071Y-14439643D01*
X9141071Y-14468214D01*
X9141071Y-14282500D02*
X9155357Y-14296786D01*
X9141071Y-14311071D01*
X9126786Y-14296786D01*
X9141071Y-14282500D01*
X9141071Y-14311071D01*
X6777500Y-14952500D02*
X6797500Y-14972500D01*
X6797500Y-14952500D02*
X6777500Y-14972500D01*
X7141071Y-14798214D02*
X7169643Y-14798214D01*
X7198214Y-14812500D01*
X7212500Y-14826786D01*
X7226786Y-14855357D01*
X7241071Y-14912500D01*
X7241071Y-14983929D01*
X7226786Y-15041071D01*
X7212500Y-15069643D01*
X7198214Y-15083929D01*
X7169643Y-15098214D01*
X7141071Y-15098214D01*
X7112500Y-15083929D01*
X7098214Y-15069643D01*
X7083928Y-15041071D01*
X7069643Y-14983929D01*
X7069643Y-14912500D01*
X7083928Y-14855357D01*
X7098214Y-14826786D01*
X7112500Y-14812500D01*
X7141071Y-14798214D01*
X7369643Y-15069643D02*
X7383928Y-15083929D01*
X7369643Y-15098214D01*
X7355357Y-15083929D01*
X7369643Y-15069643D01*
X7369643Y-15098214D01*
X7498214Y-14826786D02*
X7512500Y-14812500D01*
X7541071Y-14798214D01*
X7612500Y-14798214D01*
X7641071Y-14812500D01*
X7655357Y-14826786D01*
X7669643Y-14855357D01*
X7669643Y-14883929D01*
X7655357Y-14926786D01*
X7483928Y-15098214D01*
X7669643Y-15098214D01*
X7855357Y-14798214D02*
X7883928Y-14798214D01*
X7912500Y-14812500D01*
X7926786Y-14826786D01*
X7941071Y-14855357D01*
X7955357Y-14912500D01*
X7955357Y-14983929D01*
X7941071Y-15041071D01*
X7926786Y-15069643D01*
X7912500Y-15083929D01*
X7883928Y-15098214D01*
X7855357Y-15098214D01*
X7826786Y-15083929D01*
X7812500Y-15069643D01*
X7798214Y-15041071D01*
X7783928Y-14983929D01*
X7783928Y-14912500D01*
X7798214Y-14855357D01*
X7812500Y-14826786D01*
X7826786Y-14812500D01*
X7855357Y-14798214D01*
X8083928Y-15098214D02*
X8083928Y-14898214D01*
X8083928Y-14926786D02*
X8098214Y-14912500D01*
X8126786Y-14898214D01*
X8169643Y-14898214D01*
X8198214Y-14912500D01*
X8212500Y-14941071D01*
X8212500Y-15098214D01*
X8212500Y-14941071D02*
X8226786Y-14912500D01*
X8255357Y-14898214D01*
X8298214Y-14898214D01*
X8326786Y-14912500D01*
X8341071Y-14941071D01*
X8341071Y-15098214D01*
X8483928Y-15098214D02*
X8483928Y-14898214D01*
X8483928Y-14926786D02*
X8498214Y-14912500D01*
X8526786Y-14898214D01*
X8569643Y-14898214D01*
X8598214Y-14912500D01*
X8612500Y-14941071D01*
X8612500Y-15098214D01*
X8612500Y-14941071D02*
X8626786Y-14912500D01*
X8655357Y-14898214D01*
X8698214Y-14898214D01*
X8726786Y-14912500D01*
X8741071Y-14941071D01*
X8741071Y-15098214D01*
X9326786Y-14783929D02*
X9069643Y-15169643D01*
X9712500Y-14798214D02*
X9741071Y-14798214D01*
X9769643Y-14812500D01*
X9783928Y-14826786D01*
X9798214Y-14855357D01*
X9812500Y-14912500D01*
X9812500Y-14983929D01*
X9798214Y-15041071D01*
X9783928Y-15069643D01*
X9769643Y-15083929D01*
X9741071Y-15098214D01*
X9712500Y-15098214D01*
X9683928Y-15083929D01*
X9669643Y-15069643D01*
X9655357Y-15041071D01*
X9641071Y-14983929D01*
X9641071Y-14912500D01*
X9655357Y-14855357D01*
X9669643Y-14826786D01*
X9683928Y-14812500D01*
X9712500Y-14798214D01*
X9941071Y-15069643D02*
X9955357Y-15083929D01*
X9941071Y-15098214D01*
X9926786Y-15083929D01*
X9941071Y-15069643D01*
X9941071Y-15098214D01*
X10141071Y-14798214D02*
X10169643Y-14798214D01*
X10198214Y-14812500D01*
X10212500Y-14826786D01*
X10226786Y-14855357D01*
X10241071Y-14912500D01*
X10241071Y-14983929D01*
X10226786Y-15041071D01*
X10212500Y-15069643D01*
X10198214Y-15083929D01*
X10169643Y-15098214D01*
X10141071Y-15098214D01*
X10112500Y-15083929D01*
X10098214Y-15069643D01*
X10083928Y-15041071D01*
X10069643Y-14983929D01*
X10069643Y-14912500D01*
X10083928Y-14855357D01*
X10098214Y-14826786D01*
X10112500Y-14812500D01*
X10141071Y-14798214D01*
X10426786Y-14798214D02*
X10455357Y-14798214D01*
X10483928Y-14812500D01*
X10498214Y-14826786D01*
X10512500Y-14855357D01*
X10526786Y-14912500D01*
X10526786Y-14983929D01*
X10512500Y-15041071D01*
X10498214Y-15069643D01*
X10483928Y-15083929D01*
X10455357Y-15098214D01*
X10426786Y-15098214D01*
X10398214Y-15083929D01*
X10383928Y-15069643D01*
X10369643Y-15041071D01*
X10355357Y-14983929D01*
X10355357Y-14912500D01*
X10369643Y-14855357D01*
X10383928Y-14826786D01*
X10398214Y-14812500D01*
X10426786Y-14798214D01*
X10698214Y-14926786D02*
X10669643Y-14912500D01*
X10655357Y-14898214D01*
X10641071Y-14869643D01*
X10641071Y-14855357D01*
X10655357Y-14826786D01*
X10669643Y-14812500D01*
X10698214Y-14798214D01*
X10755357Y-14798214D01*
X10783928Y-14812500D01*
X10798214Y-14826786D01*
X10812500Y-14855357D01*
X10812500Y-14869643D01*
X10798214Y-14898214D01*
X10783928Y-14912500D01*
X10755357Y-14926786D01*
X10698214Y-14926786D01*
X10669643Y-14941071D01*
X10655357Y-14955357D01*
X10641071Y-14983929D01*
X10641071Y-15041071D01*
X10655357Y-15069643D01*
X10669643Y-15083929D01*
X10698214Y-15098214D01*
X10755357Y-15098214D01*
X10783928Y-15083929D01*
X10798214Y-15069643D01*
X10812500Y-15041071D01*
X10812500Y-14983929D01*
X10798214Y-14955357D01*
X10783928Y-14941071D01*
X10755357Y-14926786D01*
X10926786Y-14798214D02*
X10926786Y-14855357D01*
X11041071Y-14798214D02*
X11041071Y-14855357D01*
X11483928Y-15212500D02*
X11469643Y-15198214D01*
X11441071Y-15155357D01*
X11426786Y-15126786D01*
X11412500Y-15083929D01*
X11398214Y-15012500D01*
X11398214Y-14955357D01*
X11412500Y-14883929D01*
X11426786Y-14841071D01*
X11441071Y-14812500D01*
X11469643Y-14769643D01*
X11483928Y-14755357D01*
X11741071Y-14798214D02*
X11598214Y-14798214D01*
X11583928Y-14941071D01*
X11598214Y-14926786D01*
X11626786Y-14912500D01*
X11698214Y-14912500D01*
X11726786Y-14926786D01*
X11741071Y-14941071D01*
X11755357Y-14969643D01*
X11755357Y-15041071D01*
X11741071Y-15069643D01*
X11726786Y-15083929D01*
X11698214Y-15098214D01*
X11626786Y-15098214D01*
X11598214Y-15083929D01*
X11583928Y-15069643D01*
X12012500Y-14798214D02*
X11955357Y-14798214D01*
X11926786Y-14812500D01*
X11912500Y-14826786D01*
X11883928Y-14869643D01*
X11869643Y-14926786D01*
X11869643Y-15041071D01*
X11883928Y-15069643D01*
X11898214Y-15083929D01*
X11926786Y-15098214D01*
X11983928Y-15098214D01*
X12012500Y-15083929D01*
X12026786Y-15069643D01*
X12041071Y-15041071D01*
X12041071Y-14969643D01*
X12026786Y-14941071D01*
X12012500Y-14926786D01*
X11983928Y-14912500D01*
X11926786Y-14912500D01*
X11898214Y-14926786D01*
X11883928Y-14941071D01*
X11869643Y-14969643D01*
X12312500Y-14798214D02*
X12169643Y-14798214D01*
X12155357Y-14941071D01*
X12169643Y-14926786D01*
X12198214Y-14912500D01*
X12269643Y-14912500D01*
X12298214Y-14926786D01*
X12312500Y-14941071D01*
X12326786Y-14969643D01*
X12326786Y-15041071D01*
X12312500Y-15069643D01*
X12298214Y-15083929D01*
X12269643Y-15098214D01*
X12198214Y-15098214D01*
X12169643Y-15083929D01*
X12155357Y-15069643D01*
X12683928Y-15098214D02*
X12683928Y-14798214D01*
X12812500Y-15098214D02*
X12812500Y-14941071D01*
X12798214Y-14912500D01*
X12769643Y-14898214D01*
X12726786Y-14898214D01*
X12698214Y-14912500D01*
X12683928Y-14926786D01*
X12998214Y-15098214D02*
X12969643Y-15083929D01*
X12955357Y-15069643D01*
X12941071Y-15041071D01*
X12941071Y-14955357D01*
X12955357Y-14926786D01*
X12969643Y-14912500D01*
X12998214Y-14898214D01*
X13041071Y-14898214D01*
X13069643Y-14912500D01*
X13083928Y-14926786D01*
X13098214Y-14955357D01*
X13098214Y-15041071D01*
X13083928Y-15069643D01*
X13069643Y-15083929D01*
X13041071Y-15098214D01*
X12998214Y-15098214D01*
X13269643Y-15098214D02*
X13241071Y-15083929D01*
X13226786Y-15055357D01*
X13226786Y-14798214D01*
X13498214Y-15083929D02*
X13469643Y-15098214D01*
X13412500Y-15098214D01*
X13383928Y-15083929D01*
X13369643Y-15055357D01*
X13369643Y-14941071D01*
X13383928Y-14912500D01*
X13412500Y-14898214D01*
X13469643Y-14898214D01*
X13498214Y-14912500D01*
X13512500Y-14941071D01*
X13512500Y-14969643D01*
X13369643Y-14998214D01*
X13626786Y-15083929D02*
X13655357Y-15098214D01*
X13712500Y-15098214D01*
X13741071Y-15083929D01*
X13755357Y-15055357D01*
X13755357Y-15041071D01*
X13741071Y-15012500D01*
X13712500Y-14998214D01*
X13669643Y-14998214D01*
X13641071Y-14983929D01*
X13626786Y-14955357D01*
X13626786Y-14941071D01*
X13641071Y-14912500D01*
X13669643Y-14898214D01*
X13712500Y-14898214D01*
X13741071Y-14912500D01*
X13855357Y-15212500D02*
X13869643Y-15198214D01*
X13898214Y-15155357D01*
X13912500Y-15126786D01*
X13926786Y-15083929D01*
X13941071Y-15012500D01*
X13941071Y-14955357D01*
X13926786Y-14883929D01*
X13912500Y-14841071D01*
X13898214Y-14812500D01*
X13869643Y-14769643D01*
X13855357Y-14755357D01*
X6797500Y-15358500D02*
G75*
G03X6797500Y-15358500I-25000J0D01*
G01*
X7141071Y-15194214D02*
X7169643Y-15194214D01*
X7198214Y-15208500D01*
X7212500Y-15222786D01*
X7226786Y-15251357D01*
X7241071Y-15308500D01*
X7241071Y-15379929D01*
X7226786Y-15437071D01*
X7212500Y-15465643D01*
X7198214Y-15479929D01*
X7169643Y-15494214D01*
X7141071Y-15494214D01*
X7112500Y-15479929D01*
X7098214Y-15465643D01*
X7083928Y-15437071D01*
X7069643Y-15379929D01*
X7069643Y-15308500D01*
X7083928Y-15251357D01*
X7098214Y-15222786D01*
X7112500Y-15208500D01*
X7141071Y-15194214D01*
X7369643Y-15465643D02*
X7383928Y-15479929D01*
X7369643Y-15494214D01*
X7355357Y-15479929D01*
X7369643Y-15465643D01*
X7369643Y-15494214D01*
X7655357Y-15194214D02*
X7512500Y-15194214D01*
X7498214Y-15337071D01*
X7512500Y-15322786D01*
X7541071Y-15308500D01*
X7612500Y-15308500D01*
X7641071Y-15322786D01*
X7655357Y-15337071D01*
X7669643Y-15365643D01*
X7669643Y-15437071D01*
X7655357Y-15465643D01*
X7641071Y-15479929D01*
X7612500Y-15494214D01*
X7541071Y-15494214D01*
X7512500Y-15479929D01*
X7498214Y-15465643D01*
X7855357Y-15194214D02*
X7883928Y-15194214D01*
X7912500Y-15208500D01*
X7926786Y-15222786D01*
X7941071Y-15251357D01*
X7955357Y-15308500D01*
X7955357Y-15379929D01*
X7941071Y-15437071D01*
X7926786Y-15465643D01*
X7912500Y-15479929D01*
X7883928Y-15494214D01*
X7855357Y-15494214D01*
X7826786Y-15479929D01*
X7812500Y-15465643D01*
X7798214Y-15437071D01*
X7783928Y-15379929D01*
X7783928Y-15308500D01*
X7798214Y-15251357D01*
X7812500Y-15222786D01*
X7826786Y-15208500D01*
X7855357Y-15194214D01*
X8083928Y-15494214D02*
X8083928Y-15294214D01*
X8083928Y-15322786D02*
X8098214Y-15308500D01*
X8126786Y-15294214D01*
X8169643Y-15294214D01*
X8198214Y-15308500D01*
X8212500Y-15337071D01*
X8212500Y-15494214D01*
X8212500Y-15337071D02*
X8226786Y-15308500D01*
X8255357Y-15294214D01*
X8298214Y-15294214D01*
X8326786Y-15308500D01*
X8341071Y-15337071D01*
X8341071Y-15494214D01*
X8483928Y-15494214D02*
X8483928Y-15294214D01*
X8483928Y-15322786D02*
X8498214Y-15308500D01*
X8526786Y-15294214D01*
X8569643Y-15294214D01*
X8598214Y-15308500D01*
X8612500Y-15337071D01*
X8612500Y-15494214D01*
X8612500Y-15337071D02*
X8626786Y-15308500D01*
X8655357Y-15294214D01*
X8698214Y-15294214D01*
X8726786Y-15308500D01*
X8741071Y-15337071D01*
X8741071Y-15494214D01*
X9326786Y-15179929D02*
X9069643Y-15565643D01*
X9712500Y-15194214D02*
X9741071Y-15194214D01*
X9769643Y-15208500D01*
X9783928Y-15222786D01*
X9798214Y-15251357D01*
X9812500Y-15308500D01*
X9812500Y-15379929D01*
X9798214Y-15437071D01*
X9783928Y-15465643D01*
X9769643Y-15479929D01*
X9741071Y-15494214D01*
X9712500Y-15494214D01*
X9683928Y-15479929D01*
X9669643Y-15465643D01*
X9655357Y-15437071D01*
X9641071Y-15379929D01*
X9641071Y-15308500D01*
X9655357Y-15251357D01*
X9669643Y-15222786D01*
X9683928Y-15208500D01*
X9712500Y-15194214D01*
X9941071Y-15465643D02*
X9955357Y-15479929D01*
X9941071Y-15494214D01*
X9926786Y-15479929D01*
X9941071Y-15465643D01*
X9941071Y-15494214D01*
X10141071Y-15194214D02*
X10169643Y-15194214D01*
X10198214Y-15208500D01*
X10212500Y-15222786D01*
X10226786Y-15251357D01*
X10241071Y-15308500D01*
X10241071Y-15379929D01*
X10226786Y-15437071D01*
X10212500Y-15465643D01*
X10198214Y-15479929D01*
X10169643Y-15494214D01*
X10141071Y-15494214D01*
X10112500Y-15479929D01*
X10098214Y-15465643D01*
X10083928Y-15437071D01*
X10069643Y-15379929D01*
X10069643Y-15308500D01*
X10083928Y-15251357D01*
X10098214Y-15222786D01*
X10112500Y-15208500D01*
X10141071Y-15194214D01*
X10355357Y-15222786D02*
X10369643Y-15208500D01*
X10398214Y-15194214D01*
X10469643Y-15194214D01*
X10498214Y-15208500D01*
X10512500Y-15222786D01*
X10526786Y-15251357D01*
X10526786Y-15279929D01*
X10512500Y-15322786D01*
X10341071Y-15494214D01*
X10526786Y-15494214D01*
X10712500Y-15194214D02*
X10741071Y-15194214D01*
X10769643Y-15208500D01*
X10783928Y-15222786D01*
X10798214Y-15251357D01*
X10812500Y-15308500D01*
X10812500Y-15379929D01*
X10798214Y-15437071D01*
X10783928Y-15465643D01*
X10769643Y-15479929D01*
X10741071Y-15494214D01*
X10712500Y-15494214D01*
X10683928Y-15479929D01*
X10669643Y-15465643D01*
X10655357Y-15437071D01*
X10641071Y-15379929D01*
X10641071Y-15308500D01*
X10655357Y-15251357D01*
X10669643Y-15222786D01*
X10683928Y-15208500D01*
X10712500Y-15194214D01*
X10926786Y-15194214D02*
X10926786Y-15251357D01*
X11041071Y-15194214D02*
X11041071Y-15251357D01*
X11483928Y-15608500D02*
X11469643Y-15594214D01*
X11441071Y-15551357D01*
X11426786Y-15522786D01*
X11412500Y-15479929D01*
X11398214Y-15408500D01*
X11398214Y-15351357D01*
X11412500Y-15279929D01*
X11426786Y-15237071D01*
X11441071Y-15208500D01*
X11469643Y-15165643D01*
X11483928Y-15151357D01*
X11583928Y-15222786D02*
X11598214Y-15208500D01*
X11626786Y-15194214D01*
X11698214Y-15194214D01*
X11726786Y-15208500D01*
X11741071Y-15222786D01*
X11755357Y-15251357D01*
X11755357Y-15279929D01*
X11741071Y-15322786D01*
X11569643Y-15494214D01*
X11755357Y-15494214D01*
X11855357Y-15194214D02*
X12055357Y-15194214D01*
X11926786Y-15494214D01*
X12326786Y-15494214D02*
X12155357Y-15494214D01*
X12241071Y-15494214D02*
X12241071Y-15194214D01*
X12212500Y-15237071D01*
X12183928Y-15265643D01*
X12155357Y-15279929D01*
X12683928Y-15494214D02*
X12683928Y-15194214D01*
X12812500Y-15494214D02*
X12812500Y-15337071D01*
X12798214Y-15308500D01*
X12769643Y-15294214D01*
X12726786Y-15294214D01*
X12698214Y-15308500D01*
X12683928Y-15322786D01*
X12998214Y-15494214D02*
X12969643Y-15479929D01*
X12955357Y-15465643D01*
X12941071Y-15437071D01*
X12941071Y-15351357D01*
X12955357Y-15322786D01*
X12969643Y-15308500D01*
X12998214Y-15294214D01*
X13041071Y-15294214D01*
X13069643Y-15308500D01*
X13083928Y-15322786D01*
X13098214Y-15351357D01*
X13098214Y-15437071D01*
X13083928Y-15465643D01*
X13069643Y-15479929D01*
X13041071Y-15494214D01*
X12998214Y-15494214D01*
X13269643Y-15494214D02*
X13241071Y-15479929D01*
X13226786Y-15451357D01*
X13226786Y-15194214D01*
X13498214Y-15479929D02*
X13469643Y-15494214D01*
X13412500Y-15494214D01*
X13383928Y-15479929D01*
X13369643Y-15451357D01*
X13369643Y-15337071D01*
X13383928Y-15308500D01*
X13412500Y-15294214D01*
X13469643Y-15294214D01*
X13498214Y-15308500D01*
X13512500Y-15337071D01*
X13512500Y-15365643D01*
X13369643Y-15394214D01*
X13626786Y-15479929D02*
X13655357Y-15494214D01*
X13712500Y-15494214D01*
X13741071Y-15479929D01*
X13755357Y-15451357D01*
X13755357Y-15437071D01*
X13741071Y-15408500D01*
X13712500Y-15394214D01*
X13669643Y-15394214D01*
X13641071Y-15379929D01*
X13626786Y-15351357D01*
X13626786Y-15337071D01*
X13641071Y-15308500D01*
X13669643Y-15294214D01*
X13712500Y-15294214D01*
X13741071Y-15308500D01*
X14112500Y-15379929D02*
X14341071Y-15379929D01*
X14226786Y-15494214D02*
X14226786Y-15265643D01*
X14683928Y-15194214D02*
X14869643Y-15194214D01*
X14769643Y-15308500D01*
X14812500Y-15308500D01*
X14841071Y-15322786D01*
X14855357Y-15337071D01*
X14869643Y-15365643D01*
X14869643Y-15437071D01*
X14855357Y-15465643D01*
X14841071Y-15479929D01*
X14812500Y-15494214D01*
X14726786Y-15494214D01*
X14698214Y-15479929D01*
X14683928Y-15465643D01*
X15212500Y-15479929D02*
X15241071Y-15494214D01*
X15298214Y-15494214D01*
X15326786Y-15479929D01*
X15341071Y-15451357D01*
X15341071Y-15437071D01*
X15326786Y-15408500D01*
X15298214Y-15394214D01*
X15255357Y-15394214D01*
X15226786Y-15379929D01*
X15212500Y-15351357D01*
X15212500Y-15337071D01*
X15226786Y-15308500D01*
X15255357Y-15294214D01*
X15298214Y-15294214D01*
X15326786Y-15308500D01*
X15512500Y-15494214D02*
X15483928Y-15479929D01*
X15469643Y-15451357D01*
X15469643Y-15194214D01*
X15669643Y-15494214D02*
X15641071Y-15479929D01*
X15626786Y-15465643D01*
X15612500Y-15437071D01*
X15612500Y-15351357D01*
X15626786Y-15322786D01*
X15641071Y-15308500D01*
X15669643Y-15294214D01*
X15712500Y-15294214D01*
X15741071Y-15308500D01*
X15755357Y-15322786D01*
X15769643Y-15351357D01*
X15769643Y-15437071D01*
X15755357Y-15465643D01*
X15741071Y-15479929D01*
X15712500Y-15494214D01*
X15669643Y-15494214D01*
X15855357Y-15294214D02*
X15969643Y-15294214D01*
X15898214Y-15194214D02*
X15898214Y-15451357D01*
X15912500Y-15479929D01*
X15941071Y-15494214D01*
X15969643Y-15494214D01*
X16055357Y-15479929D02*
X16083928Y-15494214D01*
X16141071Y-15494214D01*
X16169643Y-15479929D01*
X16183928Y-15451357D01*
X16183928Y-15437071D01*
X16169643Y-15408500D01*
X16141071Y-15394214D01*
X16098214Y-15394214D01*
X16069643Y-15379929D01*
X16055357Y-15351357D01*
X16055357Y-15337071D01*
X16069643Y-15308500D01*
X16098214Y-15294214D01*
X16141071Y-15294214D01*
X16169643Y-15308500D01*
X16283928Y-15608500D02*
X16298214Y-15594214D01*
X16326786Y-15551357D01*
X16341071Y-15522786D01*
X16355357Y-15479929D01*
X16369643Y-15408500D01*
X16369643Y-15351357D01*
X16355357Y-15279929D01*
X16341071Y-15237071D01*
X16326786Y-15208500D01*
X16298214Y-15165643D01*
X16283928Y-15151357D01*
X6767500Y-15724500D02*
X6767500Y-15784500D01*
X6737500Y-15754500D02*
X6797500Y-15754500D01*
X7141071Y-15590214D02*
X7169643Y-15590214D01*
X7198214Y-15604500D01*
X7212500Y-15618786D01*
X7226786Y-15647357D01*
X7241071Y-15704500D01*
X7241071Y-15775929D01*
X7226786Y-15833071D01*
X7212500Y-15861643D01*
X7198214Y-15875929D01*
X7169643Y-15890214D01*
X7141071Y-15890214D01*
X7112500Y-15875929D01*
X7098214Y-15861643D01*
X7083928Y-15833071D01*
X7069643Y-15775929D01*
X7069643Y-15704500D01*
X7083928Y-15647357D01*
X7098214Y-15618786D01*
X7112500Y-15604500D01*
X7141071Y-15590214D01*
X7369643Y-15861643D02*
X7383928Y-15875929D01*
X7369643Y-15890214D01*
X7355357Y-15875929D01*
X7369643Y-15861643D01*
X7369643Y-15890214D01*
X7641071Y-15590214D02*
X7583928Y-15590214D01*
X7555357Y-15604500D01*
X7541071Y-15618786D01*
X7512500Y-15661643D01*
X7498214Y-15718786D01*
X7498214Y-15833071D01*
X7512500Y-15861643D01*
X7526786Y-15875929D01*
X7555357Y-15890214D01*
X7612500Y-15890214D01*
X7641071Y-15875929D01*
X7655357Y-15861643D01*
X7669643Y-15833071D01*
X7669643Y-15761643D01*
X7655357Y-15733071D01*
X7641071Y-15718786D01*
X7612500Y-15704500D01*
X7555357Y-15704500D01*
X7526786Y-15718786D01*
X7512500Y-15733071D01*
X7498214Y-15761643D01*
X7855357Y-15590214D02*
X7883928Y-15590214D01*
X7912500Y-15604500D01*
X7926786Y-15618786D01*
X7941071Y-15647357D01*
X7955357Y-15704500D01*
X7955357Y-15775929D01*
X7941071Y-15833071D01*
X7926786Y-15861643D01*
X7912500Y-15875929D01*
X7883928Y-15890214D01*
X7855357Y-15890214D01*
X7826786Y-15875929D01*
X7812500Y-15861643D01*
X7798214Y-15833071D01*
X7783928Y-15775929D01*
X7783928Y-15704500D01*
X7798214Y-15647357D01*
X7812500Y-15618786D01*
X7826786Y-15604500D01*
X7855357Y-15590214D01*
X8083928Y-15890214D02*
X8083928Y-15690214D01*
X8083928Y-15718786D02*
X8098214Y-15704500D01*
X8126786Y-15690214D01*
X8169643Y-15690214D01*
X8198214Y-15704500D01*
X8212500Y-15733071D01*
X8212500Y-15890214D01*
X8212500Y-15733071D02*
X8226786Y-15704500D01*
X8255357Y-15690214D01*
X8298214Y-15690214D01*
X8326786Y-15704500D01*
X8341071Y-15733071D01*
X8341071Y-15890214D01*
X8483928Y-15890214D02*
X8483928Y-15690214D01*
X8483928Y-15718786D02*
X8498214Y-15704500D01*
X8526786Y-15690214D01*
X8569643Y-15690214D01*
X8598214Y-15704500D01*
X8612500Y-15733071D01*
X8612500Y-15890214D01*
X8612500Y-15733071D02*
X8626786Y-15704500D01*
X8655357Y-15690214D01*
X8698214Y-15690214D01*
X8726786Y-15704500D01*
X8741071Y-15733071D01*
X8741071Y-15890214D01*
X9326786Y-15575929D02*
X9069643Y-15961643D01*
X9712500Y-15590214D02*
X9741071Y-15590214D01*
X9769643Y-15604500D01*
X9783928Y-15618786D01*
X9798214Y-15647357D01*
X9812500Y-15704500D01*
X9812500Y-15775929D01*
X9798214Y-15833071D01*
X9783928Y-15861643D01*
X9769643Y-15875929D01*
X9741071Y-15890214D01*
X9712500Y-15890214D01*
X9683928Y-15875929D01*
X9669643Y-15861643D01*
X9655357Y-15833071D01*
X9641071Y-15775929D01*
X9641071Y-15704500D01*
X9655357Y-15647357D01*
X9669643Y-15618786D01*
X9683928Y-15604500D01*
X9712500Y-15590214D01*
X9941071Y-15861643D02*
X9955357Y-15875929D01*
X9941071Y-15890214D01*
X9926786Y-15875929D01*
X9941071Y-15861643D01*
X9941071Y-15890214D01*
X10141071Y-15590214D02*
X10169643Y-15590214D01*
X10198214Y-15604500D01*
X10212500Y-15618786D01*
X10226786Y-15647357D01*
X10241071Y-15704500D01*
X10241071Y-15775929D01*
X10226786Y-15833071D01*
X10212500Y-15861643D01*
X10198214Y-15875929D01*
X10169643Y-15890214D01*
X10141071Y-15890214D01*
X10112500Y-15875929D01*
X10098214Y-15861643D01*
X10083928Y-15833071D01*
X10069643Y-15775929D01*
X10069643Y-15704500D01*
X10083928Y-15647357D01*
X10098214Y-15618786D01*
X10112500Y-15604500D01*
X10141071Y-15590214D01*
X10355357Y-15618786D02*
X10369643Y-15604500D01*
X10398214Y-15590214D01*
X10469643Y-15590214D01*
X10498214Y-15604500D01*
X10512500Y-15618786D01*
X10526786Y-15647357D01*
X10526786Y-15675929D01*
X10512500Y-15718786D01*
X10341071Y-15890214D01*
X10526786Y-15890214D01*
X10783928Y-15690214D02*
X10783928Y-15890214D01*
X10712500Y-15575929D02*
X10641071Y-15790214D01*
X10826786Y-15790214D01*
X10926786Y-15590214D02*
X10926786Y-15647357D01*
X11041071Y-15590214D02*
X11041071Y-15647357D01*
X11483928Y-16004500D02*
X11469643Y-15990214D01*
X11441071Y-15947357D01*
X11426786Y-15918786D01*
X11412500Y-15875929D01*
X11398214Y-15804500D01*
X11398214Y-15747357D01*
X11412500Y-15675929D01*
X11426786Y-15633071D01*
X11441071Y-15604500D01*
X11469643Y-15561643D01*
X11483928Y-15547357D01*
X11755357Y-15890214D02*
X11583928Y-15890214D01*
X11669643Y-15890214D02*
X11669643Y-15590214D01*
X11641071Y-15633071D01*
X11612500Y-15661643D01*
X11583928Y-15675929D01*
X11869643Y-15618786D02*
X11883928Y-15604500D01*
X11912500Y-15590214D01*
X11983928Y-15590214D01*
X12012500Y-15604500D01*
X12026786Y-15618786D01*
X12041071Y-15647357D01*
X12041071Y-15675929D01*
X12026786Y-15718786D01*
X11855357Y-15890214D01*
X12041071Y-15890214D01*
X12398214Y-15890214D02*
X12398214Y-15590214D01*
X12526786Y-15890214D02*
X12526786Y-15733071D01*
X12512500Y-15704500D01*
X12483928Y-15690214D01*
X12441071Y-15690214D01*
X12412500Y-15704500D01*
X12398214Y-15718786D01*
X12712500Y-15890214D02*
X12683928Y-15875929D01*
X12669643Y-15861643D01*
X12655357Y-15833071D01*
X12655357Y-15747357D01*
X12669643Y-15718786D01*
X12683928Y-15704500D01*
X12712500Y-15690214D01*
X12755357Y-15690214D01*
X12783928Y-15704500D01*
X12798214Y-15718786D01*
X12812500Y-15747357D01*
X12812500Y-15833071D01*
X12798214Y-15861643D01*
X12783928Y-15875929D01*
X12755357Y-15890214D01*
X12712500Y-15890214D01*
X12983928Y-15890214D02*
X12955357Y-15875929D01*
X12941071Y-15847357D01*
X12941071Y-15590214D01*
X13212500Y-15875929D02*
X13183928Y-15890214D01*
X13126786Y-15890214D01*
X13098214Y-15875929D01*
X13083928Y-15847357D01*
X13083928Y-15733071D01*
X13098214Y-15704500D01*
X13126786Y-15690214D01*
X13183928Y-15690214D01*
X13212500Y-15704500D01*
X13226786Y-15733071D01*
X13226786Y-15761643D01*
X13083928Y-15790214D01*
X13341071Y-15875929D02*
X13369643Y-15890214D01*
X13426786Y-15890214D01*
X13455357Y-15875929D01*
X13469643Y-15847357D01*
X13469643Y-15833071D01*
X13455357Y-15804500D01*
X13426786Y-15790214D01*
X13383928Y-15790214D01*
X13355357Y-15775929D01*
X13341071Y-15747357D01*
X13341071Y-15733071D01*
X13355357Y-15704500D01*
X13383928Y-15690214D01*
X13426786Y-15690214D01*
X13455357Y-15704500D01*
X13569643Y-16004500D02*
X13583928Y-15990214D01*
X13612500Y-15947357D01*
X13626786Y-15918786D01*
X13641071Y-15875929D01*
X13655357Y-15804500D01*
X13655357Y-15747357D01*
X13641071Y-15675929D01*
X13626786Y-15633071D01*
X13612500Y-15604500D01*
X13583928Y-15561643D01*
X13569643Y-15547357D01*
X6787981Y-16173481D02*
X6787981Y-16127519D01*
X6742019Y-16127519D01*
X6742019Y-16173481D01*
X6787981Y-16173481D01*
X7141071Y-15986214D02*
X7169643Y-15986214D01*
X7198214Y-16000500D01*
X7212500Y-16014786D01*
X7226786Y-16043357D01*
X7241071Y-16100500D01*
X7241071Y-16171929D01*
X7226786Y-16229071D01*
X7212500Y-16257643D01*
X7198214Y-16271929D01*
X7169643Y-16286214D01*
X7141071Y-16286214D01*
X7112500Y-16271929D01*
X7098214Y-16257643D01*
X7083928Y-16229071D01*
X7069643Y-16171929D01*
X7069643Y-16100500D01*
X7083928Y-16043357D01*
X7098214Y-16014786D01*
X7112500Y-16000500D01*
X7141071Y-15986214D01*
X7369643Y-16257643D02*
X7383928Y-16271929D01*
X7369643Y-16286214D01*
X7355357Y-16271929D01*
X7369643Y-16257643D01*
X7369643Y-16286214D01*
X7641071Y-15986214D02*
X7583928Y-15986214D01*
X7555357Y-16000500D01*
X7541071Y-16014786D01*
X7512500Y-16057643D01*
X7498214Y-16114786D01*
X7498214Y-16229071D01*
X7512500Y-16257643D01*
X7526786Y-16271929D01*
X7555357Y-16286214D01*
X7612500Y-16286214D01*
X7641071Y-16271929D01*
X7655357Y-16257643D01*
X7669643Y-16229071D01*
X7669643Y-16157643D01*
X7655357Y-16129071D01*
X7641071Y-16114786D01*
X7612500Y-16100500D01*
X7555357Y-16100500D01*
X7526786Y-16114786D01*
X7512500Y-16129071D01*
X7498214Y-16157643D01*
X7941071Y-15986214D02*
X7798214Y-15986214D01*
X7783928Y-16129071D01*
X7798214Y-16114786D01*
X7826786Y-16100500D01*
X7898214Y-16100500D01*
X7926786Y-16114786D01*
X7941071Y-16129071D01*
X7955357Y-16157643D01*
X7955357Y-16229071D01*
X7941071Y-16257643D01*
X7926786Y-16271929D01*
X7898214Y-16286214D01*
X7826786Y-16286214D01*
X7798214Y-16271929D01*
X7783928Y-16257643D01*
X8083928Y-16286214D02*
X8083928Y-16086214D01*
X8083928Y-16114786D02*
X8098214Y-16100500D01*
X8126786Y-16086214D01*
X8169643Y-16086214D01*
X8198214Y-16100500D01*
X8212500Y-16129071D01*
X8212500Y-16286214D01*
X8212500Y-16129071D02*
X8226786Y-16100500D01*
X8255357Y-16086214D01*
X8298214Y-16086214D01*
X8326786Y-16100500D01*
X8341071Y-16129071D01*
X8341071Y-16286214D01*
X8483928Y-16286214D02*
X8483928Y-16086214D01*
X8483928Y-16114786D02*
X8498214Y-16100500D01*
X8526786Y-16086214D01*
X8569643Y-16086214D01*
X8598214Y-16100500D01*
X8612500Y-16129071D01*
X8612500Y-16286214D01*
X8612500Y-16129071D02*
X8626786Y-16100500D01*
X8655357Y-16086214D01*
X8698214Y-16086214D01*
X8726786Y-16100500D01*
X8741071Y-16129071D01*
X8741071Y-16286214D01*
X9326786Y-15971929D02*
X9069643Y-16357643D01*
X9712500Y-15986214D02*
X9741071Y-15986214D01*
X9769643Y-16000500D01*
X9783928Y-16014786D01*
X9798214Y-16043357D01*
X9812500Y-16100500D01*
X9812500Y-16171929D01*
X9798214Y-16229071D01*
X9783928Y-16257643D01*
X9769643Y-16271929D01*
X9741071Y-16286214D01*
X9712500Y-16286214D01*
X9683928Y-16271929D01*
X9669643Y-16257643D01*
X9655357Y-16229071D01*
X9641071Y-16171929D01*
X9641071Y-16100500D01*
X9655357Y-16043357D01*
X9669643Y-16014786D01*
X9683928Y-16000500D01*
X9712500Y-15986214D01*
X9941071Y-16257643D02*
X9955357Y-16271929D01*
X9941071Y-16286214D01*
X9926786Y-16271929D01*
X9941071Y-16257643D01*
X9941071Y-16286214D01*
X10141071Y-15986214D02*
X10169643Y-15986214D01*
X10198214Y-16000500D01*
X10212500Y-16014786D01*
X10226786Y-16043357D01*
X10241071Y-16100500D01*
X10241071Y-16171929D01*
X10226786Y-16229071D01*
X10212500Y-16257643D01*
X10198214Y-16271929D01*
X10169643Y-16286214D01*
X10141071Y-16286214D01*
X10112500Y-16271929D01*
X10098214Y-16257643D01*
X10083928Y-16229071D01*
X10069643Y-16171929D01*
X10069643Y-16100500D01*
X10083928Y-16043357D01*
X10098214Y-16014786D01*
X10112500Y-16000500D01*
X10141071Y-15986214D01*
X10355357Y-16014786D02*
X10369643Y-16000500D01*
X10398214Y-15986214D01*
X10469643Y-15986214D01*
X10498214Y-16000500D01*
X10512500Y-16014786D01*
X10526786Y-16043357D01*
X10526786Y-16071929D01*
X10512500Y-16114786D01*
X10341071Y-16286214D01*
X10526786Y-16286214D01*
X10783928Y-15986214D02*
X10726786Y-15986214D01*
X10698214Y-16000500D01*
X10683928Y-16014786D01*
X10655357Y-16057643D01*
X10641071Y-16114786D01*
X10641071Y-16229071D01*
X10655357Y-16257643D01*
X10669643Y-16271929D01*
X10698214Y-16286214D01*
X10755357Y-16286214D01*
X10783928Y-16271929D01*
X10798214Y-16257643D01*
X10812500Y-16229071D01*
X10812500Y-16157643D01*
X10798214Y-16129071D01*
X10783928Y-16114786D01*
X10755357Y-16100500D01*
X10698214Y-16100500D01*
X10669643Y-16114786D01*
X10655357Y-16129071D01*
X10641071Y-16157643D01*
X10926786Y-15986214D02*
X10926786Y-16043357D01*
X11041071Y-15986214D02*
X11041071Y-16043357D01*
X11483928Y-16400500D02*
X11469643Y-16386214D01*
X11441071Y-16343357D01*
X11426786Y-16314786D01*
X11412500Y-16271929D01*
X11398214Y-16200500D01*
X11398214Y-16143357D01*
X11412500Y-16071929D01*
X11426786Y-16029071D01*
X11441071Y-16000500D01*
X11469643Y-15957643D01*
X11483928Y-15943357D01*
X11755357Y-16286214D02*
X11583928Y-16286214D01*
X11669643Y-16286214D02*
X11669643Y-15986214D01*
X11641071Y-16029071D01*
X11612500Y-16057643D01*
X11583928Y-16071929D01*
X11941071Y-15986214D02*
X11969643Y-15986214D01*
X11998214Y-16000500D01*
X12012500Y-16014786D01*
X12026786Y-16043357D01*
X12041071Y-16100500D01*
X12041071Y-16171929D01*
X12026786Y-16229071D01*
X12012500Y-16257643D01*
X11998214Y-16271929D01*
X11969643Y-16286214D01*
X11941071Y-16286214D01*
X11912500Y-16271929D01*
X11898214Y-16257643D01*
X11883928Y-16229071D01*
X11869643Y-16171929D01*
X11869643Y-16100500D01*
X11883928Y-16043357D01*
X11898214Y-16014786D01*
X11912500Y-16000500D01*
X11941071Y-15986214D01*
X12398214Y-16286214D02*
X12398214Y-15986214D01*
X12526786Y-16286214D02*
X12526786Y-16129071D01*
X12512500Y-16100500D01*
X12483928Y-16086214D01*
X12441071Y-16086214D01*
X12412500Y-16100500D01*
X12398214Y-16114786D01*
X12712500Y-16286214D02*
X12683928Y-16271929D01*
X12669643Y-16257643D01*
X12655357Y-16229071D01*
X12655357Y-16143357D01*
X12669643Y-16114786D01*
X12683928Y-16100500D01*
X12712500Y-16086214D01*
X12755357Y-16086214D01*
X12783928Y-16100500D01*
X12798214Y-16114786D01*
X12812500Y-16143357D01*
X12812500Y-16229071D01*
X12798214Y-16257643D01*
X12783928Y-16271929D01*
X12755357Y-16286214D01*
X12712500Y-16286214D01*
X12983928Y-16286214D02*
X12955357Y-16271929D01*
X12941071Y-16243357D01*
X12941071Y-15986214D01*
X13212500Y-16271929D02*
X13183928Y-16286214D01*
X13126786Y-16286214D01*
X13098214Y-16271929D01*
X13083928Y-16243357D01*
X13083928Y-16129071D01*
X13098214Y-16100500D01*
X13126786Y-16086214D01*
X13183928Y-16086214D01*
X13212500Y-16100500D01*
X13226786Y-16129071D01*
X13226786Y-16157643D01*
X13083928Y-16186214D01*
X13341071Y-16271929D02*
X13369643Y-16286214D01*
X13426786Y-16286214D01*
X13455357Y-16271929D01*
X13469643Y-16243357D01*
X13469643Y-16229071D01*
X13455357Y-16200500D01*
X13426786Y-16186214D01*
X13383928Y-16186214D01*
X13355357Y-16171929D01*
X13341071Y-16143357D01*
X13341071Y-16129071D01*
X13355357Y-16100500D01*
X13383928Y-16086214D01*
X13426786Y-16086214D01*
X13455357Y-16100500D01*
X13569643Y-16400500D02*
X13583928Y-16386214D01*
X13612500Y-16343357D01*
X13626786Y-16314786D01*
X13641071Y-16271929D01*
X13655357Y-16200500D01*
X13655357Y-16143357D01*
X13641071Y-16071929D01*
X13626786Y-16029071D01*
X13612500Y-16000500D01*
X13583928Y-15957643D01*
X13569643Y-15943357D01*
X6757495Y-16586505D02*
X6797500Y-16546500D01*
X6757495Y-16506495D01*
X6717490Y-16546500D01*
X6757495Y-16586505D01*
X7141071Y-16382214D02*
X7169643Y-16382214D01*
X7198214Y-16396500D01*
X7212500Y-16410786D01*
X7226786Y-16439357D01*
X7241071Y-16496500D01*
X7241071Y-16567929D01*
X7226786Y-16625071D01*
X7212500Y-16653643D01*
X7198214Y-16667929D01*
X7169643Y-16682214D01*
X7141071Y-16682214D01*
X7112500Y-16667929D01*
X7098214Y-16653643D01*
X7083928Y-16625071D01*
X7069643Y-16567929D01*
X7069643Y-16496500D01*
X7083928Y-16439357D01*
X7098214Y-16410786D01*
X7112500Y-16396500D01*
X7141071Y-16382214D01*
X7369643Y-16653643D02*
X7383928Y-16667929D01*
X7369643Y-16682214D01*
X7355357Y-16667929D01*
X7369643Y-16653643D01*
X7369643Y-16682214D01*
X7555357Y-16510786D02*
X7526786Y-16496500D01*
X7512500Y-16482214D01*
X7498214Y-16453643D01*
X7498214Y-16439357D01*
X7512500Y-16410786D01*
X7526786Y-16396500D01*
X7555357Y-16382214D01*
X7612500Y-16382214D01*
X7641071Y-16396500D01*
X7655357Y-16410786D01*
X7669643Y-16439357D01*
X7669643Y-16453643D01*
X7655357Y-16482214D01*
X7641071Y-16496500D01*
X7612500Y-16510786D01*
X7555357Y-16510786D01*
X7526786Y-16525071D01*
X7512500Y-16539357D01*
X7498214Y-16567929D01*
X7498214Y-16625071D01*
X7512500Y-16653643D01*
X7526786Y-16667929D01*
X7555357Y-16682214D01*
X7612500Y-16682214D01*
X7641071Y-16667929D01*
X7655357Y-16653643D01*
X7669643Y-16625071D01*
X7669643Y-16567929D01*
X7655357Y-16539357D01*
X7641071Y-16525071D01*
X7612500Y-16510786D01*
X7855357Y-16382214D02*
X7883928Y-16382214D01*
X7912500Y-16396500D01*
X7926786Y-16410786D01*
X7941071Y-16439357D01*
X7955357Y-16496500D01*
X7955357Y-16567929D01*
X7941071Y-16625071D01*
X7926786Y-16653643D01*
X7912500Y-16667929D01*
X7883928Y-16682214D01*
X7855357Y-16682214D01*
X7826786Y-16667929D01*
X7812500Y-16653643D01*
X7798214Y-16625071D01*
X7783928Y-16567929D01*
X7783928Y-16496500D01*
X7798214Y-16439357D01*
X7812500Y-16410786D01*
X7826786Y-16396500D01*
X7855357Y-16382214D01*
X8083928Y-16682214D02*
X8083928Y-16482214D01*
X8083928Y-16510786D02*
X8098214Y-16496500D01*
X8126786Y-16482214D01*
X8169643Y-16482214D01*
X8198214Y-16496500D01*
X8212500Y-16525071D01*
X8212500Y-16682214D01*
X8212500Y-16525071D02*
X8226786Y-16496500D01*
X8255357Y-16482214D01*
X8298214Y-16482214D01*
X8326786Y-16496500D01*
X8341071Y-16525071D01*
X8341071Y-16682214D01*
X8483928Y-16682214D02*
X8483928Y-16482214D01*
X8483928Y-16510786D02*
X8498214Y-16496500D01*
X8526786Y-16482214D01*
X8569643Y-16482214D01*
X8598214Y-16496500D01*
X8612500Y-16525071D01*
X8612500Y-16682214D01*
X8612500Y-16525071D02*
X8626786Y-16496500D01*
X8655357Y-16482214D01*
X8698214Y-16482214D01*
X8726786Y-16496500D01*
X8741071Y-16525071D01*
X8741071Y-16682214D01*
X9326786Y-16367929D02*
X9069643Y-16753643D01*
X9712500Y-16382214D02*
X9741071Y-16382214D01*
X9769643Y-16396500D01*
X9783928Y-16410786D01*
X9798214Y-16439357D01*
X9812500Y-16496500D01*
X9812500Y-16567929D01*
X9798214Y-16625071D01*
X9783928Y-16653643D01*
X9769643Y-16667929D01*
X9741071Y-16682214D01*
X9712500Y-16682214D01*
X9683928Y-16667929D01*
X9669643Y-16653643D01*
X9655357Y-16625071D01*
X9641071Y-16567929D01*
X9641071Y-16496500D01*
X9655357Y-16439357D01*
X9669643Y-16410786D01*
X9683928Y-16396500D01*
X9712500Y-16382214D01*
X9941071Y-16653643D02*
X9955357Y-16667929D01*
X9941071Y-16682214D01*
X9926786Y-16667929D01*
X9941071Y-16653643D01*
X9941071Y-16682214D01*
X10141071Y-16382214D02*
X10169643Y-16382214D01*
X10198214Y-16396500D01*
X10212500Y-16410786D01*
X10226786Y-16439357D01*
X10241071Y-16496500D01*
X10241071Y-16567929D01*
X10226786Y-16625071D01*
X10212500Y-16653643D01*
X10198214Y-16667929D01*
X10169643Y-16682214D01*
X10141071Y-16682214D01*
X10112500Y-16667929D01*
X10098214Y-16653643D01*
X10083928Y-16625071D01*
X10069643Y-16567929D01*
X10069643Y-16496500D01*
X10083928Y-16439357D01*
X10098214Y-16410786D01*
X10112500Y-16396500D01*
X10141071Y-16382214D01*
X10341071Y-16382214D02*
X10526786Y-16382214D01*
X10426786Y-16496500D01*
X10469643Y-16496500D01*
X10498214Y-16510786D01*
X10512500Y-16525071D01*
X10526786Y-16553643D01*
X10526786Y-16625071D01*
X10512500Y-16653643D01*
X10498214Y-16667929D01*
X10469643Y-16682214D01*
X10383928Y-16682214D01*
X10355357Y-16667929D01*
X10341071Y-16653643D01*
X10641071Y-16410786D02*
X10655357Y-16396500D01*
X10683928Y-16382214D01*
X10755357Y-16382214D01*
X10783928Y-16396500D01*
X10798214Y-16410786D01*
X10812500Y-16439357D01*
X10812500Y-16467929D01*
X10798214Y-16510786D01*
X10626786Y-16682214D01*
X10812500Y-16682214D01*
X10926786Y-16382214D02*
X10926786Y-16439357D01*
X11041071Y-16382214D02*
X11041071Y-16439357D01*
X11483928Y-16796500D02*
X11469643Y-16782214D01*
X11441071Y-16739357D01*
X11426786Y-16710786D01*
X11412500Y-16667929D01*
X11398214Y-16596500D01*
X11398214Y-16539357D01*
X11412500Y-16467929D01*
X11426786Y-16425071D01*
X11441071Y-16396500D01*
X11469643Y-16353643D01*
X11483928Y-16339357D01*
X11726786Y-16382214D02*
X11669643Y-16382214D01*
X11641071Y-16396500D01*
X11626786Y-16410786D01*
X11598214Y-16453643D01*
X11583928Y-16510786D01*
X11583928Y-16625071D01*
X11598214Y-16653643D01*
X11612500Y-16667929D01*
X11641071Y-16682214D01*
X11698214Y-16682214D01*
X11726786Y-16667929D01*
X11741071Y-16653643D01*
X11755357Y-16625071D01*
X11755357Y-16553643D01*
X11741071Y-16525071D01*
X11726786Y-16510786D01*
X11698214Y-16496500D01*
X11641071Y-16496500D01*
X11612500Y-16510786D01*
X11598214Y-16525071D01*
X11583928Y-16553643D01*
X12012500Y-16482214D02*
X12012500Y-16682214D01*
X11941071Y-16367929D02*
X11869643Y-16582214D01*
X12055357Y-16582214D01*
X12398214Y-16682214D02*
X12398214Y-16382214D01*
X12526786Y-16682214D02*
X12526786Y-16525071D01*
X12512500Y-16496500D01*
X12483928Y-16482214D01*
X12441071Y-16482214D01*
X12412500Y-16496500D01*
X12398214Y-16510786D01*
X12712500Y-16682214D02*
X12683928Y-16667929D01*
X12669643Y-16653643D01*
X12655357Y-16625071D01*
X12655357Y-16539357D01*
X12669643Y-16510786D01*
X12683928Y-16496500D01*
X12712500Y-16482214D01*
X12755357Y-16482214D01*
X12783928Y-16496500D01*
X12798214Y-16510786D01*
X12812500Y-16539357D01*
X12812500Y-16625071D01*
X12798214Y-16653643D01*
X12783928Y-16667929D01*
X12755357Y-16682214D01*
X12712500Y-16682214D01*
X12983928Y-16682214D02*
X12955357Y-16667929D01*
X12941071Y-16639357D01*
X12941071Y-16382214D01*
X13212500Y-16667929D02*
X13183928Y-16682214D01*
X13126786Y-16682214D01*
X13098214Y-16667929D01*
X13083928Y-16639357D01*
X13083928Y-16525071D01*
X13098214Y-16496500D01*
X13126786Y-16482214D01*
X13183928Y-16482214D01*
X13212500Y-16496500D01*
X13226786Y-16525071D01*
X13226786Y-16553643D01*
X13083928Y-16582214D01*
X13341071Y-16667929D02*
X13369643Y-16682214D01*
X13426786Y-16682214D01*
X13455357Y-16667929D01*
X13469643Y-16639357D01*
X13469643Y-16625071D01*
X13455357Y-16596500D01*
X13426786Y-16582214D01*
X13383928Y-16582214D01*
X13355357Y-16567929D01*
X13341071Y-16539357D01*
X13341071Y-16525071D01*
X13355357Y-16496500D01*
X13383928Y-16482214D01*
X13426786Y-16482214D01*
X13455357Y-16496500D01*
X13569643Y-16796500D02*
X13583928Y-16782214D01*
X13612500Y-16739357D01*
X13626786Y-16710786D01*
X13641071Y-16667929D01*
X13655357Y-16596500D01*
X13655357Y-16539357D01*
X13641071Y-16467929D01*
X13626786Y-16425071D01*
X13612500Y-16396500D01*
X13583928Y-16353643D01*
X13569643Y-16339357D01*
X6697500Y-16892500D02*
X6797500Y-16992500D01*
X6797500Y-16892500D02*
X6697500Y-16992500D01*
X6797500Y-16942500D02*
G75*
G03X6797500Y-16942500I-50000J0D01*
G01*
X7241071Y-17078214D02*
X7069643Y-17078214D01*
X7155357Y-17078214D02*
X7155357Y-16778214D01*
X7126786Y-16821072D01*
X7098214Y-16849643D01*
X7069643Y-16863929D01*
X7369643Y-17049643D02*
X7383928Y-17063929D01*
X7369643Y-17078214D01*
X7355357Y-17063929D01*
X7369643Y-17049643D01*
X7369643Y-17078214D01*
X7569643Y-16778214D02*
X7598214Y-16778214D01*
X7626786Y-16792500D01*
X7641071Y-16806786D01*
X7655357Y-16835357D01*
X7669643Y-16892500D01*
X7669643Y-16963929D01*
X7655357Y-17021072D01*
X7641071Y-17049643D01*
X7626786Y-17063929D01*
X7598214Y-17078214D01*
X7569643Y-17078214D01*
X7541071Y-17063929D01*
X7526786Y-17049643D01*
X7512500Y-17021072D01*
X7498214Y-16963929D01*
X7498214Y-16892500D01*
X7512500Y-16835357D01*
X7526786Y-16806786D01*
X7541071Y-16792500D01*
X7569643Y-16778214D01*
X7855357Y-16778214D02*
X7883928Y-16778214D01*
X7912500Y-16792500D01*
X7926786Y-16806786D01*
X7941071Y-16835357D01*
X7955357Y-16892500D01*
X7955357Y-16963929D01*
X7941071Y-17021072D01*
X7926786Y-17049643D01*
X7912500Y-17063929D01*
X7883928Y-17078214D01*
X7855357Y-17078214D01*
X7826786Y-17063929D01*
X7812500Y-17049643D01*
X7798214Y-17021072D01*
X7783928Y-16963929D01*
X7783928Y-16892500D01*
X7798214Y-16835357D01*
X7812500Y-16806786D01*
X7826786Y-16792500D01*
X7855357Y-16778214D01*
X8083928Y-17078214D02*
X8083928Y-16878214D01*
X8083928Y-16906786D02*
X8098214Y-16892500D01*
X8126786Y-16878214D01*
X8169643Y-16878214D01*
X8198214Y-16892500D01*
X8212500Y-16921072D01*
X8212500Y-17078214D01*
X8212500Y-16921072D02*
X8226786Y-16892500D01*
X8255357Y-16878214D01*
X8298214Y-16878214D01*
X8326786Y-16892500D01*
X8341071Y-16921072D01*
X8341071Y-17078214D01*
X8483928Y-17078214D02*
X8483928Y-16878214D01*
X8483928Y-16906786D02*
X8498214Y-16892500D01*
X8526786Y-16878214D01*
X8569643Y-16878214D01*
X8598214Y-16892500D01*
X8612500Y-16921072D01*
X8612500Y-17078214D01*
X8612500Y-16921072D02*
X8626786Y-16892500D01*
X8655357Y-16878214D01*
X8698214Y-16878214D01*
X8726786Y-16892500D01*
X8741071Y-16921072D01*
X8741071Y-17078214D01*
X9326786Y-16763929D02*
X9069643Y-17149643D01*
X9712500Y-16778214D02*
X9741071Y-16778214D01*
X9769643Y-16792500D01*
X9783928Y-16806786D01*
X9798214Y-16835357D01*
X9812500Y-16892500D01*
X9812500Y-16963929D01*
X9798214Y-17021072D01*
X9783928Y-17049643D01*
X9769643Y-17063929D01*
X9741071Y-17078214D01*
X9712500Y-17078214D01*
X9683928Y-17063929D01*
X9669643Y-17049643D01*
X9655357Y-17021072D01*
X9641071Y-16963929D01*
X9641071Y-16892500D01*
X9655357Y-16835357D01*
X9669643Y-16806786D01*
X9683928Y-16792500D01*
X9712500Y-16778214D01*
X9941071Y-17049643D02*
X9955357Y-17063929D01*
X9941071Y-17078214D01*
X9926786Y-17063929D01*
X9941071Y-17049643D01*
X9941071Y-17078214D01*
X10141071Y-16778214D02*
X10169643Y-16778214D01*
X10198214Y-16792500D01*
X10212500Y-16806786D01*
X10226786Y-16835357D01*
X10241071Y-16892500D01*
X10241071Y-16963929D01*
X10226786Y-17021072D01*
X10212500Y-17049643D01*
X10198214Y-17063929D01*
X10169643Y-17078214D01*
X10141071Y-17078214D01*
X10112500Y-17063929D01*
X10098214Y-17049643D01*
X10083928Y-17021072D01*
X10069643Y-16963929D01*
X10069643Y-16892500D01*
X10083928Y-16835357D01*
X10098214Y-16806786D01*
X10112500Y-16792500D01*
X10141071Y-16778214D01*
X10341071Y-16778214D02*
X10526786Y-16778214D01*
X10426786Y-16892500D01*
X10469643Y-16892500D01*
X10498214Y-16906786D01*
X10512500Y-16921072D01*
X10526786Y-16949643D01*
X10526786Y-17021072D01*
X10512500Y-17049643D01*
X10498214Y-17063929D01*
X10469643Y-17078214D01*
X10383928Y-17078214D01*
X10355357Y-17063929D01*
X10341071Y-17049643D01*
X10669643Y-17078214D02*
X10726786Y-17078214D01*
X10755357Y-17063929D01*
X10769643Y-17049643D01*
X10798214Y-17006786D01*
X10812500Y-16949643D01*
X10812500Y-16835357D01*
X10798214Y-16806786D01*
X10783928Y-16792500D01*
X10755357Y-16778214D01*
X10698214Y-16778214D01*
X10669643Y-16792500D01*
X10655357Y-16806786D01*
X10641071Y-16835357D01*
X10641071Y-16906786D01*
X10655357Y-16935357D01*
X10669643Y-16949643D01*
X10698214Y-16963929D01*
X10755357Y-16963929D01*
X10783928Y-16949643D01*
X10798214Y-16935357D01*
X10812500Y-16906786D01*
X10926786Y-16778214D02*
X10926786Y-16835357D01*
X11041071Y-16778214D02*
X11041071Y-16835357D01*
X11483928Y-17192500D02*
X11469643Y-17178214D01*
X11441071Y-17135357D01*
X11426786Y-17106786D01*
X11412500Y-17063929D01*
X11398214Y-16992500D01*
X11398214Y-16935357D01*
X11412500Y-16863929D01*
X11426786Y-16821072D01*
X11441071Y-16792500D01*
X11469643Y-16749643D01*
X11483928Y-16735357D01*
X11755357Y-17078214D02*
X11583928Y-17078214D01*
X11669643Y-17078214D02*
X11669643Y-16778214D01*
X11641071Y-16821072D01*
X11612500Y-16849643D01*
X11583928Y-16863929D01*
X11855357Y-16778214D02*
X12041071Y-16778214D01*
X11941071Y-16892500D01*
X11983928Y-16892500D01*
X12012500Y-16906786D01*
X12026786Y-16921072D01*
X12041071Y-16949643D01*
X12041071Y-17021072D01*
X12026786Y-17049643D01*
X12012500Y-17063929D01*
X11983928Y-17078214D01*
X11898214Y-17078214D01*
X11869643Y-17063929D01*
X11855357Y-17049643D01*
X12398214Y-17078214D02*
X12398214Y-16778214D01*
X12526786Y-17078214D02*
X12526786Y-16921072D01*
X12512500Y-16892500D01*
X12483928Y-16878214D01*
X12441071Y-16878214D01*
X12412500Y-16892500D01*
X12398214Y-16906786D01*
X12712500Y-17078214D02*
X12683928Y-17063929D01*
X12669643Y-17049643D01*
X12655357Y-17021072D01*
X12655357Y-16935357D01*
X12669643Y-16906786D01*
X12683928Y-16892500D01*
X12712500Y-16878214D01*
X12755357Y-16878214D01*
X12783928Y-16892500D01*
X12798214Y-16906786D01*
X12812500Y-16935357D01*
X12812500Y-17021072D01*
X12798214Y-17049643D01*
X12783928Y-17063929D01*
X12755357Y-17078214D01*
X12712500Y-17078214D01*
X12983928Y-17078214D02*
X12955357Y-17063929D01*
X12941071Y-17035357D01*
X12941071Y-16778214D01*
X13212500Y-17063929D02*
X13183928Y-17078214D01*
X13126786Y-17078214D01*
X13098214Y-17063929D01*
X13083928Y-17035357D01*
X13083928Y-16921072D01*
X13098214Y-16892500D01*
X13126786Y-16878214D01*
X13183928Y-16878214D01*
X13212500Y-16892500D01*
X13226786Y-16921072D01*
X13226786Y-16949643D01*
X13083928Y-16978214D01*
X13341071Y-17063929D02*
X13369643Y-17078214D01*
X13426786Y-17078214D01*
X13455357Y-17063929D01*
X13469643Y-17035357D01*
X13469643Y-17021072D01*
X13455357Y-16992500D01*
X13426786Y-16978214D01*
X13383928Y-16978214D01*
X13355357Y-16963929D01*
X13341071Y-16935357D01*
X13341071Y-16921072D01*
X13355357Y-16892500D01*
X13383928Y-16878214D01*
X13426786Y-16878214D01*
X13455357Y-16892500D01*
X13569643Y-17192500D02*
X13583928Y-17178214D01*
X13612500Y-17135357D01*
X13626786Y-17106786D01*
X13641071Y-17063929D01*
X13655357Y-16992500D01*
X13655357Y-16935357D01*
X13641071Y-16863929D01*
X13626786Y-16821072D01*
X13612500Y-16792500D01*
X13583928Y-16749643D01*
X13569643Y-16735357D01*
X6677500Y-17278500D02*
X6797500Y-17398500D01*
X6797500Y-17278500D02*
X6677500Y-17398500D01*
X6737500Y-17278500D02*
X6737500Y-17398500D01*
X6677500Y-17338500D02*
X6797500Y-17338500D01*
X7241071Y-17474214D02*
X7069643Y-17474214D01*
X7155357Y-17474214D02*
X7155357Y-17174214D01*
X7126786Y-17217072D01*
X7098214Y-17245643D01*
X7069643Y-17259929D01*
X7369643Y-17445643D02*
X7383928Y-17459929D01*
X7369643Y-17474214D01*
X7355357Y-17459929D01*
X7369643Y-17445643D01*
X7369643Y-17474214D01*
X7498214Y-17202786D02*
X7512500Y-17188500D01*
X7541071Y-17174214D01*
X7612500Y-17174214D01*
X7641071Y-17188500D01*
X7655357Y-17202786D01*
X7669643Y-17231357D01*
X7669643Y-17259929D01*
X7655357Y-17302786D01*
X7483928Y-17474214D01*
X7669643Y-17474214D01*
X7855357Y-17174214D02*
X7883928Y-17174214D01*
X7912500Y-17188500D01*
X7926786Y-17202786D01*
X7941071Y-17231357D01*
X7955357Y-17288500D01*
X7955357Y-17359929D01*
X7941071Y-17417072D01*
X7926786Y-17445643D01*
X7912500Y-17459929D01*
X7883928Y-17474214D01*
X7855357Y-17474214D01*
X7826786Y-17459929D01*
X7812500Y-17445643D01*
X7798214Y-17417072D01*
X7783928Y-17359929D01*
X7783928Y-17288500D01*
X7798214Y-17231357D01*
X7812500Y-17202786D01*
X7826786Y-17188500D01*
X7855357Y-17174214D01*
X8083928Y-17474214D02*
X8083928Y-17274214D01*
X8083928Y-17302786D02*
X8098214Y-17288500D01*
X8126786Y-17274214D01*
X8169643Y-17274214D01*
X8198214Y-17288500D01*
X8212500Y-17317072D01*
X8212500Y-17474214D01*
X8212500Y-17317072D02*
X8226786Y-17288500D01*
X8255357Y-17274214D01*
X8298214Y-17274214D01*
X8326786Y-17288500D01*
X8341071Y-17317072D01*
X8341071Y-17474214D01*
X8483928Y-17474214D02*
X8483928Y-17274214D01*
X8483928Y-17302786D02*
X8498214Y-17288500D01*
X8526786Y-17274214D01*
X8569643Y-17274214D01*
X8598214Y-17288500D01*
X8612500Y-17317072D01*
X8612500Y-17474214D01*
X8612500Y-17317072D02*
X8626786Y-17288500D01*
X8655357Y-17274214D01*
X8698214Y-17274214D01*
X8726786Y-17288500D01*
X8741071Y-17317072D01*
X8741071Y-17474214D01*
X9326786Y-17159929D02*
X9069643Y-17545643D01*
X9712500Y-17174214D02*
X9741071Y-17174214D01*
X9769643Y-17188500D01*
X9783928Y-17202786D01*
X9798214Y-17231357D01*
X9812500Y-17288500D01*
X9812500Y-17359929D01*
X9798214Y-17417072D01*
X9783928Y-17445643D01*
X9769643Y-17459929D01*
X9741071Y-17474214D01*
X9712500Y-17474214D01*
X9683928Y-17459929D01*
X9669643Y-17445643D01*
X9655357Y-17417072D01*
X9641071Y-17359929D01*
X9641071Y-17288500D01*
X9655357Y-17231357D01*
X9669643Y-17202786D01*
X9683928Y-17188500D01*
X9712500Y-17174214D01*
X9941071Y-17445643D02*
X9955357Y-17459929D01*
X9941071Y-17474214D01*
X9926786Y-17459929D01*
X9941071Y-17445643D01*
X9941071Y-17474214D01*
X10141071Y-17174214D02*
X10169643Y-17174214D01*
X10198214Y-17188500D01*
X10212500Y-17202786D01*
X10226786Y-17231357D01*
X10241071Y-17288500D01*
X10241071Y-17359929D01*
X10226786Y-17417072D01*
X10212500Y-17445643D01*
X10198214Y-17459929D01*
X10169643Y-17474214D01*
X10141071Y-17474214D01*
X10112500Y-17459929D01*
X10098214Y-17445643D01*
X10083928Y-17417072D01*
X10069643Y-17359929D01*
X10069643Y-17288500D01*
X10083928Y-17231357D01*
X10098214Y-17202786D01*
X10112500Y-17188500D01*
X10141071Y-17174214D01*
X10498214Y-17274214D02*
X10498214Y-17474214D01*
X10426786Y-17159929D02*
X10355357Y-17374214D01*
X10541071Y-17374214D01*
X10626786Y-17174214D02*
X10826786Y-17174214D01*
X10698214Y-17474214D01*
X10926786Y-17174214D02*
X10926786Y-17231357D01*
X11041071Y-17174214D02*
X11041071Y-17231357D01*
X11483928Y-17588500D02*
X11469643Y-17574214D01*
X11441071Y-17531357D01*
X11426786Y-17502786D01*
X11412500Y-17459929D01*
X11398214Y-17388500D01*
X11398214Y-17331357D01*
X11412500Y-17259929D01*
X11426786Y-17217072D01*
X11441071Y-17188500D01*
X11469643Y-17145643D01*
X11483928Y-17131357D01*
X11641071Y-17302786D02*
X11612500Y-17288500D01*
X11598214Y-17274214D01*
X11583928Y-17245643D01*
X11583928Y-17231357D01*
X11598214Y-17202786D01*
X11612500Y-17188500D01*
X11641071Y-17174214D01*
X11698214Y-17174214D01*
X11726786Y-17188500D01*
X11741071Y-17202786D01*
X11755357Y-17231357D01*
X11755357Y-17245643D01*
X11741071Y-17274214D01*
X11726786Y-17288500D01*
X11698214Y-17302786D01*
X11641071Y-17302786D01*
X11612500Y-17317072D01*
X11598214Y-17331357D01*
X11583928Y-17359929D01*
X11583928Y-17417072D01*
X11598214Y-17445643D01*
X11612500Y-17459929D01*
X11641071Y-17474214D01*
X11698214Y-17474214D01*
X11726786Y-17459929D01*
X11741071Y-17445643D01*
X11755357Y-17417072D01*
X11755357Y-17359929D01*
X11741071Y-17331357D01*
X11726786Y-17317072D01*
X11698214Y-17302786D01*
X12112500Y-17474214D02*
X12112500Y-17174214D01*
X12241071Y-17474214D02*
X12241071Y-17317072D01*
X12226786Y-17288500D01*
X12198214Y-17274214D01*
X12155357Y-17274214D01*
X12126786Y-17288500D01*
X12112500Y-17302786D01*
X12426786Y-17474214D02*
X12398214Y-17459929D01*
X12383928Y-17445643D01*
X12369643Y-17417072D01*
X12369643Y-17331357D01*
X12383928Y-17302786D01*
X12398214Y-17288500D01*
X12426786Y-17274214D01*
X12469643Y-17274214D01*
X12498214Y-17288500D01*
X12512500Y-17302786D01*
X12526786Y-17331357D01*
X12526786Y-17417072D01*
X12512500Y-17445643D01*
X12498214Y-17459929D01*
X12469643Y-17474214D01*
X12426786Y-17474214D01*
X12698214Y-17474214D02*
X12669643Y-17459929D01*
X12655357Y-17431357D01*
X12655357Y-17174214D01*
X12926786Y-17459929D02*
X12898214Y-17474214D01*
X12841071Y-17474214D01*
X12812500Y-17459929D01*
X12798214Y-17431357D01*
X12798214Y-17317072D01*
X12812500Y-17288500D01*
X12841071Y-17274214D01*
X12898214Y-17274214D01*
X12926786Y-17288500D01*
X12941071Y-17317072D01*
X12941071Y-17345643D01*
X12798214Y-17374214D01*
X13055357Y-17459929D02*
X13083928Y-17474214D01*
X13141071Y-17474214D01*
X13169643Y-17459929D01*
X13183928Y-17431357D01*
X13183928Y-17417072D01*
X13169643Y-17388500D01*
X13141071Y-17374214D01*
X13098214Y-17374214D01*
X13069643Y-17359929D01*
X13055357Y-17331357D01*
X13055357Y-17317072D01*
X13069643Y-17288500D01*
X13098214Y-17274214D01*
X13141071Y-17274214D01*
X13169643Y-17288500D01*
X13283928Y-17588500D02*
X13298214Y-17574214D01*
X13326786Y-17531357D01*
X13341071Y-17502786D01*
X13355357Y-17459929D01*
X13369643Y-17388500D01*
X13369643Y-17331357D01*
X13355357Y-17259929D01*
X13341071Y-17217072D01*
X13326786Y-17188500D01*
X13298214Y-17145643D01*
X13283928Y-17131357D01*
X6657500Y-17664500D02*
X6797500Y-17804500D01*
X6797500Y-17664500D02*
X6657500Y-17804500D01*
X6776998Y-17783998D02*
X6776998Y-17685002D01*
X6678002Y-17685002D01*
X6678002Y-17783998D01*
X6776998Y-17783998D01*
X7241071Y-17870214D02*
X7069643Y-17870214D01*
X7155357Y-17870214D02*
X7155357Y-17570214D01*
X7126786Y-17613072D01*
X7098214Y-17641643D01*
X7069643Y-17655929D01*
X7369643Y-17841643D02*
X7383928Y-17855929D01*
X7369643Y-17870214D01*
X7355357Y-17855929D01*
X7369643Y-17841643D01*
X7369643Y-17870214D01*
X7641071Y-17670214D02*
X7641071Y-17870214D01*
X7569643Y-17555929D02*
X7498214Y-17770214D01*
X7683928Y-17770214D01*
X7855357Y-17570214D02*
X7883928Y-17570214D01*
X7912500Y-17584500D01*
X7926786Y-17598786D01*
X7941071Y-17627357D01*
X7955357Y-17684500D01*
X7955357Y-17755929D01*
X7941071Y-17813072D01*
X7926786Y-17841643D01*
X7912500Y-17855929D01*
X7883928Y-17870214D01*
X7855357Y-17870214D01*
X7826786Y-17855929D01*
X7812500Y-17841643D01*
X7798214Y-17813072D01*
X7783928Y-17755929D01*
X7783928Y-17684500D01*
X7798214Y-17627357D01*
X7812500Y-17598786D01*
X7826786Y-17584500D01*
X7855357Y-17570214D01*
X8083928Y-17870214D02*
X8083928Y-17670214D01*
X8083928Y-17698786D02*
X8098214Y-17684500D01*
X8126786Y-17670214D01*
X8169643Y-17670214D01*
X8198214Y-17684500D01*
X8212500Y-17713072D01*
X8212500Y-17870214D01*
X8212500Y-17713072D02*
X8226786Y-17684500D01*
X8255357Y-17670214D01*
X8298214Y-17670214D01*
X8326786Y-17684500D01*
X8341071Y-17713072D01*
X8341071Y-17870214D01*
X8483928Y-17870214D02*
X8483928Y-17670214D01*
X8483928Y-17698786D02*
X8498214Y-17684500D01*
X8526786Y-17670214D01*
X8569643Y-17670214D01*
X8598214Y-17684500D01*
X8612500Y-17713072D01*
X8612500Y-17870214D01*
X8612500Y-17713072D02*
X8626786Y-17684500D01*
X8655357Y-17670214D01*
X8698214Y-17670214D01*
X8726786Y-17684500D01*
X8741071Y-17713072D01*
X8741071Y-17870214D01*
X9326786Y-17555929D02*
X9069643Y-17941643D01*
X9712500Y-17570214D02*
X9741071Y-17570214D01*
X9769643Y-17584500D01*
X9783928Y-17598786D01*
X9798214Y-17627357D01*
X9812500Y-17684500D01*
X9812500Y-17755929D01*
X9798214Y-17813072D01*
X9783928Y-17841643D01*
X9769643Y-17855929D01*
X9741071Y-17870214D01*
X9712500Y-17870214D01*
X9683928Y-17855929D01*
X9669643Y-17841643D01*
X9655357Y-17813072D01*
X9641071Y-17755929D01*
X9641071Y-17684500D01*
X9655357Y-17627357D01*
X9669643Y-17598786D01*
X9683928Y-17584500D01*
X9712500Y-17570214D01*
X9941071Y-17841643D02*
X9955357Y-17855929D01*
X9941071Y-17870214D01*
X9926786Y-17855929D01*
X9941071Y-17841643D01*
X9941071Y-17870214D01*
X10141071Y-17570214D02*
X10169643Y-17570214D01*
X10198214Y-17584500D01*
X10212500Y-17598786D01*
X10226786Y-17627357D01*
X10241071Y-17684500D01*
X10241071Y-17755929D01*
X10226786Y-17813072D01*
X10212500Y-17841643D01*
X10198214Y-17855929D01*
X10169643Y-17870214D01*
X10141071Y-17870214D01*
X10112500Y-17855929D01*
X10098214Y-17841643D01*
X10083928Y-17813072D01*
X10069643Y-17755929D01*
X10069643Y-17684500D01*
X10083928Y-17627357D01*
X10098214Y-17598786D01*
X10112500Y-17584500D01*
X10141071Y-17570214D01*
X10512500Y-17570214D02*
X10369643Y-17570214D01*
X10355357Y-17713072D01*
X10369643Y-17698786D01*
X10398214Y-17684500D01*
X10469643Y-17684500D01*
X10498214Y-17698786D01*
X10512500Y-17713072D01*
X10526786Y-17741643D01*
X10526786Y-17813072D01*
X10512500Y-17841643D01*
X10498214Y-17855929D01*
X10469643Y-17870214D01*
X10398214Y-17870214D01*
X10369643Y-17855929D01*
X10355357Y-17841643D01*
X10798214Y-17570214D02*
X10655357Y-17570214D01*
X10641071Y-17713072D01*
X10655357Y-17698786D01*
X10683928Y-17684500D01*
X10755357Y-17684500D01*
X10783928Y-17698786D01*
X10798214Y-17713072D01*
X10812500Y-17741643D01*
X10812500Y-17813072D01*
X10798214Y-17841643D01*
X10783928Y-17855929D01*
X10755357Y-17870214D01*
X10683928Y-17870214D01*
X10655357Y-17855929D01*
X10641071Y-17841643D01*
X10926786Y-17570214D02*
X10926786Y-17627357D01*
X11041071Y-17570214D02*
X11041071Y-17627357D01*
X11483928Y-17984500D02*
X11469643Y-17970214D01*
X11441071Y-17927357D01*
X11426786Y-17898786D01*
X11412500Y-17855929D01*
X11398214Y-17784500D01*
X11398214Y-17727357D01*
X11412500Y-17655929D01*
X11426786Y-17613072D01*
X11441071Y-17584500D01*
X11469643Y-17541643D01*
X11483928Y-17527357D01*
X11583928Y-17598786D02*
X11598214Y-17584500D01*
X11626786Y-17570214D01*
X11698214Y-17570214D01*
X11726786Y-17584500D01*
X11741071Y-17598786D01*
X11755357Y-17627357D01*
X11755357Y-17655929D01*
X11741071Y-17698786D01*
X11569643Y-17870214D01*
X11755357Y-17870214D01*
X12112500Y-17870214D02*
X12112500Y-17570214D01*
X12241071Y-17870214D02*
X12241071Y-17713072D01*
X12226786Y-17684500D01*
X12198214Y-17670214D01*
X12155357Y-17670214D01*
X12126786Y-17684500D01*
X12112500Y-17698786D01*
X12426786Y-17870214D02*
X12398214Y-17855929D01*
X12383928Y-17841643D01*
X12369643Y-17813072D01*
X12369643Y-17727357D01*
X12383928Y-17698786D01*
X12398214Y-17684500D01*
X12426786Y-17670214D01*
X12469643Y-17670214D01*
X12498214Y-17684500D01*
X12512500Y-17698786D01*
X12526786Y-17727357D01*
X12526786Y-17813072D01*
X12512500Y-17841643D01*
X12498214Y-17855929D01*
X12469643Y-17870214D01*
X12426786Y-17870214D01*
X12698214Y-17870214D02*
X12669643Y-17855929D01*
X12655357Y-17827357D01*
X12655357Y-17570214D01*
X12926786Y-17855929D02*
X12898214Y-17870214D01*
X12841071Y-17870214D01*
X12812500Y-17855929D01*
X12798214Y-17827357D01*
X12798214Y-17713072D01*
X12812500Y-17684500D01*
X12841071Y-17670214D01*
X12898214Y-17670214D01*
X12926786Y-17684500D01*
X12941071Y-17713072D01*
X12941071Y-17741643D01*
X12798214Y-17770214D01*
X13055357Y-17855929D02*
X13083928Y-17870214D01*
X13141071Y-17870214D01*
X13169643Y-17855929D01*
X13183928Y-17827357D01*
X13183928Y-17813072D01*
X13169643Y-17784500D01*
X13141071Y-17770214D01*
X13098214Y-17770214D01*
X13069643Y-17755929D01*
X13055357Y-17727357D01*
X13055357Y-17713072D01*
X13069643Y-17684500D01*
X13098214Y-17670214D01*
X13141071Y-17670214D01*
X13169643Y-17684500D01*
X13283928Y-17984500D02*
X13298214Y-17970214D01*
X13326786Y-17927357D01*
X13341071Y-17898786D01*
X13355357Y-17855929D01*
X13369643Y-17784500D01*
X13369643Y-17727357D01*
X13355357Y-17655929D01*
X13341071Y-17613072D01*
X13326786Y-17584500D01*
X13298214Y-17541643D01*
X13283928Y-17527357D01*
X6507500Y-17985500D02*
X6797500Y-18275500D01*
X6797500Y-17985500D02*
X6507500Y-18275500D01*
X6652500Y-18275500D02*
X6797500Y-18130500D01*
X6652500Y-17985500D01*
X6507500Y-18130500D01*
X6652500Y-18275500D01*
X7069643Y-17994786D02*
X7083928Y-17980500D01*
X7112500Y-17966214D01*
X7183928Y-17966214D01*
X7212500Y-17980500D01*
X7226786Y-17994786D01*
X7241071Y-18023357D01*
X7241071Y-18051929D01*
X7226786Y-18094786D01*
X7055357Y-18266214D01*
X7241071Y-18266214D01*
X7369643Y-18237643D02*
X7383928Y-18251929D01*
X7369643Y-18266214D01*
X7355357Y-18251929D01*
X7369643Y-18237643D01*
X7369643Y-18266214D01*
X7526786Y-18266214D02*
X7583928Y-18266214D01*
X7612500Y-18251929D01*
X7626786Y-18237643D01*
X7655357Y-18194786D01*
X7669643Y-18137643D01*
X7669643Y-18023357D01*
X7655357Y-17994786D01*
X7641071Y-17980500D01*
X7612500Y-17966214D01*
X7555357Y-17966214D01*
X7526786Y-17980500D01*
X7512500Y-17994786D01*
X7498214Y-18023357D01*
X7498214Y-18094786D01*
X7512500Y-18123357D01*
X7526786Y-18137643D01*
X7555357Y-18151929D01*
X7612500Y-18151929D01*
X7641071Y-18137643D01*
X7655357Y-18123357D01*
X7669643Y-18094786D01*
X7855357Y-17966214D02*
X7883928Y-17966214D01*
X7912500Y-17980500D01*
X7926786Y-17994786D01*
X7941071Y-18023357D01*
X7955357Y-18080500D01*
X7955357Y-18151929D01*
X7941071Y-18209072D01*
X7926786Y-18237643D01*
X7912500Y-18251929D01*
X7883928Y-18266214D01*
X7855357Y-18266214D01*
X7826786Y-18251929D01*
X7812500Y-18237643D01*
X7798214Y-18209072D01*
X7783928Y-18151929D01*
X7783928Y-18080500D01*
X7798214Y-18023357D01*
X7812500Y-17994786D01*
X7826786Y-17980500D01*
X7855357Y-17966214D01*
X8083928Y-18266214D02*
X8083928Y-18066214D01*
X8083928Y-18094786D02*
X8098214Y-18080500D01*
X8126786Y-18066214D01*
X8169643Y-18066214D01*
X8198214Y-18080500D01*
X8212500Y-18109072D01*
X8212500Y-18266214D01*
X8212500Y-18109072D02*
X8226786Y-18080500D01*
X8255357Y-18066214D01*
X8298214Y-18066214D01*
X8326786Y-18080500D01*
X8341071Y-18109072D01*
X8341071Y-18266214D01*
X8483928Y-18266214D02*
X8483928Y-18066214D01*
X8483928Y-18094786D02*
X8498214Y-18080500D01*
X8526786Y-18066214D01*
X8569643Y-18066214D01*
X8598214Y-18080500D01*
X8612500Y-18109072D01*
X8612500Y-18266214D01*
X8612500Y-18109072D02*
X8626786Y-18080500D01*
X8655357Y-18066214D01*
X8698214Y-18066214D01*
X8726786Y-18080500D01*
X8741071Y-18109072D01*
X8741071Y-18266214D01*
X9326786Y-17951929D02*
X9069643Y-18337643D01*
X9712500Y-17966214D02*
X9741071Y-17966214D01*
X9769643Y-17980500D01*
X9783928Y-17994786D01*
X9798214Y-18023357D01*
X9812500Y-18080500D01*
X9812500Y-18151929D01*
X9798214Y-18209072D01*
X9783928Y-18237643D01*
X9769643Y-18251929D01*
X9741071Y-18266214D01*
X9712500Y-18266214D01*
X9683928Y-18251929D01*
X9669643Y-18237643D01*
X9655357Y-18209072D01*
X9641071Y-18151929D01*
X9641071Y-18080500D01*
X9655357Y-18023357D01*
X9669643Y-17994786D01*
X9683928Y-17980500D01*
X9712500Y-17966214D01*
X9941071Y-18237643D02*
X9955357Y-18251929D01*
X9941071Y-18266214D01*
X9926786Y-18251929D01*
X9941071Y-18237643D01*
X9941071Y-18266214D01*
X10241071Y-18266214D02*
X10069643Y-18266214D01*
X10155357Y-18266214D02*
X10155357Y-17966214D01*
X10126786Y-18009072D01*
X10098214Y-18037643D01*
X10069643Y-18051929D01*
X10526786Y-18266214D02*
X10355357Y-18266214D01*
X10441071Y-18266214D02*
X10441071Y-17966214D01*
X10412500Y-18009072D01*
X10383928Y-18037643D01*
X10355357Y-18051929D01*
X10783928Y-18066214D02*
X10783928Y-18266214D01*
X10712500Y-17951929D02*
X10641071Y-18166214D01*
X10826786Y-18166214D01*
X10926786Y-17966214D02*
X10926786Y-18023357D01*
X11041071Y-17966214D02*
X11041071Y-18023357D01*
X11483928Y-18380500D02*
X11469643Y-18366214D01*
X11441071Y-18323357D01*
X11426786Y-18294786D01*
X11412500Y-18251929D01*
X11398214Y-18180500D01*
X11398214Y-18123357D01*
X11412500Y-18051929D01*
X11426786Y-18009072D01*
X11441071Y-17980500D01*
X11469643Y-17937643D01*
X11483928Y-17923357D01*
X11755357Y-18266214D02*
X11583928Y-18266214D01*
X11669643Y-18266214D02*
X11669643Y-17966214D01*
X11641071Y-18009072D01*
X11612500Y-18037643D01*
X11583928Y-18051929D01*
X12112500Y-18266214D02*
X12112500Y-17966214D01*
X12241071Y-18266214D02*
X12241071Y-18109072D01*
X12226786Y-18080500D01*
X12198214Y-18066214D01*
X12155357Y-18066214D01*
X12126786Y-18080500D01*
X12112500Y-18094786D01*
X12426786Y-18266214D02*
X12398214Y-18251929D01*
X12383928Y-18237643D01*
X12369643Y-18209072D01*
X12369643Y-18123357D01*
X12383928Y-18094786D01*
X12398214Y-18080500D01*
X12426786Y-18066214D01*
X12469643Y-18066214D01*
X12498214Y-18080500D01*
X12512500Y-18094786D01*
X12526786Y-18123357D01*
X12526786Y-18209072D01*
X12512500Y-18237643D01*
X12498214Y-18251929D01*
X12469643Y-18266214D01*
X12426786Y-18266214D01*
X12698214Y-18266214D02*
X12669643Y-18251929D01*
X12655357Y-18223357D01*
X12655357Y-17966214D01*
X12926786Y-18251929D02*
X12898214Y-18266214D01*
X12841071Y-18266214D01*
X12812500Y-18251929D01*
X12798214Y-18223357D01*
X12798214Y-18109072D01*
X12812500Y-18080500D01*
X12841071Y-18066214D01*
X12898214Y-18066214D01*
X12926786Y-18080500D01*
X12941071Y-18109072D01*
X12941071Y-18137643D01*
X12798214Y-18166214D01*
X13041071Y-18380500D02*
X13055357Y-18366214D01*
X13083928Y-18323357D01*
X13098214Y-18294786D01*
X13112500Y-18251929D01*
X13126786Y-18180500D01*
X13126786Y-18123357D01*
X13112500Y-18051929D01*
X13098214Y-18009072D01*
X13083928Y-17980500D01*
X13055357Y-17937643D01*
X13041071Y-17923357D01*
X6642500Y-18395500D02*
X6642500Y-18705500D01*
X6487500Y-18550500D02*
X6797500Y-18550500D01*
X6797500Y-18550500D02*
G75*
G03X6797500Y-18550500I-155000J0D01*
G01*
X7055357Y-18386214D02*
X7241071Y-18386214D01*
X7141071Y-18500500D01*
X7183928Y-18500500D01*
X7212500Y-18514786D01*
X7226786Y-18529072D01*
X7241071Y-18557643D01*
X7241071Y-18629072D01*
X7226786Y-18657643D01*
X7212500Y-18671929D01*
X7183928Y-18686214D01*
X7098214Y-18686214D01*
X7069643Y-18671929D01*
X7055357Y-18657643D01*
X7369643Y-18657643D02*
X7383928Y-18671929D01*
X7369643Y-18686214D01*
X7355357Y-18671929D01*
X7369643Y-18657643D01*
X7369643Y-18686214D01*
X7669643Y-18686214D02*
X7498214Y-18686214D01*
X7583928Y-18686214D02*
X7583928Y-18386214D01*
X7555357Y-18429072D01*
X7526786Y-18457643D01*
X7498214Y-18471929D01*
X7855357Y-18386214D02*
X7883928Y-18386214D01*
X7912500Y-18400500D01*
X7926786Y-18414786D01*
X7941071Y-18443357D01*
X7955357Y-18500500D01*
X7955357Y-18571929D01*
X7941071Y-18629072D01*
X7926786Y-18657643D01*
X7912500Y-18671929D01*
X7883928Y-18686214D01*
X7855357Y-18686214D01*
X7826786Y-18671929D01*
X7812500Y-18657643D01*
X7798214Y-18629072D01*
X7783928Y-18571929D01*
X7783928Y-18500500D01*
X7798214Y-18443357D01*
X7812500Y-18414786D01*
X7826786Y-18400500D01*
X7855357Y-18386214D01*
X8083928Y-18686214D02*
X8083928Y-18486214D01*
X8083928Y-18514786D02*
X8098214Y-18500500D01*
X8126786Y-18486214D01*
X8169643Y-18486214D01*
X8198214Y-18500500D01*
X8212500Y-18529072D01*
X8212500Y-18686214D01*
X8212500Y-18529072D02*
X8226786Y-18500500D01*
X8255357Y-18486214D01*
X8298214Y-18486214D01*
X8326786Y-18500500D01*
X8341071Y-18529072D01*
X8341071Y-18686214D01*
X8483928Y-18686214D02*
X8483928Y-18486214D01*
X8483928Y-18514786D02*
X8498214Y-18500500D01*
X8526786Y-18486214D01*
X8569643Y-18486214D01*
X8598214Y-18500500D01*
X8612500Y-18529072D01*
X8612500Y-18686214D01*
X8612500Y-18529072D02*
X8626786Y-18500500D01*
X8655357Y-18486214D01*
X8698214Y-18486214D01*
X8726786Y-18500500D01*
X8741071Y-18529072D01*
X8741071Y-18686214D01*
X9326786Y-18371929D02*
X9069643Y-18757643D01*
X9712500Y-18386214D02*
X9741071Y-18386214D01*
X9769643Y-18400500D01*
X9783928Y-18414786D01*
X9798214Y-18443357D01*
X9812500Y-18500500D01*
X9812500Y-18571929D01*
X9798214Y-18629072D01*
X9783928Y-18657643D01*
X9769643Y-18671929D01*
X9741071Y-18686214D01*
X9712500Y-18686214D01*
X9683928Y-18671929D01*
X9669643Y-18657643D01*
X9655357Y-18629072D01*
X9641071Y-18571929D01*
X9641071Y-18500500D01*
X9655357Y-18443357D01*
X9669643Y-18414786D01*
X9683928Y-18400500D01*
X9712500Y-18386214D01*
X9941071Y-18657643D02*
X9955357Y-18671929D01*
X9941071Y-18686214D01*
X9926786Y-18671929D01*
X9941071Y-18657643D01*
X9941071Y-18686214D01*
X10241071Y-18686214D02*
X10069643Y-18686214D01*
X10155357Y-18686214D02*
X10155357Y-18386214D01*
X10126786Y-18429072D01*
X10098214Y-18457643D01*
X10069643Y-18471929D01*
X10355357Y-18414786D02*
X10369643Y-18400500D01*
X10398214Y-18386214D01*
X10469643Y-18386214D01*
X10498214Y-18400500D01*
X10512500Y-18414786D01*
X10526786Y-18443357D01*
X10526786Y-18471929D01*
X10512500Y-18514786D01*
X10341071Y-18686214D01*
X10526786Y-18686214D01*
X10641071Y-18414786D02*
X10655357Y-18400500D01*
X10683928Y-18386214D01*
X10755357Y-18386214D01*
X10783928Y-18400500D01*
X10798214Y-18414786D01*
X10812500Y-18443357D01*
X10812500Y-18471929D01*
X10798214Y-18514786D01*
X10626786Y-18686214D01*
X10812500Y-18686214D01*
X10926786Y-18386214D02*
X10926786Y-18443357D01*
X11041071Y-18386214D02*
X11041071Y-18443357D01*
X11483928Y-18800500D02*
X11469643Y-18786214D01*
X11441071Y-18743357D01*
X11426786Y-18714786D01*
X11412500Y-18671929D01*
X11398214Y-18600500D01*
X11398214Y-18543357D01*
X11412500Y-18471929D01*
X11426786Y-18429072D01*
X11441071Y-18400500D01*
X11469643Y-18357643D01*
X11483928Y-18343357D01*
X11583928Y-18414786D02*
X11598214Y-18400500D01*
X11626786Y-18386214D01*
X11698214Y-18386214D01*
X11726786Y-18400500D01*
X11741071Y-18414786D01*
X11755357Y-18443357D01*
X11755357Y-18471929D01*
X11741071Y-18514786D01*
X11569643Y-18686214D01*
X11755357Y-18686214D01*
X12112500Y-18686214D02*
X12112500Y-18386214D01*
X12241071Y-18686214D02*
X12241071Y-18529072D01*
X12226786Y-18500500D01*
X12198214Y-18486214D01*
X12155357Y-18486214D01*
X12126786Y-18500500D01*
X12112500Y-18514786D01*
X12426786Y-18686214D02*
X12398214Y-18671929D01*
X12383928Y-18657643D01*
X12369643Y-18629072D01*
X12369643Y-18543357D01*
X12383928Y-18514786D01*
X12398214Y-18500500D01*
X12426786Y-18486214D01*
X12469643Y-18486214D01*
X12498214Y-18500500D01*
X12512500Y-18514786D01*
X12526786Y-18543357D01*
X12526786Y-18629072D01*
X12512500Y-18657643D01*
X12498214Y-18671929D01*
X12469643Y-18686214D01*
X12426786Y-18686214D01*
X12698214Y-18686214D02*
X12669643Y-18671929D01*
X12655357Y-18643357D01*
X12655357Y-18386214D01*
X12926786Y-18671929D02*
X12898214Y-18686214D01*
X12841071Y-18686214D01*
X12812500Y-18671929D01*
X12798214Y-18643357D01*
X12798214Y-18529072D01*
X12812500Y-18500500D01*
X12841071Y-18486214D01*
X12898214Y-18486214D01*
X12926786Y-18500500D01*
X12941071Y-18529072D01*
X12941071Y-18557643D01*
X12798214Y-18586214D01*
X13055357Y-18671929D02*
X13083928Y-18686214D01*
X13141071Y-18686214D01*
X13169643Y-18671929D01*
X13183928Y-18643357D01*
X13183928Y-18629072D01*
X13169643Y-18600500D01*
X13141071Y-18586214D01*
X13098214Y-18586214D01*
X13069643Y-18571929D01*
X13055357Y-18543357D01*
X13055357Y-18529072D01*
X13069643Y-18500500D01*
X13098214Y-18486214D01*
X13141071Y-18486214D01*
X13169643Y-18500500D01*
X13283928Y-18800500D02*
X13298214Y-18786214D01*
X13326786Y-18743357D01*
X13341071Y-18714786D01*
X13355357Y-18671929D01*
X13369643Y-18600500D01*
X13369643Y-18543357D01*
X13355357Y-18471929D01*
X13341071Y-18429072D01*
X13326786Y-18400500D01*
X13298214Y-18357643D01*
X13283928Y-18343357D01*
X6747709Y-19110709D02*
X6747709Y-18870291D01*
X6507291Y-18870291D01*
X6507291Y-19110709D01*
X6747709Y-19110709D01*
X6797500Y-18990500D02*
G75*
G03X6797500Y-18990500I-170000J0D01*
G01*
X7055357Y-18826214D02*
X7241071Y-18826214D01*
X7141071Y-18940500D01*
X7183928Y-18940500D01*
X7212500Y-18954786D01*
X7226786Y-18969072D01*
X7241071Y-18997643D01*
X7241071Y-19069072D01*
X7226786Y-19097643D01*
X7212500Y-19111929D01*
X7183928Y-19126214D01*
X7098214Y-19126214D01*
X7069643Y-19111929D01*
X7055357Y-19097643D01*
X7369643Y-19097643D02*
X7383928Y-19111929D01*
X7369643Y-19126214D01*
X7355357Y-19111929D01*
X7369643Y-19097643D01*
X7369643Y-19126214D01*
X7641071Y-18926214D02*
X7641071Y-19126214D01*
X7569643Y-18811929D02*
X7498214Y-19026214D01*
X7683928Y-19026214D01*
X7855357Y-18826214D02*
X7883928Y-18826214D01*
X7912500Y-18840500D01*
X7926786Y-18854786D01*
X7941071Y-18883357D01*
X7955357Y-18940500D01*
X7955357Y-19011929D01*
X7941071Y-19069072D01*
X7926786Y-19097643D01*
X7912500Y-19111929D01*
X7883928Y-19126214D01*
X7855357Y-19126214D01*
X7826786Y-19111929D01*
X7812500Y-19097643D01*
X7798214Y-19069072D01*
X7783928Y-19011929D01*
X7783928Y-18940500D01*
X7798214Y-18883357D01*
X7812500Y-18854786D01*
X7826786Y-18840500D01*
X7855357Y-18826214D01*
X8083928Y-19126214D02*
X8083928Y-18926214D01*
X8083928Y-18954786D02*
X8098214Y-18940500D01*
X8126786Y-18926214D01*
X8169643Y-18926214D01*
X8198214Y-18940500D01*
X8212500Y-18969072D01*
X8212500Y-19126214D01*
X8212500Y-18969072D02*
X8226786Y-18940500D01*
X8255357Y-18926214D01*
X8298214Y-18926214D01*
X8326786Y-18940500D01*
X8341071Y-18969072D01*
X8341071Y-19126214D01*
X8483928Y-19126214D02*
X8483928Y-18926214D01*
X8483928Y-18954786D02*
X8498214Y-18940500D01*
X8526786Y-18926214D01*
X8569643Y-18926214D01*
X8598214Y-18940500D01*
X8612500Y-18969072D01*
X8612500Y-19126214D01*
X8612500Y-18969072D02*
X8626786Y-18940500D01*
X8655357Y-18926214D01*
X8698214Y-18926214D01*
X8726786Y-18940500D01*
X8741071Y-18969072D01*
X8741071Y-19126214D01*
X9326786Y-18811929D02*
X9069643Y-19197643D01*
X9712500Y-18826214D02*
X9741071Y-18826214D01*
X9769643Y-18840500D01*
X9783928Y-18854786D01*
X9798214Y-18883357D01*
X9812500Y-18940500D01*
X9812500Y-19011929D01*
X9798214Y-19069072D01*
X9783928Y-19097643D01*
X9769643Y-19111929D01*
X9741071Y-19126214D01*
X9712500Y-19126214D01*
X9683928Y-19111929D01*
X9669643Y-19097643D01*
X9655357Y-19069072D01*
X9641071Y-19011929D01*
X9641071Y-18940500D01*
X9655357Y-18883357D01*
X9669643Y-18854786D01*
X9683928Y-18840500D01*
X9712500Y-18826214D01*
X9941071Y-19097643D02*
X9955357Y-19111929D01*
X9941071Y-19126214D01*
X9926786Y-19111929D01*
X9941071Y-19097643D01*
X9941071Y-19126214D01*
X10241071Y-19126214D02*
X10069643Y-19126214D01*
X10155357Y-19126214D02*
X10155357Y-18826214D01*
X10126786Y-18869072D01*
X10098214Y-18897643D01*
X10069643Y-18911929D01*
X10341071Y-18826214D02*
X10526786Y-18826214D01*
X10426786Y-18940500D01*
X10469643Y-18940500D01*
X10498214Y-18954786D01*
X10512500Y-18969072D01*
X10526786Y-18997643D01*
X10526786Y-19069072D01*
X10512500Y-19097643D01*
X10498214Y-19111929D01*
X10469643Y-19126214D01*
X10383928Y-19126214D01*
X10355357Y-19111929D01*
X10341071Y-19097643D01*
X10783928Y-18926214D02*
X10783928Y-19126214D01*
X10712500Y-18811929D02*
X10641071Y-19026214D01*
X10826786Y-19026214D01*
X10926786Y-18826214D02*
X10926786Y-18883357D01*
X11041071Y-18826214D02*
X11041071Y-18883357D01*
X11483928Y-19240500D02*
X11469643Y-19226214D01*
X11441071Y-19183357D01*
X11426786Y-19154786D01*
X11412500Y-19111929D01*
X11398214Y-19040500D01*
X11398214Y-18983357D01*
X11412500Y-18911929D01*
X11426786Y-18869072D01*
X11441071Y-18840500D01*
X11469643Y-18797643D01*
X11483928Y-18783357D01*
X11583928Y-18854786D02*
X11598214Y-18840500D01*
X11626786Y-18826214D01*
X11698214Y-18826214D01*
X11726786Y-18840500D01*
X11741071Y-18854786D01*
X11755357Y-18883357D01*
X11755357Y-18911929D01*
X11741071Y-18954786D01*
X11569643Y-19126214D01*
X11755357Y-19126214D01*
X12112500Y-19126214D02*
X12112500Y-18826214D01*
X12241071Y-19126214D02*
X12241071Y-18969072D01*
X12226786Y-18940500D01*
X12198214Y-18926214D01*
X12155357Y-18926214D01*
X12126786Y-18940500D01*
X12112500Y-18954786D01*
X12426786Y-19126214D02*
X12398214Y-19111929D01*
X12383928Y-19097643D01*
X12369643Y-19069072D01*
X12369643Y-18983357D01*
X12383928Y-18954786D01*
X12398214Y-18940500D01*
X12426786Y-18926214D01*
X12469643Y-18926214D01*
X12498214Y-18940500D01*
X12512500Y-18954786D01*
X12526786Y-18983357D01*
X12526786Y-19069072D01*
X12512500Y-19097643D01*
X12498214Y-19111929D01*
X12469643Y-19126214D01*
X12426786Y-19126214D01*
X12698214Y-19126214D02*
X12669643Y-19111929D01*
X12655357Y-19083357D01*
X12655357Y-18826214D01*
X12926786Y-19111929D02*
X12898214Y-19126214D01*
X12841071Y-19126214D01*
X12812500Y-19111929D01*
X12798214Y-19083357D01*
X12798214Y-18969072D01*
X12812500Y-18940500D01*
X12841071Y-18926214D01*
X12898214Y-18926214D01*
X12926786Y-18940500D01*
X12941071Y-18969072D01*
X12941071Y-18997643D01*
X12798214Y-19026214D01*
X13055357Y-19111929D02*
X13083928Y-19126214D01*
X13141071Y-19126214D01*
X13169643Y-19111929D01*
X13183928Y-19083357D01*
X13183928Y-19069072D01*
X13169643Y-19040500D01*
X13141071Y-19026214D01*
X13098214Y-19026214D01*
X13069643Y-19011929D01*
X13055357Y-18983357D01*
X13055357Y-18969072D01*
X13069643Y-18940500D01*
X13098214Y-18926214D01*
X13141071Y-18926214D01*
X13169643Y-18940500D01*
X13283928Y-19240500D02*
X13298214Y-19226214D01*
X13326786Y-19183357D01*
X13341071Y-19154786D01*
X13355357Y-19111929D01*
X13369643Y-19040500D01*
X13369643Y-18983357D01*
X13355357Y-18911929D01*
X13341071Y-18869072D01*
X13326786Y-18840500D01*
X13298214Y-18797643D01*
X13283928Y-18783357D01*
M02*
