G04 #@! TF.GenerationSoftware,KiCad,Pcbnew,5.1.4*
G04 #@! TF.CreationDate,2019-08-28T20:29:58+02:00*
G04 #@! TF.ProjectId,ETH1CJTAG,45544831-434a-4544-9147-2e6b69636164,rev?*
G04 #@! TF.SameCoordinates,Original*
G04 #@! TF.FileFunction,Profile,NP*
%FSLAX46Y46*%
G04 Gerber Fmt 4.6, Leading zero omitted, Abs format (unit mm)*
G04 Created by KiCad (PCBNEW 5.1.4) date 2019-08-28 20:29:58*
%MOMM*%
%LPD*%
G04 APERTURE LIST*
%ADD10C,0.050000*%
G04 APERTURE END LIST*
D10*
X186182000Y-130302000D02*
X186182000Y-133858000D01*
X185674000Y-130302000D02*
G75*
G02X186182000Y-130302000I254000J0D01*
G01*
X185674000Y-130302000D02*
X185674000Y-133858000D01*
X186182000Y-133858000D02*
G75*
G02X185674000Y-133858000I-254000J0D01*
G01*
X186182000Y-125222000D02*
X186182000Y-128778000D01*
X185674000Y-125222000D02*
G75*
G02X186182000Y-125222000I254000J0D01*
G01*
X185674000Y-125222000D02*
X185674000Y-128778000D01*
X186182000Y-128778000D02*
G75*
G02X185674000Y-128778000I-254000J0D01*
G01*
X186182000Y-114554000D02*
X186182000Y-118110000D01*
X185674000Y-114554000D02*
G75*
G02X186182000Y-114554000I254000J0D01*
G01*
X185674000Y-114554000D02*
X185674000Y-118110000D01*
X186182000Y-118110000D02*
G75*
G02X185674000Y-118110000I-254000J0D01*
G01*
X185674000Y-109474000D02*
G75*
G02X186182000Y-109474000I254000J0D01*
G01*
X186182000Y-113030000D02*
G75*
G02X185674000Y-113030000I-254000J0D01*
G01*
X186182000Y-109474000D02*
X186182000Y-113030000D01*
X185674000Y-109474000D02*
X185674000Y-113030000D01*
X226000000Y-140000000D02*
X228000000Y-138000000D01*
X226000000Y-40000000D02*
X228000000Y-42000000D01*
X68000000Y-140000000D02*
X68000000Y-40000000D01*
X226000000Y-140000000D02*
X68000000Y-140000000D01*
X228000000Y-42000000D02*
X228000000Y-138000000D01*
X68000000Y-40000000D02*
X226000000Y-40000000D01*
M02*
